<?xml version="1.0" standalone="no"?>
<!DOCTYPE svg PUBLIC "-//W3C//DTD SVG 20010904//EN"
 "http://www.w3.org/TR/2001/REC-SVG-20010904/DTD/svg10.dtd">
<svg version="1.0" xmlns="http://www.w3.org/2000/svg"
 width="2000.000000pt" height="2000.000000pt" viewBox="0 0 2000.000000 2000.000000"
 preserveAspectRatio="xMidYMid meet">

<g transform="translate(0.000000,2000.000000) scale(0.100000,-0.100000)"
fill="#000000" stroke="none">
<path d="M8195 18085 c-105 -18 -236 -65 -355 -126 l-96 -49 -109 15 c-302 40
-652 -14 -940 -146 -68 -30 -75 -32 -220 -34 -125 -2 -166 -6 -248 -28 -283
-75 -537 -265 -703 -523 -27 -41 -40 -53 -68 -58 -77 -15 -179 -78 -267 -165
-217 -215 -344 -531 -338 -838 l2 -94 -83 -77 c-143 -132 -267 -308 -341 -484
-17 -40 -48 -93 -69 -118 -170 -207 -277 -485 -268 -698 l3 -76 -49 -45 c-67
-63 -163 -194 -224 -304 -27 -51 -85 -180 -127 -287 -102 -259 -153 -355 -320
-605 -174 -259 -188 -284 -219 -376 -52 -156 -45 -280 34 -596 27 -109 54
-227 59 -263 16 -95 13 -322 -5 -415 -8 -44 -18 -98 -21 -120 -5 -33 -22 -57
-91 -130 -154 -164 -278 -350 -427 -637 -135 -262 -223 -491 -261 -686 -15
-75 -24 -95 -64 -147 -106 -136 -179 -292 -265 -565 -112 -351 -139 -752 -69
-1015 14 -55 26 -107 26 -115 0 -8 -12 -43 -26 -77 -38 -89 -59 -243 -52 -378
16 -327 171 -611 546 -1000 205 -213 263 -320 430 -795 103 -293 157 -427 224
-555 l52 -100 -28 -40 c-89 -130 -90 -303 -3 -477 66 -132 132 -218 386 -509
177 -203 254 -303 305 -396 85 -157 167 -294 226 -380 165 -240 340 -394 505
-443 34 -11 46 -21 68 -62 82 -150 274 -349 452 -467 268 -179 561 -281 819
-285 l120 -2 60 -60 c250 -250 762 -394 1222 -343 277 30 548 126 672 237 l54
49 71 -20 c106 -30 366 -29 490 1 183 46 345 149 462 296 78 97 172 283 207
411 53 186 69 405 45 596 l-11 87 29 43 c51 75 94 168 138 304 99 300 142 638
151 1170 l6 330 33 85 c113 292 187 842 165 1218 -22 369 -102 703 -206 861
l-36 53 31 44 c112 156 157 366 148 694 -11 390 -115 763 -264 938 l-28 34 37
76 c68 139 72 165 73 463 l0 265 53 53 c94 94 129 199 118 351 -12 172 -86
408 -218 700 -97 214 -118 288 -118 426 0 154 16 256 43 274 95 65 150 151
188 295 29 108 31 340 5 465 -24 111 -66 226 -110 298 -34 57 -127 154 -156
164 -12 4 -9 16 13 65 61 137 71 196 73 458 0 132 5 332 9 445 6 172 5 216 -9
273 -18 79 -63 172 -106 221 l-30 34 19 34 c117 200 97 449 -63 760 l-63 123
38 75 c99 196 150 453 150 755 0 314 -55 574 -165 782 -41 76 -44 87 -44 161
-1 99 -15 157 -60 250 -90 188 -370 397 -617 462 -104 28 -290 35 -400 15z
m343 -101 c163 -33 344 -135 478 -269 237 -236 212 -545 -80 -975 -72 -106
-213 -286 -325 -415 -33 -38 -61 -78 -61 -87 0 -27 44 -52 68 -39 26 14 197
217 315 373 138 185 235 351 288 497 l23 64 19 -44 c141 -330 165 -793 61
-1179 -61 -226 -152 -361 -483 -710 -295 -311 -379 -436 -326 -480 15 -13 65
-6 65 8 0 15 93 147 149 212 31 35 123 134 204 220 82 85 181 194 220 243 39
48 74 87 77 87 13 0 119 -236 140 -310 30 -108 36 -220 17 -297 -53 -205 -201
-347 -612 -588 -473 -276 -631 -422 -785 -727 -168 -331 -251 -462 -373 -586
-168 -172 -402 -279 -652 -298 -70 -6 -92 -3 -170 21 -106 32 -168 62 -250
120 -117 83 -210 203 -255 332 -19 52 -33 79 -47 84 -26 9 -63 -15 -63 -41 0
-31 45 -146 81 -207 46 -77 159 -195 244 -255 l70 -50 -55 7 c-93 12 -299 53
-418 85 -128 34 -152 30 -152 -20 0 -38 10 -43 182 -85 561 -138 970 -124
1291 43 248 129 407 322 622 752 84 168 147 261 243 362 120 125 222 196 604
422 177 105 286 181 384 271 l74 66 30 -48 c54 -84 75 -171 74 -308 -3 -411
-15 -745 -30 -815 -40 -194 -176 -376 -387 -522 -49 -33 -58 -44 -55 -65 2
-14 12 -32 24 -39 19 -13 27 -10 80 24 85 55 197 154 251 222 l47 59 29 -17
c74 -43 158 -187 198 -337 45 -172 36 -418 -21 -569 -23 -61 -96 -146 -125
-146 -8 0 -23 -5 -33 -10 -9 -6 -74 -30 -144 -54 -168 -57 -252 -108 -363
-220 -113 -114 -168 -195 -390 -576 -281 -483 -414 -659 -590 -780 -96 -66
-293 -140 -372 -140 -41 0 -63 -18 -63 -50 0 -53 40 -58 185 -24 172 42 294
114 446 264 136 135 223 253 387 530 63 107 162 275 220 372 165 278 268 392
432 477 76 39 207 87 216 79 2 -3 -1 -40 -7 -84 -15 -108 -6 -272 21 -359 12
-38 58 -149 102 -245 85 -186 166 -416 192 -542 21 -102 21 -231 -1 -294 -24
-71 -104 -145 -241 -224 -179 -104 -207 -123 -210 -148 -4 -28 14 -52 38 -52
10 0 68 29 129 65 62 36 116 65 121 65 13 0 23 -203 17 -320 -11 -188 -59
-322 -143 -400 -76 -70 -137 -93 -364 -140 -115 -24 -130 -31 -130 -65 0 -54
31 -55 239 -9 110 25 270 87 285 113 19 30 62 -15 120 -129 123 -239 196 -663
168 -969 -22 -230 -73 -373 -166 -467 -94 -93 -236 -113 -421 -60 -111 33
-323 135 -436 211 -75 51 -91 58 -156 65 -321 38 -605 195 -754 418 -59 88
-72 99 -105 83 -48 -22 -25 -79 84 -214 151 -187 417 -327 707 -373 105 -17
114 -21 200 -77 105 -68 282 -157 375 -187 203 -68 343 -66 501 4 39 17 124
-178 173 -396 51 -226 60 -314 60 -598 1 -225 -3 -288 -22 -420 -86 -585 -151
-746 -414 -1015 -114 -118 -121 -127 -112 -153 6 -18 18 -28 35 -30 32 -4 124
79 229 205 41 48 78 93 83 98 10 11 2 -303 -13 -525 -51 -724 -212 -1142 -494
-1280 -151 -75 -308 -88 -421 -36 -71 32 -119 66 -246 171 -173 146 -267 202
-414 248 -75 24 -220 47 -292 47 -41 0 -74 -30 -66 -60 8 -30 27 -37 138 -43
126 -8 197 -27 310 -82 91 -45 126 -69 321 -228 64 -52 144 -106 193 -130 l84
-42 131 0 c116 1 141 4 214 29 52 17 113 48 163 82 44 30 81 54 83 54 11 0 15
-202 6 -290 -30 -299 -127 -527 -295 -695 -168 -168 -316 -225 -586 -225 -128
0 -214 12 -274 40 -22 10 -51 22 -65 28 -54 21 -152 107 -210 184 -54 72 -146
245 -224 421 -23 52 -28 57 -56 57 -22 0 -33 -6 -41 -23 -8 -18 1 -47 55 -170
115 -261 227 -420 361 -513 l56 -38 -33 -28 c-80 -66 -275 -143 -463 -181 -95
-19 -141 -22 -335 -22 -196 1 -239 4 -330 23 -198 43 -399 123 -520 205 -168
116 -241 254 -241 457 0 172 29 310 133 638 65 204 67 223 19 230 -12 2 -28
-2 -36 -8 -36 -30 -182 -540 -205 -718 -16 -118 -8 -267 19 -352 11 -36 21
-66 21 -67 0 -2 -31 -3 -69 -3 -273 0 -663 166 -924 394 -126 111 -256 278
-278 359 -5 20 -14 37 -18 37 -14 0 -50 117 -63 205 -14 99 -3 149 53 235 89
138 192 188 694 340 334 101 483 176 620 314 78 79 135 168 169 263 16 44 7
78 -23 86 -22 5 -61 -17 -61 -36 0 -27 -70 -155 -113 -208 -119 -145 -295
-234 -698 -354 -321 -94 -444 -144 -542 -219 -26 -20 -47 -32 -47 -28 0 20
167 341 256 492 161 274 255 486 240 544 -3 14 -15 27 -26 31 -31 10 -57 -11
-68 -58 -23 -88 -88 -225 -212 -441 -227 -396 -272 -492 -316 -664 -31 -120
-34 -270 -9 -380 9 -40 15 -76 12 -79 -12 -12 -116 57 -190 126 -132 125 -251
290 -382 531 -113 207 -151 258 -416 561 -84 96 -181 212 -216 259 -163 219
-205 388 -133 530 l21 42 67 -70 c148 -154 297 -211 553 -212 231 0 418 54
594 173 33 23 110 89 171 148 60 59 145 130 188 157 224 147 472 160 686 35
95 -56 220 -180 299 -297 54 -81 72 -102 94 -104 21 -3 29 3 38 22 10 22 7 34
-31 100 -57 99 -168 226 -255 293 -150 114 -288 164 -453 165 -106 0 -156 -9
-257 -46 l-66 -24 15 23 c9 13 72 115 142 227 179 289 226 357 297 430 108
111 219 173 360 202 l78 16 82 -39 c99 -48 177 -120 254 -238 95 -146 155
-289 313 -758 93 -274 125 -358 191 -488 120 -242 251 -372 428 -427 86 -27
135 -26 155 2 25 36 1 60 -75 75 -179 36 -305 153 -424 392 -63 127 -93 206
-207 541 -181 535 -267 711 -423 867 -60 61 -68 71 -46 68 390 -63 557 -134
745 -314 96 -93 173 -191 303 -386 128 -192 206 -289 285 -354 113 -92 294
-164 332 -132 19 16 21 57 4 68 -7 4 -47 19 -88 33 -163 56 -259 149 -468 456
-165 244 -257 354 -369 444 -150 120 -286 185 -488 233 -173 41 -250 51 -400
51 -164 -1 -255 -18 -362 -68 -196 -94 -288 -191 -494 -523 -248 -401 -381
-581 -511 -696 -36 -31 -68 -57 -71 -57 -4 0 2 20 13 45 45 105 54 184 52 460
-3 467 28 604 168 760 33 36 60 71 60 77 0 18 -32 48 -51 48 -46 0 -167 -154
-209 -267 -47 -124 -52 -172 -60 -548 -8 -394 -12 -425 -72 -537 -65 -122
-180 -191 -348 -208 -172 -19 -320 0 -438 56 -138 66 -259 209 -361 425 -46
99 -72 167 -227 599 -71 200 -158 387 -225 489 -23 35 -105 130 -182 212 -391
416 -519 660 -519 984 0 172 25 277 87 370 133 201 468 395 844 490 201 50
275 59 496 60 228 0 274 -6 455 -64 146 -46 205 -55 335 -55 149 1 230 19 471
109 96 36 205 73 242 81 87 21 195 14 290 -17 80 -25 104 -21 110 20 5 34 -14
49 -102 77 -63 21 -102 26 -176 27 -114 0 -168 -13 -383 -94 -224 -84 -285
-100 -413 -106 -129 -7 -200 4 -354 52 -171 54 -271 68 -470 68 -482 1 -1007
-181 -1302 -452 -36 -34 -69 -58 -72 -53 -2 4 -12 48 -22 97 -24 124 -24 391
0 538 39 239 116 496 207 686 54 114 124 219 163 245 14 9 26 23 26 30 0 22
118 111 212 161 120 64 258 106 543 165 298 62 414 90 559 137 124 40 318 124
395 171 28 18 58 32 66 32 8 0 52 20 98 44 106 58 240 111 341 137 81 21 174
22 278 3 30 -5 38 -3 48 15 31 59 -43 97 -185 95 -85 -1 -230 -30 -278 -56
-32 -17 -28 -4 14 53 79 106 145 279 168 440 5 41 15 164 21 274 18 330 40
452 112 608 40 85 40 88 23 107 -36 40 -64 23 -107 -65 -71 -142 -102 -297
-118 -576 -19 -367 -43 -489 -120 -639 -102 -195 -297 -353 -592 -479 -196
-84 -365 -132 -688 -196 -385 -76 -564 -135 -710 -233 -24 -17 -46 -29 -48
-27 -7 6 38 150 83 270 61 160 174 386 287 575 192 321 333 466 793 820 260
200 309 241 434 363 113 112 197 217 254 319 47 85 106 235 114 293 5 41 4 45
-21 57 -41 18 -55 3 -87 -94 -61 -187 -156 -337 -318 -498 -109 -109 -185
-172 -476 -397 -93 -73 -195 -152 -226 -177 l-56 -45 8 42 c17 85 22 281 10
387 -7 58 -32 183 -57 279 -59 233 -74 318 -74 415 0 154 40 247 209 491 54
77 118 174 144 215 62 100 165 319 217 460 168 452 399 689 761 779 297 74
403 60 1159 -151 497 -138 714 -185 958 -209 129 -13 298 -7 331 10 23 13 28
53 9 69 -8 5 -103 12 -218 15 -289 7 -447 38 -1051 206 -379 106 -566 152
-704 176 -260 45 -543 -1 -772 -125 -41 -22 -76 -40 -78 -40 -2 0 -2 24 1 53
31 315 223 636 447 745 211 104 540 99 999 -14 156 -38 178 -36 178 17 0 35
-8 39 -145 73 -481 118 -826 125 -1052 21 l-55 -25 32 58 c204 363 547 572
939 572 186 0 390 -50 539 -131 70 -38 75 -40 98 -24 28 18 31 47 8 70 -50 49
-269 133 -419 160 -109 20 -311 22 -420 5 -101 -15 -240 -61 -324 -105 -35
-19 -66 -33 -68 -31 -10 9 20 237 42 323 74 287 279 547 485 613 221 71 538
-17 875 -243 190 -127 434 -327 464 -379 9 -15 24 -30 33 -33 9 -3 59 -56 111
-118 116 -137 329 -346 457 -449 192 -153 406 -276 588 -337 137 -46 194 -38
178 24 -5 20 -17 27 -64 40 -261 72 -514 225 -792 480 -104 96 -330 333 -330
348 0 4 15 7 33 7 66 0 225 32 323 65 56 18 178 69 270 113 180 84 263 115
358 131 68 13 180 13 247 2 63 -10 89 1 89 37 0 53 -16 57 -209 57 -166 -1
-181 -2 -261 -29 -47 -16 -161 -64 -254 -107 -267 -125 -380 -159 -587 -174
l-87 -7 -73 64 c-290 252 -469 378 -688 488 -171 85 -360 140 -483 140 l-49 0
18 31 c32 55 176 201 257 261 167 125 340 187 540 195 279 12 501 -79 738
-304 42 -40 82 -73 89 -73 19 0 49 31 49 50 0 10 -24 42 -52 72 -120 122 -266
224 -408 282 l-82 34 58 22 c85 31 211 67 306 85 165 33 538 29 572 -5 6 -6
28 -10 51 -10 54 0 218 -52 333 -106 182 -84 390 -242 467 -354 45 -65 105
-64 105 2 0 25 -19 49 -112 142 -71 70 -149 136 -208 175 -108 71 -282 158
-383 191 -37 12 -65 25 -62 30 14 22 204 86 340 114 52 10 233 5 303 -10z"/>
<path d="M6408 15869 c-19 -10 -24 -45 -10 -66 4 -7 37 -21 73 -33 140 -43
251 -143 430 -390 144 -199 191 -254 262 -306 66 -49 161 -88 194 -79 26 6 41
48 24 69 -6 7 -39 23 -72 35 -84 31 -170 115 -298 292 -189 260 -262 339 -388
415 -32 19 -87 44 -122 54 -72 23 -70 23 -93 9z"/>
<path d="M7943 14762 c-6 -4 -24 -41 -39 -82 -74 -207 -198 -383 -358 -508
-76 -60 -157 -109 -193 -118 -16 -4 -39 -15 -52 -26 -54 -41 -264 -93 -455
-111 -111 -10 -131 -15 -142 -32 -12 -18 -11 -24 2 -43 13 -19 24 -22 87 -22
141 0 367 45 491 96 58 25 70 26 276 28 203 2 220 4 305 30 142 43 275 124
275 166 0 18 -30 50 -46 50 -5 0 -40 -21 -78 -45 -39 -25 -104 -56 -146 -69
-80 -26 -251 -50 -310 -44 l-34 3 69 54 c177 138 309 319 391 539 30 77 31
118 5 132 -23 12 -32 12 -48 2z"/>
<path d="M5242 12428 c-18 -18 -15 -39 13 -100 36 -78 60 -180 84 -358 63
-464 107 -604 226 -726 91 -93 199 -132 391 -142 l124 -7 -108 -88 c-251 -205
-409 -280 -617 -294 -103 -7 -125 -15 -125 -46 0 -46 13 -52 106 -50 228 7
412 89 673 300 252 204 273 218 436 282 83 32 186 67 230 77 114 27 308 24
493 -6 151 -25 174 -23 180 16 4 32 -13 45 -74 60 -168 40 -429 55 -563 33
-104 -16 -302 -76 -382 -114 -112 -53 -197 -67 -369 -63 -183 6 -237 24 -321
107 -104 105 -138 209 -193 591 -41 282 -63 379 -109 470 -25 51 -37 66 -57
68 -14 2 -31 -3 -38 -10z"/>
<path d="M5556 10068 c-13 -21 -12 -38 9 -164 38 -224 80 -373 137 -488 25
-50 27 -58 11 -51 -70 30 -192 70 -268 87 -72 16 -148 21 -375 27 -317 9 -337
13 -425 79 -29 22 -71 70 -102 117 -29 44 -60 90 -68 103 -20 28 -46 28 -71 1
-18 -20 -18 -22 14 -82 69 -133 174 -238 278 -276 84 -32 172 -41 396 -40 343
0 444 -27 808 -217 198 -103 388 -152 550 -140 153 11 246 46 559 211 148 78
228 104 341 112 109 7 221 -15 352 -69 79 -33 100 -38 117 -28 21 11 27 44 13
68 -13 19 -168 81 -262 104 -114 28 -256 27 -364 -1 -78 -21 -164 -60 -399
-181 -182 -95 -240 -112 -382 -117 -104 -4 -133 -1 -218 21 -54 14 -139 45
-190 69 -83 39 -98 50 -141 107 -69 93 -94 138 -132 246 -31 87 -82 312 -100
439 -10 79 -56 112 -88 63z"/>
<path d="M7289 8908 c-101 -111 -146 -284 -119 -463 6 -44 33 -172 60 -285 61
-255 76 -370 61 -479 -24 -182 -86 -298 -240 -451 -58 -58 -149 -135 -201
-171 -97 -66 -116 -93 -90 -125 21 -24 50 -16 134 41 249 168 415 372 471 580
22 83 30 255 16 352 -6 44 -34 172 -62 284 -84 340 -79 496 21 627 44 57 51
95 21 112 -30 16 -40 13 -72 -22z"/>
<path d="M3268 8010 c-167 -28 -344 -129 -532 -302 -62 -57 -68 -67 -62 -91 4
-17 15 -29 31 -33 21 -5 37 4 93 53 169 150 308 235 437 268 77 19 215 19 313
-1 135 -27 299 -100 481 -212 l74 -46 -72 -18 c-195 -48 -367 -203 -485 -435
-31 -62 -32 -74 -7 -97 33 -30 53 -15 99 69 150 275 338 400 570 381 46 -4 97
-16 135 -32 415 -177 652 -248 1017 -305 195 -31 572 -34 691 -6 86 20 115 42
105 80 -9 36 -27 39 -113 15 -67 -18 -106 -21 -283 -21 -554 -1 -1158 175
-1660 483 -348 214 -599 289 -832 250z"/>
<path d="M8365 7504 c-57 -61 -131 -237 -160 -377 -8 -39 -19 -81 -24 -92 -5
-11 -19 -51 -32 -90 -77 -247 -230 -449 -406 -535 -117 -58 -238 -70 -435 -44
-40 6 -47 4 -58 -15 -28 -53 14 -78 152 -89 100 -8 224 2 293 24 181 59 339
200 447 401 l42 78 13 -91 c16 -120 53 -283 113 -501 62 -219 80 -313 88 -460
15 -252 -19 -459 -105 -633 -38 -76 -62 -110 -123 -170 -43 -44 -102 -90 -140
-110 -68 -37 -85 -65 -59 -97 34 -40 167 34 284 158 171 183 257 474 242 819
-7 158 -24 256 -72 435 -130 478 -151 599 -142 823 8 196 41 318 126 462 46
77 49 90 23 113 -25 23 -39 21 -67 -9z"/>
<path d="M11475 18085 c-210 -39 -424 -160 -583 -330 -111 -119 -164 -247
-165 -403 0 -69 -4 -83 -39 -148 -112 -208 -169 -471 -169 -779 -1 -310 50
-567 150 -765 l38 -75 -63 -123 c-160 -312 -181 -559 -63 -760 l19 -34 -30
-34 c-43 -49 -88 -143 -106 -220 -16 -69 -21 -354 -7 -377 4 -7 8 -140 8 -297
2 -312 9 -362 72 -503 22 -49 25 -61 13 -65 -29 -10 -122 -107 -156 -164 -44
-72 -86 -187 -110 -298 -26 -124 -24 -356 5 -465 38 -144 93 -230 188 -295 27
-18 43 -120 43 -274 0 -138 -21 -212 -119 -430 -131 -287 -205 -524 -217 -696
-11 -152 26 -263 119 -353 l52 -50 0 -266 c1 -298 5 -324 73 -463 l37 -76 -26
-30 c-97 -109 -198 -377 -244 -652 -22 -127 -31 -459 -16 -572 23 -174 71
-315 141 -412 l31 -43 -39 -62 c-136 -210 -230 -751 -203 -1164 25 -368 91
-724 171 -922 l28 -70 6 -330 c8 -530 52 -869 151 -1170 44 -136 87 -229 138
-304 l29 -43 -11 -87 c-58 -453 102 -920 392 -1147 141 -110 305 -168 512
-180 117 -7 255 6 326 31 l41 15 56 -50 c161 -143 531 -250 867 -250 402 0
822 144 1028 354 l59 59 121 3 c259 4 551 105 820 285 178 118 370 317 452
467 23 43 33 51 78 65 215 69 453 325 657 706 89 165 160 267 296 424 319 368
393 463 458 594 68 135 83 257 46 374 -11 35 -33 82 -48 104 l-28 40 52 100
c67 128 121 262 224 555 163 463 226 581 420 784 388 406 540 681 556 1011 7
135 -14 289 -52 378 -14 34 -26 69 -26 77 0 8 12 60 26 115 18 67 29 141 34
222 18 319 -29 603 -161 963 -67 182 -119 282 -207 395 -40 52 -49 72 -64 147
-38 195 -126 424 -261 686 -149 287 -273 473 -427 637 -69 73 -86 97 -91 130
-3 22 -13 76 -21 120 -18 93 -21 320 -5 415 5 36 32 154 59 263 79 316 86 440
34 596 -31 92 -45 117 -219 376 -167 250 -218 346 -320 605 -42 107 -100 236
-127 287 -61 110 -157 241 -224 304 l-49 45 3 76 c9 213 -98 491 -268 698 -21
25 -52 78 -69 118 -74 176 -198 352 -341 484 l-83 77 2 94 c6 307 -121 623
-338 838 -89 88 -190 150 -268 165 -28 5 -41 17 -69 59 -165 258 -418 447
-701 522 -82 22 -123 26 -248 28 -145 2 -152 4 -220 34 -288 132 -638 186
-940 146 l-109 -15 -96 49 c-238 122 -473 165 -685 126z m395 -113 c78 -22
219 -77 233 -91 5 -5 -22 -19 -60 -31 -101 -33 -275 -120 -383 -191 -59 -39
-137 -105 -207 -175 -94 -93 -113 -117 -113 -142 0 -66 60 -67 105 -2 76 110
287 270 466 354 116 54 279 106 334 106 23 0 45 4 51 10 34 34 407 38 572 5
95 -18 221 -54 306 -85 l58 -22 -82 -34 c-142 -58 -288 -160 -407 -282 -29
-30 -53 -62 -53 -70 0 -20 29 -52 47 -52 8 0 49 33 91 73 178 169 349 261 548
297 98 17 287 8 389 -19 106 -28 244 -96 341 -169 81 -60 225 -206 257 -261
l18 -31 -49 0 c-72 0 -200 -26 -300 -62 -256 -90 -539 -273 -850 -548 l-92
-82 -88 6 c-208 16 -321 50 -588 175 -93 43 -207 91 -254 107 -80 27 -95 28
-261 29 -193 0 -209 -4 -209 -57 0 -36 26 -47 89 -37 74 12 183 10 263 -5 92
-18 163 -45 357 -136 85 -39 200 -87 255 -106 98 -32 257 -64 324 -64 17 0 32
-3 32 -7 0 -15 -240 -267 -337 -355 -279 -252 -529 -403 -785 -473 -47 -13
-59 -20 -64 -40 -16 -62 41 -70 178 -24 332 111 712 397 1040 781 55 65 108
120 117 123 9 3 23 18 32 33 18 33 174 169 304 266 437 328 796 445 1065 346
195 -72 385 -329 460 -623 19 -74 46 -294 38 -303 -3 -2 -34 12 -69 31 -84 44
-223 90 -324 105 -109 17 -311 15 -420 -5 -150 -27 -369 -111 -419 -160 -23
-23 -20 -52 8 -70 23 -16 28 -14 98 24 149 81 353 131 539 131 392 0 735 -209
939 -572 l32 -58 -55 25 c-226 104 -571 97 -1052 -21 -137 -34 -145 -38 -145
-73 0 -53 22 -55 178 -17 459 113 788 118 998 15 225 -111 417 -429 448 -746
3 -29 4 -53 2 -53 -2 0 -41 20 -87 44 -227 121 -507 165 -764 121 -133 -23
-349 -77 -700 -175 -603 -168 -767 -200 -1055 -207 -115 -3 -210 -10 -217 -15
-20 -16 -15 -56 8 -69 33 -17 202 -23 331 -10 244 24 461 71 958 209 756 211
862 225 1159 151 361 -90 593 -328 761 -779 53 -142 156 -360 218 -460 25 -41
94 -145 153 -230 163 -237 199 -323 199 -478 0 -95 -15 -181 -74 -413 -25 -96
-50 -221 -57 -279 -12 -106 -7 -302 10 -387 l8 -42 -56 45 c-31 25 -132 104
-226 177 -291 225 -367 288 -476 397 -162 161 -257 311 -318 498 -16 48 -35
91 -44 96 -24 16 -67 -8 -67 -38 0 -82 106 -316 200 -441 120 -160 268 -296
605 -555 336 -258 479 -388 616 -558 171 -212 391 -624 493 -920 24 -70 47
-143 51 -161 l7 -35 -28 19 c-181 120 -307 163 -735 250 -454 93 -677 169
-917 313 -229 138 -361 301 -426 524 -29 100 -42 211 -56 477 -15 274 -49 439
-117 576 -44 88 -72 105 -108 65 -18 -19 -17 -22 17 -98 82 -180 100 -271 118
-617 6 -110 17 -241 25 -292 28 -172 86 -320 171 -431 36 -48 38 -60 7 -44
-48 26 -193 55 -278 56 -142 2 -216 -36 -185 -95 10 -18 18 -20 48 -15 104 19
197 18 278 -3 101 -26 235 -79 341 -137 46 -24 90 -44 98 -44 9 0 34 -12 58
-27 65 -41 237 -119 350 -159 142 -49 319 -94 612 -154 285 -59 422 -101 543
-165 94 -50 212 -139 212 -161 0 -7 12 -21 26 -30 39 -26 109 -131 163 -245
92 -193 172 -459 208 -694 23 -150 23 -408 -1 -530 -10 -49 -20 -93 -22 -97
-3 -5 -36 19 -72 53 -229 209 -602 369 -1017 435 -75 12 -166 18 -285 17 -199
0 -299 -14 -470 -68 -154 -48 -225 -59 -354 -52 -128 6 -189 22 -413 106 -212
80 -269 93 -383 93 -75 0 -112 -5 -176 -26 -88 -28 -107 -43 -102 -77 6 -41
30 -45 110 -20 95 31 203 38 290 17 37 -8 146 -45 242 -81 241 -90 322 -108
471 -109 130 0 189 9 335 55 181 58 227 64 455 64 221 -1 296 -10 495 -60 396
-101 725 -296 858 -510 58 -93 90 -289 72 -442 -34 -300 -163 -518 -552 -929
-197 -209 -254 -323 -469 -934 -118 -337 -206 -506 -329 -631 -117 -119 -206
-161 -379 -180 -145 -16 -305 1 -387 41 -83 40 -144 97 -182 168 -60 112 -64
143 -72 537 -8 376 -13 424 -60 548 -42 111 -163 267 -207 267 -21 0 -53 -29
-53 -47 0 -7 24 -39 54 -72 86 -93 120 -162 153 -306 13 -55 17 -138 18 -395
2 -343 10 -420 55 -525 11 -25 17 -45 13 -45 -3 0 -35 26 -71 57 -130 115
-263 295 -511 696 -206 332 -298 429 -494 523 -109 51 -197 68 -367 68 -272
-1 -565 -75 -755 -193 -186 -115 -284 -220 -497 -535 -211 -310 -305 -401
-472 -457 -95 -32 -116 -54 -87 -90 18 -23 21 -23 76 -12 78 17 187 72 263
134 79 65 157 162 285 354 130 195 207 293 303 386 188 180 355 251 745 314
22 3 14 -7 -46 -68 -158 -158 -241 -327 -425 -871 -117 -346 -144 -417 -216
-556 -119 -232 -235 -337 -415 -373 -74 -15 -98 -39 -73 -75 44 -64 258 13
385 138 79 78 130 152 198 288 68 136 98 212 196 502 153 453 212 597 308 744
76 116 154 189 253 237 l82 40 78 -17 c142 -29 252 -91 361 -202 71 -73 118
-141 297 -430 70 -112 133 -214 142 -227 l15 -23 -66 24 c-101 37 -151 46
-257 46 -167 -1 -319 -57 -466 -175 -83 -65 -188 -189 -242 -284 -37 -64 -41
-77 -32 -98 15 -32 55 -33 77 -2 9 12 35 51 58 87 55 87 216 246 297 293 215
124 462 112 686 -35 43 -27 128 -98 188 -157 61 -59 138 -125 171 -148 177
-120 361 -173 594 -173 256 1 405 58 553 212 l67 70 21 -42 c72 -141 28 -315
-134 -530 -35 -47 -144 -178 -242 -291 -253 -291 -273 -317 -389 -529 -135
-246 -250 -406 -382 -531 -74 -69 -178 -138 -190 -126 -3 3 3 39 12 79 25 110
21 261 -9 381 -43 169 -112 312 -336 697 -89 153 -151 281 -183 379 -24 76
-43 97 -77 86 -69 -22 0 -206 222 -590 118 -205 210 -381 234 -447 l13 -37
-46 35 c-99 76 -228 127 -573 229 -378 112 -550 201 -668 345 -42 52 -112 180
-112 207 0 18 -39 41 -61 36 -32 -9 -40 -36 -24 -83 51 -145 161 -283 299
-374 132 -88 251 -136 586 -236 340 -101 489 -171 568 -266 43 -51 82 -133 89
-182 9 -69 -43 -302 -67 -302 -5 0 -14 -17 -19 -37 -22 -81 -153 -249 -280
-360 -259 -227 -650 -393 -922 -393 -38 0 -69 1 -69 3 0 1 10 31 21 67 27 85
35 234 19 352 -23 175 -170 689 -204 718 -8 6 -25 10 -37 8 -48 -7 -46 -26 19
-230 104 -326 133 -465 133 -633 0 -156 -37 -262 -124 -361 -112 -127 -359
-245 -637 -306 -91 -19 -134 -22 -330 -23 -194 0 -240 3 -335 22 -188 38 -383
115 -463 181 l-33 28 54 37 c142 98 255 259 372 534 46 109 54 136 45 153 -7
13 -21 20 -41 20 -27 0 -33 -6 -55 -57 -78 -176 -170 -349 -224 -421 -58 -77
-156 -163 -210 -184 -14 -6 -43 -18 -65 -28 -60 -28 -146 -40 -274 -40 -270 0
-418 57 -586 225 -168 168 -267 402 -295 699 -9 91 -5 286 6 286 2 0 39 -24
83 -54 50 -34 111 -65 163 -82 73 -25 98 -28 214 -29 l131 0 84 42 c49 24 129
78 193 130 195 159 230 183 321 228 114 56 185 74 310 82 119 7 135 13 135 54
0 47 -29 55 -161 40 -233 -25 -378 -93 -608 -286 -184 -152 -257 -193 -368
-202 -187 -14 -388 84 -509 248 -148 202 -245 576 -283 1089 -16 213 -25 546
-14 535 5 -5 42 -50 83 -98 88 -105 196 -207 221 -207 22 0 49 26 49 47 0 9
-54 71 -120 139 -250 257 -325 433 -401 939 -31 208 -33 235 -33 490 0 202 4
297 17 378 39 253 105 480 167 578 18 27 34 49 37 49 2 0 18 -7 36 -17 115
-59 287 -57 477 7 95 32 272 120 375 187 86 56 95 60 200 77 332 53 612 218
768 453 53 80 60 118 23 134 -33 16 -46 5 -105 -83 -149 -223 -433 -380 -754
-418 -65 -7 -81 -14 -156 -65 -113 -76 -325 -178 -436 -211 -114 -33 -235 -36
-315 -9 -107 36 -196 158 -240 330 -83 326 -20 875 136 1175 25 47 56 99 69
115 21 26 27 28 42 18 88 -62 236 -112 427 -144 61 -10 77 -10 90 0 19 16 21
55 4 68 -7 6 -80 25 -163 42 -169 36 -253 71 -317 130 -86 79 -134 211 -145
401 -6 117 4 320 17 320 5 0 59 -29 121 -65 61 -36 119 -65 128 -65 40 0 55
54 24 82 -10 8 -83 53 -163 99 -173 99 -248 166 -274 246 -22 66 -22 184 -1
289 25 125 108 357 194 545 43 96 89 206 101 244 27 87 36 251 21 359 -6 44
-9 81 -7 84 7 7 136 -38 201 -71 89 -44 142 -83 216 -159 89 -91 137 -162 339
-508 270 -462 356 -586 508 -732 168 -162 317 -236 544 -273 51 -8 78 8 78 46
0 35 -9 40 -135 63 -149 29 -285 101 -411 218 -139 131 -232 264 -480 689
-201 345 -274 456 -359 547 -117 126 -219 190 -400 251 -66 23 -128 45 -137
51 -10 5 -25 10 -33 10 -29 0 -102 85 -125 146 -57 151 -66 397 -21 569 40
150 124 294 198 337 l29 17 47 -59 c54 -68 166 -167 251 -222 53 -34 61 -37
80 -24 12 7 22 25 24 39 3 21 -6 31 -45 58 -218 148 -354 330 -397 529 -15 71
-26 373 -30 810 -1 142 19 228 74 313 l30 48 74 -66 c98 -90 207 -166 384
-271 382 -226 484 -297 604 -422 100 -105 155 -189 271 -415 112 -219 197
-353 296 -465 328 -373 839 -462 1589 -277 172 42 182 47 182 85 0 50 -24 54
-152 20 -119 -32 -325 -73 -418 -85 l-55 -7 70 50 c85 60 198 178 244 255 36
61 81 176 81 207 0 26 -37 50 -63 41 -13 -5 -28 -31 -46 -82 -74 -209 -258
-376 -495 -451 -89 -28 -108 -30 -180 -24 -255 20 -487 127 -657 303 -123 127
-199 247 -356 556 -84 166 -157 270 -263 377 -104 104 -226 190 -485 345 -304
181 -394 244 -496 345 -170 167 -214 337 -149 570 21 74 127 310 140 310 3 0
38 -39 77 -87 39 -49 138 -158 220 -243 81 -86 173 -185 204 -220 56 -65 149
-197 149 -212 0 -14 50 -21 65 -8 54 44 -31 169 -326 480 -251 265 -357 400
-419 533 -167 357 -170 978 -7 1347 l23 53 23 -64 c54 -148 157 -324 298 -510
111 -146 282 -348 306 -361 23 -12 67 14 67 40 0 9 -28 49 -61 87 -285 327
-452 581 -523 795 -82 248 -46 430 119 595 129 130 311 234 470 269 98 22 313
15 415 -12z"/>
<path d="M13490 15857 c-175 -60 -278 -157 -516 -486 -114 -157 -202 -242
-283 -272 -71 -25 -86 -40 -77 -74 9 -35 42 -40 109 -15 121 45 198 122 387
385 163 227 282 333 419 375 36 12 69 26 73 33 14 22 8 56 -11 67 -26 13 -25
13 -101 -13z"/>
<path d="M12008 14759 c-25 -14 -23 -56 6 -131 80 -213 200 -382 368 -520 89
-73 89 -73 57 -76 -58 -6 -226 17 -306 43 -43 13 -111 45 -151 71 -78 50 -107
52 -118 8 -13 -52 102 -128 271 -180 85 -27 101 -28 300 -29 202 -1 213 -2
275 -28 133 -53 357 -97 497 -97 63 0 74 3 87 22 13 19 14 25 2 43 -11 17 -31
22 -142 32 -191 18 -401 70 -455 111 -13 11 -36 22 -52 26 -15 3 -51 21 -80
38 -218 132 -381 335 -471 588 -33 90 -47 103 -88 79z"/>
<path d="M14686 12418 c-56 -86 -87 -206 -132 -518 -55 -382 -89 -486 -193
-591 -84 -83 -138 -101 -321 -107 -172 -4 -257 10 -369 63 -80 38 -278 98
-382 114 -134 22 -395 7 -563 -33 -61 -15 -78 -28 -74 -60 6 -39 29 -41 180
-16 185 30 379 33 493 6 44 -10 148 -45 230 -77 163 -64 184 -78 436 -282 261
-211 445 -293 673 -300 93 -2 106 4 106 50 0 31 -22 39 -125 46 -208 14 -366
89 -617 294 l-108 88 124 7 c194 10 300 49 393 145 103 105 160 269 203 579
44 322 59 389 121 542 17 40 4 66 -34 70 -18 2 -30 -4 -41 -20z"/>
<path d="M14378 10073 c-9 -10 -19 -40 -22 -68 -18 -127 -69 -352 -100 -439
-38 -108 -63 -153 -132 -246 -43 -57 -58 -68 -141 -107 -51 -24 -136 -55 -190
-69 -85 -22 -114 -25 -218 -21 -142 5 -204 24 -384 117 -338 176 -410 201
-576 202 -68 0 -127 -6 -185 -20 -94 -23 -249 -85 -262 -104 -14 -24 -8 -57
13 -68 17 -10 38 -5 117 28 183 76 342 90 498 43 39 -11 126 -50 195 -86 313
-165 406 -200 559 -211 162 -12 352 37 550 140 364 190 465 217 808 217 224
-1 312 8 396 40 104 38 209 143 278 276 32 60 32 62 14 82 -25 27 -51 27 -71
-1 -8 -13 -39 -59 -68 -103 -31 -47 -73 -95 -102 -117 -88 -66 -108 -70 -425
-79 -227 -6 -303 -11 -375 -27 -76 -17 -198 -57 -268 -87 -16 -7 -14 1 11 51
57 115 100 266 137 488 21 125 22 144 9 164 -17 26 -45 29 -66 5z"/>
<path d="M12638 8929 c-29 -16 -21 -55 22 -111 100 -131 105 -287 21 -627 -28
-112 -56 -240 -62 -284 -14 -97 -6 -269 16 -352 56 -208 222 -412 471 -580 84
-57 113 -65 134 -41 26 32 7 59 -85 123 -344 239 -482 487 -446 801 6 53 34
189 61 302 77 323 85 428 40 573 -19 60 -84 168 -118 195 -19 14 -31 15 -54 1z"/>
<path d="M16460 8005 c-162 -31 -332 -105 -560 -245 -398 -245 -824 -394
-1335 -467 -83 -11 -183 -17 -325 -16 -177 0 -216 3 -283 21 -86 24 -104 21
-113 -15 -10 -38 19 -60 105 -80 119 -28 496 -25 691 6 365 57 602 128 1017
305 38 16 89 28 135 32 232 19 420 -106 570 -381 46 -84 66 -99 99 -69 25 23
24 35 -7 97 -118 232 -290 387 -485 435 l-72 18 74 46 c252 157 453 228 646
228 195 0 352 -76 585 -283 56 -49 72 -58 93 -53 16 4 27 16 31 33 6 24 0 34
-62 91 -159 146 -301 236 -449 282 -91 28 -252 35 -355 15z"/>
<path d="M11567 7512 c-24 -26 -22 -37 18 -102 90 -148 135 -322 135 -520 0
-199 -24 -328 -145 -775 -49 -182 -65 -278 -72 -440 -15 -345 70 -631 243
-814 81 -86 203 -171 246 -171 31 0 51 21 46 52 -2 16 -21 33 -68 58 -38 20
-97 67 -141 110 -61 61 -85 95 -123 170 -85 172 -120 384 -105 631 9 149 27
243 89 462 60 218 97 381 113 501 l13 91 42 -78 c108 -201 266 -342 447 -401
69 -22 193 -32 293 -24 138 11 180 36 152 89 -11 19 -18 21 -58 15 -197 -26
-318 -14 -435 44 -176 86 -329 288 -406 535 -13 39 -27 79 -32 90 -5 11 -16
53 -24 92 -37 182 -146 403 -198 403 -8 0 -21 -8 -30 -18z"/>
</g>
</svg>
