<svg xmlns="http://www.w3.org/2000/svg" version="1.1" viewBox="-5.0 -10.0 110.0 135.0">
 <path d="m45.664 3.0039c-2.375-1.1328-7-0.46875-12.543 3.168 2.5039 1.3516 4.582 3.3633 6.0078 5.8125 0.62109 0.99219 0.31641 2.2852-0.67578 2.9062-0.98047 0.62109-2.2852 0.31641-2.8945-0.67578-2.625-4.1797-6.1602-5.9336-9.2305-4.5625-2.5586 1.1445-4.6055 4.7031-3.5508 9.9375 2.668 0.042968 5.2578 0.87109 7.4453 2.375 4.2891 3.0703 6.543 8.25 5.8672 13.488-0.12891 1.1523-1.1641 1.9805-2.3203 1.8516-1.1523-0.12109-1.9922-1.1641-1.8633-2.3203 0.5-3.6914-1.0547-7.3594-4.0703-9.5469-3.2109-2.2227-7.5859-2.1875-12.008 0.078125-5.6602 2.8945-3.6562 12.684-3.6484 12.781 0.12109 0.53516 0.023437 1.0977-0.27344 1.5664-0.042969 0.066407-4.625 7.4453-2.2539 13.031 1.3047 3.0703 4.625 5.1719 9.8516 6.2383 1.0898 0.25 1.7969 1.3164 1.5898 2.4258-0.19531 1.1445-1.2969 1.9062-2.4375 1.6992-3.3984-0.57812-6.6094-1.9805-9.3516-4.082-1.4141 2.0703-1.7617 4.6914-0.9375 7.0742 1.1211 3.7461 3.918 6.4141 5.0195 6.5547 0.078125 0.011718 0.16406 0.023437 0.23828 0.042968 1.1328 0.28125 1.8086 1.4258 1.5234 2.5586-0.94531 3.7461 0.023437 7.7305 2.5781 10.625 1.3828 1.8828 3.5273 3.0703 5.8555 3.2656 1.0352-0.12109 1.9922 0.54297 2.2656 1.5469 0.21875 0.77344 2.418 7.6406 11.215 6.5312 10.527-1.3398 10.82-9.0703 10.82-9.1445v-6.6719c-0.16406-2.5586-1.4688-4.8984-3.5703-6.3672-1.3281-1.1523-3.082-1.6875-4.8242-1.4492-1.1094 0.32812-2.2852-0.31641-2.6016-1.4375-0.32812-1.1094 0.31641-2.2734 1.4258-2.6016 3.0156-0.64062 6.1602 0.14062 8.5117 2.1328 0.37109 0.27344 0.71875 0.57812 1.0547 0.88281v-35.738c0.085938-2.4922-1-4.8672-2.9492-6.4141-0.94531-0.70703-2.1875-0.85938-3.2773-0.42578-0.03125 0.023437-0.074219 0.03125-0.10938 0.054687-1.0898 0.40234-2.2969-0.15234-2.6992-1.2422s0.15234-2.2969 1.2422-2.7109c2.3828-0.96875 5.0938-0.66406 7.1953 0.82812 0.20703 0.14063 0.40234 0.31641 0.59766 0.46875l0.015625-20.051c0.24219-1.8086-0.64062-3.582-2.2305-4.4844zm-6.5859 60.82c-1.5898 0.023437-3.1367 0.38281-4.5391 1.0352-1.4141 0.65234-2.6875 1.6016-3.7344 2.7969-1.6758 2.4258-2.4805 5.3555-2.2734 8.3047 1.7734 0.69531 3.3867 1.7422 4.7578 3.0586v0.011719c2.625 2.6875 4.0156 6.3359 3.8633 10.09 0 1.1641-0.94531 2.1016-2.1016 2.1016-1.1641 0-2.1016-0.9375-2.1016-2.1016 0.12891-2.625-0.80469-5.1836-2.6016-7.0859-2.4609-2.0781-5.5742-3.2344-8.7969-3.2773h-0.011719c-1.1641 0.011719-2.1133-0.92578-2.1211-2.0781-0.011719-1.1641 0.92578-2.1133 2.0781-2.1211 0.94531 0 1.8945 0.085937 2.8203 0.25 0-3.4961 1.0977-6.8906 3.1562-9.7109 2.7852-3.3516 6.8906-5.3438 11.258-5.4648 1.1523-0.097656 2.1758 0.76172 2.2656 1.9258 0.09375 1.1562-0.76562 2.168-1.918 2.2656zm2.0781-20.586c0.9375-0.6875 2.2539-0.48828 2.9375 0.44531 0.65234 0.89453 0.5 2.1562-0.35938 2.8633-2.5273 2.1211-5.543 3.6016-8.7734 4.2891-0.23828 1.9141-1.0469 3.7227-2.3203 5.1719-2.1562 2.2227-5.1484 3.4062-8.2305 3.2773h-0.042968c-1.1641 0.011719-2.1133-0.92578-2.1211-2.0898-0.011719-1.1523 0.92578-2.1133 2.0781-2.1211 1.9141 0.12891 3.8008-0.54297 5.1914-1.8711 0.57812-0.66406 0.98047-1.4688 1.1758-2.3281-0.79297-0.14062-1.5586-0.35938-2.3086-0.65234-5.9531-2.418-8.9062-9.3281-9.6133-14.512-0.14062-1.1523 0.6875-2.2109 1.8398-2.3398 1.1211-0.14062 2.1562 0.64062 2.3281 1.7617 0.59766 4.3984 3.0039 9.5703 7.0312 11.191 3.1523 1.2812 6.9219 0.24609 11.188-3.0859z"/>
 <path d="m90.668 59.164c-2.7344 2.1133-5.9453 3.5039-9.3398 4.082-0.03125 0.011718-0.066406 0.011718-0.097656 0.023437-1.1445 0.20703-2.2422-0.55469-2.4492-1.6992-0.19531-1.1445 0.55469-2.2305 1.6992-2.4375 5.2266-1.0781 8.5469-3.1797 9.8516-6.25 2.375-5.5742-2.2109-12.953-2.2539-13.031-0.29297-0.46875-0.39062-1.0234-0.27344-1.5664 0.011718-0.097656 2.0156-9.8867-3.6484-12.781-4.418-2.2656-8.7969-2.2969-12.008-0.078125-2.6328 1.9258-4.168 4.9766-4.168 8.1758 0 0.45703 0.03125 0.91406 0.097656 1.3828 0.12891 1.1523-0.70703 2.1992-1.8633 2.3203-1.1523 0.12891-2.1992-0.69531-2.3203-1.8516-0.67578-5.2383 1.5781-10.418 5.8555-13.488 2.1992-1.5039 4.8008-2.3281 7.457-2.375 1.0664-5.2383-0.98047-8.7969-3.5391-9.9375-3.082-1.3711-6.6094 0.38281-9.2305 4.5625-0.62109 0.99219-1.9141 1.2969-2.9062 0.67578-0.98047-0.62109-1.2852-1.9141-0.66406-2.9062 1.4258-2.4492 3.5039-4.4648 6.0078-5.8125-5.543-3.6367-10.168-4.3008-12.543-3.168-1.5898 0.90234-2.4805 2.6797-2.2422 4.4844v12.758c1.8398-0.81641 3.8633-1.1641 5.8789-0.98047 1.1523 0.12891 1.9805 1.1641 1.8516 2.3203-0.12891 1.1523-1.1758 1.9922-2.3281 1.8633-1.5469-0.17578-3.1016 0.21875-4.3867 1.0977-0.73047 0.73047-1.0977 1.7422-1.0117 2.7773v60.91c0 0.074219 0.29297 7.8047 10.832 9.1445 8.7852 1.1211 11.008-5.7578 11.215-6.543 0.27344-1 1.2305-1.6562 2.2656-1.5352 2.3281-0.19531 4.4648-1.3828 5.8555-3.2656 2.5586-2.8945 3.5273-6.8789 2.5781-10.625-0.023438-0.085937-0.03125-0.16406-0.042969-0.25-0.15234-1.1523 0.65234-2.1992 1.8086-2.3516 1.0898-0.14062 3.8984-2.8086 5.0195-6.5547 0.82812-2.3867 0.46875-5.0078-0.95703-7.0898zm-32.484-17.875c0.71875-0.91406 2.0352-1.0664 2.9609-0.35937 4.2656 3.332 8.0234 4.375 11.18 3.0938 4.0156-1.6328 6.4219-6.793 7.0312-11.191 0.15234-1.1523 1.207-1.9609 2.3633-1.8086 1.1523 0.16406 1.9609 1.2188 1.7969 2.375-0.35938 2.6016-1.2734 5.6289-2.8398 8.3047-1.5664 2.6797-3.7891 5.0078-6.7695 6.2148-0.74219 0.29297-1.5039 0.51172-2.2969 0.64062 0.19531 0.88281 0.59766 1.6992 1.1992 2.3633 1.3945 1.3047 3.2539 1.9688 5.1602 1.8516 1.1641 0.011718 2.0898 0.95703 2.0781 2.1211-0.011719 1.1641-0.95703 2.0898-2.1211 2.0781h-0.03125c-3.082 0.14062-6.0859-1.0547-8.2422-3.2656-1.2617-1.457-2.0703-3.2539-2.3086-5.1719-3.2344-0.6875-6.2578-2.168-8.7969-4.2891-0.91797-0.71484-1.082-2.0312-0.36328-2.957zm17.984 35.176h-0.023438c-1.4375 0.011718-2.875 0.23828-4.2344 0.6875-0.042968 0.011718-0.078125 0.023437-0.12109 0.03125-1.6562 0.48828-3.1797 1.3594-4.4414 2.5586-1.7969 1.9062-2.7344 4.4648-2.5898 7.0742 0 1.1641-0.94531 2.1016-2.1133 2.1016-1.1523 0-2.1016-0.9375-2.1016-2.1016-0.15234-3.7461 1.2422-7.4023 3.8633-10.09 1.3711-1.3164 2.9844-2.3516 4.7578-3.0469 0.20703-2.9492-0.59766-5.8906-2.2852-8.3164-2.0781-2.3828-5.0938-3.7773-8.2617-3.8203-1.1523-0.097657-2.0156-1.1094-1.9141-2.2734 0.078125-1.1445 1.0664-2.0039 2.2109-1.9141h0.054688c4.3672 0.10938 8.457 2.1016 11.258 5.4531 2.0586 2.8203 3.1562 6.2266 3.1445 9.7109 0.9375-0.15234 1.8711-0.23828 2.8203-0.25 1.1523 0.011719 2.0898 0.95703 2.0781 2.1211-0.023437 1.1484-0.96094 2.0742-2.1016 2.0742z"/>
<text x="0.0" y="117.5" font-size="5.0" font-weight="bold" font-family="Arbeit Regular, Helvetica, Arial-Unicode, Arial, Sans-serif" fill="#000000">Created by fitrayana</text><text x="0.0" y="122.5" font-size="5.0" font-weight="bold" font-family="Arbeit Regular, Helvetica, Arial-Unicode, Arial, Sans-serif" fill="#000000">from Noun Project</text></svg>