<?xml version="1.0" standalone="no"?>
<!DOCTYPE svg PUBLIC "-//W3C//DTD SVG 20010904//EN"
 "http://www.w3.org/TR/2001/REC-SVG-20010904/DTD/svg10.dtd">
<svg version="1.0" xmlns="http://www.w3.org/2000/svg"
 width="1280.000000pt" height="812.000000pt" viewBox="0 0 1280.000000 812.000000"
 preserveAspectRatio="xMidYMid meet">
<metadata>
Created by potrace 1.15, written by Peter Selinger 2001-2017
</metadata>
<g transform="translate(0.000000,812.000000) scale(0.100000,-0.100000)"
fill="#000000" stroke="none">
<path d="M7080 8106 c-41 -8 -133 -28 -205 -46 -160 -40 -293 -49 -380 -27
-94 25 -368 41 -570 34 -304 -11 -546 -39 -1085 -128 -293 -48 -310 -52 -420
-99 -292 -125 -537 -192 -1125 -310 -226 -45 -449 -138 -650 -271 -137 -91
-240 -139 -475 -224 -102 -37 -223 -85 -269 -106 -47 -22 -112 -46 -145 -55
-123 -32 -243 -100 -374 -213 -167 -143 -294 -270 -327 -326 -20 -32 -71 -102
-114 -154 -138 -171 -176 -238 -189 -336 l-7 -56 -65 -23 c-36 -12 -88 -35
-115 -51 -70 -41 -213 -186 -273 -278 -62 -95 -76 -153 -67 -275 9 -109 -4
-147 -66 -188 -99 -67 -117 -182 -60 -401 36 -140 39 -212 12 -280 -10 -26
-38 -124 -62 -218 -40 -156 -43 -180 -43 -295 0 -105 4 -134 22 -182 27 -67
78 -135 122 -163 29 -18 31 -23 26 -61 -8 -62 10 -151 59 -297 25 -73 52 -160
60 -194 35 -150 112 -267 312 -474 77 -79 166 -178 200 -219 227 -280 549
-521 873 -653 122 -50 268 -66 705 -78 198 -6 370 -12 381 -15 12 -2 24 -11
28 -19 3 -9 -6 -72 -19 -140 -32 -161 -32 -190 5 -259 90 -173 210 -307 362
-409 166 -110 217 -131 388 -157 244 -37 320 -66 638 -248 101 -57 220 -119
266 -138 111 -45 302 -78 411 -70 166 12 328 89 450 216 105 109 276 210 828
492 l449 228 241 25 c733 76 1146 140 1254 192 66 33 120 92 136 150 l11 43
56 -8 c87 -11 218 -6 310 12 47 10 184 50 305 90 121 40 273 90 338 111 84 27
199 79 401 181 l283 143 89 -14 c49 -8 215 -29 369 -45 601 -66 837 -105 1085
-180 163 -49 227 -60 346 -60 117 0 222 27 330 84 209 112 334 226 436 401 19
34 52 83 73 110 89 116 125 247 149 535 l16 185 -40 155 c-44 167 -86 267
-143 343 -35 44 -37 52 -37 120 0 92 -16 158 -80 331 -28 77 -55 160 -61 185
-6 25 -38 93 -73 151 -35 58 -103 177 -151 265 -152 275 -237 403 -354 527
-56 60 -60 67 -54 101 8 52 -12 154 -63 311 -43 135 -47 143 -147 280 -218
301 -383 485 -542 601 -44 33 -96 73 -115 90 -19 17 -76 59 -127 93 -119 82
-177 144 -197 212 -45 152 -165 278 -441 466 -154 104 -235 164 -293 217 -53
47 -116 76 -257 117 -143 42 -205 70 -258 119 -49 45 -164 96 -461 206 -305
112 -504 173 -636 194 -69 11 -214 38 -323 61 -108 22 -241 47 -295 55 -136
22 -476 28 -572 11z m583 -89 c44 -8 83 -20 87 -27 5 -8 12 -37 16 -64 16
-119 86 -276 171 -383 69 -87 186 -190 280 -245 54 -31 80 -53 93 -79 33 -64
96 -239 159 -442 104 -334 160 -486 232 -627 114 -225 181 -290 459 -440 74
-40 160 -90 190 -110 112 -76 217 -213 250 -327 12 -39 10 -48 -20 -125 -43
-109 -157 -339 -209 -421 -23 -35 -51 -93 -62 -128 -30 -92 -61 -147 -127
-230 -100 -125 -83 -120 -213 -65 -118 50 -241 86 -294 86 -17 0 -56 -8 -86
-17 -87 -27 -263 -23 -427 11 -125 26 -159 28 -136 7 19 -17 244 -54 359 -59
91 -3 136 0 184 12 119 30 197 18 384 -61 l109 -46 -78 -70 c-129 -115 -246
-239 -291 -308 -23 -35 -70 -129 -103 -209 -122 -287 -181 -384 -278 -454 -86
-63 -180 -78 -327 -51 -104 19 -276 19 -390 0 -259 -42 -462 -137 -698 -327
-192 -155 -350 -249 -541 -323 -319 -123 -640 -137 -951 -42 -44 14 -92 28
-107 31 -38 9 -117 131 -151 234 -52 157 -45 351 18 489 21 48 23 63 5 63 -12
0 -49 -94 -66 -167 -12 -50 -15 -101 -12 -193 5 -149 33 -243 102 -350 l44
-67 -82 -6 c-187 -12 -337 -87 -676 -335 -309 -227 -311 -230 -636 -667 -167
-225 -319 -363 -478 -435 -51 -23 -67 -34 -64 -47 5 -26 47 -20 119 17 179 91
283 193 536 530 117 156 224 287 275 337 83 81 391 312 546 409 97 61 203 108
299 130 93 22 201 14 328 -25 143 -43 260 -61 401 -61 150 0 246 12 389 50
256 67 510 201 724 380 l71 60 0 -62 c0 -147 43 -297 126 -443 81 -142 124
-197 232 -302 l94 -92 -21 -28 c-42 -52 -120 -100 -255 -158 -129 -55 -155
-69 -143 -82 8 -8 264 104 320 139 26 17 64 50 85 73 l38 43 168 -131 c93 -73
203 -165 245 -204 73 -70 91 -83 91 -64 0 19 -187 185 -350 311 -219 168 -357
303 -432 426 -130 211 -162 304 -163 479 l0 120 55 37 c73 49 218 120 310 151
173 59 384 80 545 56 50 -8 133 -14 185 -14 88 0 101 3 162 33 134 66 223 192
348 497 79 192 127 262 269 399 339 324 403 403 455 557 13 38 39 95 59 127
199 323 364 792 402 1147 20 190 113 372 299 589 116 134 178 238 157 259 -17
17 -39 -1 -65 -51 -14 -28 -72 -106 -130 -176 -125 -150 -170 -214 -224 -323
-48 -95 -77 -192 -87 -290 -13 -128 -62 -341 -117 -512 l-21 -65 -16 40 c-72
178 -171 273 -441 418 -281 153 -350 221 -464 459 -55 114 -99 237 -244 687
-38 118 -86 254 -107 303 -37 86 -38 88 -102 124 -220 122 -394 337 -446 549
-24 95 -28 134 -13 134 7 0 100 -18 207 -39 107 -22 232 -45 279 -51 129 -19
606 -180 906 -307 54 -23 110 -55 138 -80 l47 -41 -80 -69 c-43 -37 -94 -77
-112 -88 -46 -27 -79 -89 -79 -146 l0 -47 -54 -6 c-85 -11 -139 -31 -276 -103
-118 -62 -148 -83 -120 -83 6 0 72 31 148 68 75 38 157 74 182 80 137 33 258
20 465 -50 344 -117 488 -190 629 -319 63 -58 85 -60 38 -3 -87 105 -301 222
-590 323 -175 61 -292 91 -355 91 -29 0 -36 4 -41 26 -14 54 28 130 89 161 17
9 62 47 102 86 l72 70 48 -21 c26 -11 96 -34 155 -51 148 -43 185 -61 252
-119 32 -28 141 -108 242 -178 101 -69 214 -152 251 -183 113 -95 186 -197
213 -298 15 -58 89 -135 222 -231 223 -161 306 -229 408 -331 124 -124 187
-200 338 -409 109 -150 112 -156 159 -295 43 -131 47 -150 48 -243 l0 -102 83
-86 c103 -109 196 -250 353 -531 67 -121 137 -244 156 -274 19 -29 45 -90 58
-135 13 -44 39 -121 58 -171 51 -135 70 -219 69 -314 l-1 -84 41 -46 c56 -63
98 -160 143 -326 l37 -140 -11 -141 c-6 -78 -11 -148 -11 -155 0 -8 -35 51
-78 131 -94 175 -130 231 -238 375 -92 124 -152 187 -271 287 -99 82 -141 102
-250 119 -46 7 -83 15 -83 19 0 4 11 40 26 81 40 116 64 228 64 297 0 124 -69
270 -250 527 -88 124 -142 214 -200 331 -66 134 -88 169 -128 206 -95 85 -193
123 -378 149 -155 21 -243 86 -391 290 -91 127 -123 162 -123 137 0 -8 15 -35
33 -59 19 -24 66 -88 106 -141 129 -175 210 -229 382 -254 129 -19 183 -34
257 -74 105 -56 158 -120 222 -270 42 -97 72 -148 210 -345 113 -161 166 -251
205 -350 46 -117 35 -241 -42 -460 l-28 -79 -95 -28 c-145 -43 -502 -131 -724
-179 -194 -42 -224 -55 -198 -81 9 -9 40 -6 119 11 186 38 611 141 778 188
159 45 159 45 235 33 99 -16 130 -30 204 -92 213 -180 377 -395 527 -692 34
-67 70 -130 80 -141 17 -19 17 -24 2 -90 -19 -87 -62 -180 -109 -236 -19 -23
-45 -61 -56 -83 -53 -106 -174 -241 -280 -314 -78 -54 -212 -121 -273 -137
-71 -19 -225 -22 -311 -6 -33 6 -119 29 -190 50 -239 72 -425 103 -985 166
-222 24 -428 49 -458 55 -109 21 -112 20 -409 -129 -283 -142 -350 -170 -577
-240 l-130 -41 -65 72 c-125 140 -137 151 -143 141 -4 -6 34 -57 83 -113 50
-57 90 -106 90 -109 0 -10 -200 -70 -302 -91 -113 -24 -214 -25 -314 -4 -85
17 -104 11 -104 -35 0 -50 -21 -100 -54 -129 -64 -56 -94 -63 -631 -147 -49
-8 -201 -26 -337 -41 l-248 -26 -47 28 c-27 15 -122 76 -213 135 -202 131
-280 173 -346 189 -65 15 -103 5 -187 -48 -203 -128 -291 -153 -697 -197 -154
-17 -229 -34 -299 -70 -50 -25 -72 -48 -183 -190 -124 -159 -380 -396 -556
-515 -45 -31 -67 -60 -44 -60 4 0 64 42 133 94 202 152 403 349 534 524 35 48
80 97 99 109 53 34 141 60 241 72 50 6 151 18 225 27 253 30 359 63 511 156
132 80 135 81 195 75 68 -7 141 -45 372 -195 99 -64 189 -122 199 -128 14 -9
-11 -14 -117 -24 l-135 -13 -300 -150 c-342 -171 -582 -297 -705 -370 -139
-83 -256 -164 -280 -194 -72 -91 -238 -191 -358 -214 -122 -23 -335 6 -467 63
-38 17 -144 73 -235 126 -185 106 -364 193 -442 215 -29 9 -87 20 -128 27
-172 26 -277 52 -332 83 -211 119 -308 211 -431 406 -56 88 -59 119 -26 264
13 59 19 113 16 152 -4 57 0 68 78 245 216 487 374 742 596 961 94 93 571 457
777 593 371 245 671 365 988 396 125 12 194 7 314 -22 113 -27 238 -22 328 14
34 14 62 24 62 22 0 -11 -50 -136 -100 -249 -73 -164 -127 -309 -141 -377 -9
-42 -22 -63 -67 -110 -38 -40 -52 -62 -45 -69 7 -7 27 9 64 48 49 53 57 68 82
158 15 55 55 163 89 240 100 230 149 360 139 363 -6 2 24 30 67 62 88 66 139
122 314 345 189 239 281 327 412 390 134 64 236 82 601 105 427 27 581 111
744 410 111 205 155 265 278 385 62 61 113 118 113 126 0 19 -20 39 -40 39
-24 0 -241 -219 -291 -295 -26 -38 -80 -131 -120 -205 -82 -148 -159 -241
-234 -281 l-45 -24 -105 27 c-400 102 -657 327 -707 617 -8 45 -17 71 -25 71
-16 0 -16 5 3 -88 30 -147 121 -296 247 -399 107 -88 315 -189 462 -223 80
-19 83 -20 65 -30 -38 -21 -196 -43 -435 -60 -330 -24 -416 -41 -550 -108
-107 -53 -265 -191 -357 -312 -15 -19 -29 -32 -31 -30 -4 5 -28 82 -133 428
-67 218 -85 316 -91 492 -5 159 5 252 44 410 55 221 278 618 451 801 43 46
112 134 152 194 158 238 270 359 382 414 39 19 155 54 303 91 132 33 250 64
263 70 22 10 30 34 13 44 -18 11 -524 -124 -601 -160 -107 -50 -232 -180 -367
-380 -56 -83 -128 -177 -160 -210 -125 -128 -261 -336 -374 -569 -115 -240
-148 -371 -156 -620 -8 -235 18 -364 157 -805 27 -85 56 -178 64 -207 l15 -52
-61 -78 c-151 -192 -243 -278 -355 -331 -53 -25 -69 -27 -178 -27 -92 0 -133
4 -174 19 -47 16 -74 18 -215 13 -240 -8 -443 -59 -675 -168 -57 -27 -109 -49
-115 -49 -21 0 -114 90 -146 141 -43 70 -49 132 -18 180 13 20 66 73 118 116
170 144 252 248 274 350 11 48 63 109 174 206 121 106 171 174 188 260 12 58
12 67 -12 141 -76 243 -46 385 103 474 43 25 99 72 138 114 55 60 80 100 155
252 63 125 99 214 120 288 74 268 190 446 320 491 57 20 123 74 147 121 25 47
21 132 -7 186 -44 84 -24 187 55 278 48 55 124 113 264 200 173 109 313 156
610 208 159 27 195 42 222 94 35 65 15 167 -51 250 -39 49 -113 95 -138 85
-14 -5 -9 -11 23 -27 93 -47 155 -140 155 -234 0 -58 -22 -95 -67 -112 -15 -6
-94 -22 -175 -37 -320 -57 -436 -100 -658 -247 -198 -131 -278 -228 -287 -353
-5 -51 -1 -67 21 -109 16 -30 26 -65 26 -90 0 -88 -71 -172 -167 -197 -32 -9
-58 -27 -105 -78 -94 -99 -152 -215 -213 -421 -36 -125 -132 -335 -200 -442
-63 -96 -110 -144 -185 -188 -135 -79 -177 -161 -167 -325 4 -54 17 -123 32
-174 49 -154 28 -202 -178 -405 -148 -145 -154 -153 -171 -214 -28 -97 -100
-188 -246 -312 -68 -58 -133 -121 -144 -139 -50 -85 9 -234 126 -321 l38 -27
-97 -58 c-198 -117 -322 -204 -768 -543 -349 -264 -556 -559 -830 -1183 l-68
-155 -226 3 c-287 5 -538 19 -683 38 -86 12 -136 25 -210 56 -295 124 -589
348 -818 625 -41 49 -131 148 -201 220 -179 185 -263 307 -284 414 -4 19 -32
112 -62 205 -57 174 -70 261 -50 327 8 24 4 30 -47 67 -159 118 -177 292 -67
671 16 58 37 123 45 145 24 63 19 140 -19 291 -19 76 -35 159 -35 184 0 61 31
125 69 144 16 9 43 32 58 53 27 35 28 40 33 193 l5 157 46 69 c93 140 188 231
295 284 36 18 67 30 69 28 2 -2 -10 -32 -27 -66 -25 -50 -32 -80 -36 -143 -7
-117 11 -184 94 -347 83 -163 143 -251 211 -312 96 -85 149 -88 310 -19 176
76 240 66 377 -60 40 -36 102 -91 137 -122 81 -71 122 -148 144 -273 8 -49 15
-103 15 -120 1 -43 31 -105 71 -143 19 -17 74 -55 123 -83 108 -62 200 -140
226 -190 10 -20 33 -84 50 -141 67 -227 127 -303 320 -408 82 -45 90 -47 90
-28 0 6 -38 31 -83 55 -105 53 -194 132 -234 209 -17 32 -49 117 -72 188 -22
72 -52 147 -66 167 -26 38 -145 133 -205 163 -70 35 -157 104 -173 137 -8 18
-21 77 -27 131 -20 168 -74 290 -158 353 -20 16 -72 61 -115 102 -173 160
-231 171 -440 82 -157 -67 -207 -56 -320 70 -52 58 -100 135 -169 275 -66 132
-82 187 -82 285 0 78 3 92 36 162 30 63 43 80 71 91 33 14 34 16 41 88 9 99
44 166 167 319 55 69 114 148 129 175 32 55 266 277 391 371 86 64 190 116
269 134 30 7 96 32 145 55 50 24 173 73 275 110 228 82 337 133 465 217 137
89 233 140 345 184 137 53 196 68 475 124 419 85 698 165 940 270 118 51 127
53 440 105 380 64 569 89 805 110 294 25 703 16 800 -18 21 -7 82 -12 150 -11
97 1 141 7 285 42 94 22 184 43 200 45 60 10 481 -2 558 -16z"/>
<path d="M6077 7886 c-153 -63 -267 -227 -327 -471 -13 -55 -31 -100 -45 -115
-97 -109 -178 -307 -191 -470 -10 -130 -6 -122 -118 -214 -218 -180 -253 -238
-241 -404 6 -90 5 -100 -17 -142 -45 -84 -149 -126 -413 -166 -87 -13 -141
-15 -255 -9 l-145 7 -100 179 c-118 213 -185 306 -240 334 -22 10 -116 55
-210 98 -93 43 -178 86 -189 95 -32 30 -57 92 -65 163 l-7 68 120 191 c67 104
126 190 131 190 6 0 16 5 21 10 15 15 307 155 394 189 85 33 524 173 615 195
33 8 114 24 181 35 131 21 191 45 222 88 29 42 37 73 18 73 -9 0 -16 -6 -16
-14 0 -23 -40 -65 -80 -86 -22 -11 -85 -27 -142 -35 -153 -23 -209 -38 -488
-126 -322 -102 -329 -105 -545 -208 l-180 -86 -50 17 c-109 37 -228 20 -485
-72 -162 -57 -209 -82 -260 -135 l-35 -36 0 -157 c0 -136 -3 -162 -18 -186
-29 -44 -182 -136 -462 -278 -386 -196 -563 -323 -624 -451 -36 -75 -47 -170
-28 -238 27 -92 114 -189 186 -206 34 -8 78 -49 103 -97 11 -21 33 -88 48
-150 55 -208 94 -277 183 -321 67 -32 197 -47 197 -23 0 12 -17 16 -73 20
-158 10 -219 81 -283 333 -14 55 -33 118 -43 141 -22 48 -78 114 -97 114 -48
0 -141 76 -177 144 -34 63 -31 191 5 269 60 128 232 250 629 450 140 70 299
158 354 195 88 59 102 73 119 114 18 44 19 54 6 161 -12 103 -11 116 5 150 32
67 81 95 313 176 207 72 283 87 375 71 37 -7 70 -16 73 -21 3 -5 -49 -95 -115
-199 -106 -166 -121 -196 -121 -233 0 -89 44 -198 93 -229 12 -8 108 -54 212
-102 105 -48 201 -97 214 -109 13 -12 42 -49 66 -82 46 -65 215 -365 215 -382
0 -6 -25 -13 -55 -16 -124 -13 -244 -101 -282 -208 -10 -27 -21 -49 -25 -49
-4 0 -33 15 -65 34 -100 59 -148 69 -281 63 -106 -4 -130 -9 -252 -52 -177
-61 -258 -99 -377 -178 -96 -63 -218 -178 -281 -267 -17 -22 -51 -90 -76 -150
-51 -121 -55 -155 -35 -297 13 -91 125 -371 142 -354 6 6 -10 57 -46 143 -67
157 -81 221 -74 343 4 75 10 103 39 165 57 126 67 140 167 243 153 157 289
238 566 333 134 46 144 48 247 47 122 -1 156 -10 254 -65 l72 -40 -10 -37 c-7
-23 -8 -100 -2 -221 4 -102 8 -255 8 -340 0 -204 -15 -264 -164 -646 -153
-390 -175 -503 -175 -884 1 -218 12 -396 31 -487 3 -17 12 -23 29 -23 14 0 25
1 25 3 0 1 -7 54 -15 117 -25 193 -30 492 -11 663 21 182 47 289 121 482 32
83 79 208 106 278 91 240 121 403 108 592 -21 289 -22 419 -5 484 35 137 102
214 214 248 47 14 93 17 261 15 406 -4 665 69 738 208 22 42 24 53 18 153 -5
93 -3 114 14 152 25 57 84 120 201 215 135 110 132 105 141 212 17 198 76 356
178 478 21 25 42 61 45 80 16 78 60 208 91 270 65 129 151 211 253 241 34 10
42 17 42 36 0 30 -18 29 -93 -1z"/>
<path d="M5195 7288 c-55 -44 -115 -94 -133 -111 -45 -43 -167 -241 -249 -402
-60 -121 -73 -138 -170 -236 -68 -68 -103 -111 -98 -119 5 -8 42 22 112 91
100 99 108 111 175 244 39 76 106 197 149 267 82 132 98 147 318 315 11 8 13
15 6 22 -7 6 -44 -17 -110 -71z"/>
<path d="M4106 6993 c-10 -60 -49 -133 -105 -198 -29 -33 -62 -77 -73 -99 -32
-63 -61 -226 -40 -226 4 0 13 33 19 74 13 92 47 168 106 234 25 28 57 70 71
94 31 54 53 135 39 149 -7 7 -12 -3 -17 -28z"/>
<path d="M2550 6904 c-82 -67 -131 -91 -222 -110 -139 -29 -271 -100 -404
-217 -82 -72 -137 -93 -315 -123 -83 -14 -175 -34 -205 -45 -109 -41 -210
-165 -221 -273 -9 -83 3 -119 63 -198 38 -50 61 -94 76 -141 11 -38 35 -87 52
-110 29 -38 119 -107 139 -107 21 0 -4 28 -55 62 -58 39 -98 100 -118 185 -6
24 -34 73 -65 114 -61 80 -80 133 -71 192 15 95 99 201 191 243 28 13 122 36
216 52 191 34 241 53 320 122 139 121 280 197 408 220 36 6 83 21 105 32 49
24 186 127 186 138 0 22 -20 13 -80 -36z"/>
<path d="M9445 6697 c-77 -51 -174 -117 -216 -146 l-77 -54 -142 -12 c-78 -7
-144 -16 -147 -19 -16 -16 18 -18 153 -6 l147 12 81 58 c44 31 142 97 216 146
74 49 137 90 139 91 3 2 0 8 -5 13 -6 6 -60 -24 -149 -83z"/>
<path d="M3165 6664 c-9 -21 -47 -79 -85 -129 -79 -104 -113 -166 -112 -203 0
-15 2 -61 3 -103 6 -130 -31 -157 -222 -168 -106 -6 -120 -9 -153 -34 -52 -40
-84 -87 -117 -171 -31 -79 -78 -320 -65 -333 12 -12 24 17 31 76 19 164 76
321 139 384 41 42 41 42 193 55 129 11 176 30 205 83 17 29 19 47 14 130 -5
88 -4 99 19 145 14 27 52 83 85 124 71 89 107 157 92 172 -7 7 -15 -1 -27 -28z"/>
<path d="M7287 6653 c-4 -3 28 -43 71 -87 181 -187 270 -394 261 -611 -3 -60
-1 -85 8 -85 18 0 26 108 13 198 -27 196 -114 366 -274 530 -61 63 -67 67 -79
55z"/>
<path d="M10801 6118 c-5 -18 -21 -80 -35 -137 -44 -182 -44 -181 -165 -257
-348 -219 -835 -593 -808 -620 10 -10 14 -7 128 94 165 147 409 324 701 509
117 74 124 86 173 285 39 159 39 158 26 158 -5 0 -14 -15 -20 -32z"/>
<path d="M11220 5880 c0 -17 33 -144 97 -379 l56 -204 -19 -174 c-17 -150 -16
-199 1 -181 3 2 13 84 24 182 l20 178 -49 177 c-27 97 -62 227 -77 290 -16 63
-34 116 -41 119 -7 2 -12 -2 -12 -8z"/>
<path d="M4376 5402 c-3 -6 10 -47 29 -91 60 -141 86 -238 92 -346 4 -77 2
-108 -10 -137 -15 -35 -13 -48 4 -48 5 0 16 26 25 57 30 104 2 268 -82 472
-38 92 -48 108 -58 93z"/>
<path d="M3246 5121 c-9 -13 1 -31 71 -134 73 -107 82 -129 98 -256 19 -141
19 -291 -1 -415 -21 -130 -14 -408 15 -620 12 -81 21 -150 21 -152 0 -2 6 -4
13 -4 11 0 9 35 -10 173 -29 209 -36 506 -14 602 18 76 18 308 1 435 -9 65
-22 113 -41 150 -43 85 -146 233 -153 221z"/>
<path d="M5680 4778 c0 -99 63 -607 81 -655 18 -49 28 -10 13 57 -14 65 -47
343 -61 514 -5 57 -13 91 -20 94 -7 2 -13 -3 -13 -10z"/>
<path d="M9987 4753 c-4 -3 14 -36 40 -72 25 -36 80 -115 122 -176 l76 -110
26 -180 c15 -99 24 -183 21 -187 -4 -3 -54 -25 -112 -48 -158 -62 -383 -161
-398 -175 -32 -29 9 -20 103 22 182 81 408 173 414 168 22 -23 27 -360 7 -467
-8 -40 -37 -147 -65 -238 -78 -252 -117 -468 -104 -572 3 -22 -2 -55 -12 -83
-34 -89 1 -214 78 -280 44 -38 209 -94 297 -102 117 -11 166 10 332 139 80 62
201 127 288 153 31 10 113 20 191 24 112 6 144 11 180 30 60 31 104 75 130
130 18 39 21 57 16 121 -3 41 -11 92 -17 113 -13 43 -35 51 -27 10 29 -153 30
-164 18 -204 -15 -51 -79 -122 -135 -148 -33 -16 -68 -22 -161 -25 -66 -3
-147 -12 -180 -20 -98 -26 -252 -108 -350 -187 -117 -94 -150 -109 -247 -109
-63 0 -100 7 -188 36 -99 32 -114 40 -150 81 -50 57 -64 102 -56 179 3 32 10
120 15 194 11 160 35 276 103 500 66 221 77 268 84 380 8 112 -6 269 -46 547
l-29 203 -52 78 c-74 109 -189 271 -199 277 -4 2 -10 2 -13 -2z"/>
<path d="M10947 4610 c-124 -31 -215 -119 -356 -345 -78 -124 -130 -180 -201
-213 -50 -24 -52 -27 -28 -30 69 -9 137 56 274 264 156 238 232 299 369 299
58 0 76 -4 104 -24 44 -32 87 -101 112 -181 24 -78 49 -283 49 -403 0 -67 3
-88 13 -84 29 10 -1 374 -42 507 -51 163 -162 242 -294 210z"/>
<path d="M885 4336 l-120 -53 -32 -59 c-58 -105 -63 -134 -47 -270 26 -210 63
-317 146 -420 75 -94 140 -196 196 -312 57 -115 57 -117 56 -204 -1 -82 5
-103 21 -77 4 5 7 44 7 84 -1 65 -6 86 -43 171 -54 122 -120 232 -199 331
-102 126 -137 225 -161 451 l-12 113 44 87 44 86 110 49 110 48 125 -21 c69
-11 137 -23 153 -26 19 -4 27 -2 27 9 0 10 -35 20 -137 36 -76 12 -145 24
-153 26 -8 3 -69 -20 -135 -49z"/>
<path d="M12011 4052 c-113 -80 -163 -127 -117 -109 28 11 266 180 266 189 0
19 -33 2 -149 -80z"/>
<path d="M7880 3968 c-59 -129 -101 -190 -151 -217 -39 -22 -53 -24 -208 -25
-155 -1 -176 1 -314 33 -101 22 -152 30 -159 23 -12 -12 -14 -12 172 -53 129
-29 161 -33 290 -32 170 1 217 11 272 61 47 42 167 277 151 293 -6 6 -25 -24
-53 -83z"/>
<path d="M1040 3935 c0 -3 19 -30 41 -60 68 -90 172 -156 304 -192 69 -18 102
-18 196 1 30 6 41 4 63 -16 40 -34 45 -88 14 -136 -67 -100 -102 -180 -144
-330 l-23 -84 28 -122 27 -122 123 -147 c67 -81 127 -145 132 -141 6 3 5 12
-3 22 -15 20 -195 240 -214 263 -8 8 -25 67 -40 129 -25 112 -25 116 -9 180
32 130 80 244 136 326 40 58 44 85 21 136 -28 65 -54 74 -156 58 -81 -12 -86
-12 -167 14 -111 36 -187 84 -256 162 -50 57 -73 75 -73 59z"/>
<path d="M9099 3636 c6 -7 33 -19 59 -26 26 -7 92 -36 146 -63 111 -57 206
-140 247 -217 32 -61 33 -166 2 -230 -20 -41 -101 -171 -147 -234 -23 -32 -14
-46 14 -21 26 24 140 208 163 264 21 51 24 129 8 187 -34 125 -202 262 -409
333 -74 25 -100 27 -83 7z"/>
<path d="M9733 3472 c-95 -42 -173 -83 -173 -89 0 -7 3 -13 8 -12 21 1 357
158 360 168 7 20 -20 11 -195 -67z"/>
<path d="M8490 3272 c0 -14 30 -36 130 -95 137 -80 170 -120 170 -210 0 -30 3
-38 11 -30 12 12 8 95 -5 126 -5 10 -4 17 3 17 6 0 50 18 98 40 59 28 83 44
76 51 -7 7 -38 -4 -100 -34 l-90 -43 -34 29 c-19 16 -65 47 -104 69 -38 22
-86 51 -106 64 -37 26 -49 29 -49 16z"/>
<path d="M3125 3088 l-120 -50 -185 -14 c-281 -21 -862 -92 -877 -108 -19 -18
29 -16 234 12 285 39 466 59 658 72 168 11 169 11 315 70 117 46 117 47 104
59 -5 5 -61 -13 -129 -41z"/>
<path d="M11995 3003 c77 -199 105 -445 69 -606 -49 -216 -202 -437 -399 -577
-46 -34 -71 -58 -66 -63 21 -21 203 130 297 247 74 92 163 265 188 366 29 115
31 240 7 374 -27 147 -68 276 -88 276 -10 0 -13 -6 -8 -17z"/>
<path d="M7780 2754 c0 -3 31 -43 68 -88 37 -44 99 -121 137 -171 96 -123 161
-187 220 -216 49 -23 56 -24 250 -22 219 3 542 26 675 48 74 12 477 121 489
131 3 3 0 8 -5 13 -5 5 -57 -5 -124 -25 -239 -71 -348 -95 -485 -109 -200 -21
-448 -35 -605 -35 -196 1 -225 17 -393 229 -133 169 -199 246 -214 249 -7 2
-13 0 -13 -4z"/>
<path d="M5307 2143 c-14 -23 -37 -122 -37 -159 0 -56 33 -159 69 -212 61 -92
168 -186 266 -236 73 -36 104 -46 110 -37 3 5 -33 28 -79 51 -155 76 -285 211
-321 332 -19 65 -19 141 0 204 17 58 18 64 6 64 -6 0 -12 -3 -14 -7z"/>
<path d="M1773 2119 c-110 -18 -236 -84 -311 -162 -55 -57 -18 -55 45 3 109
100 224 140 398 140 163 0 354 -53 513 -142 42 -24 52 -27 52 -14 0 20 -121
82 -244 125 -155 55 -317 73 -453 50z"/>
</g>
</svg>
