<?xml version="1.0" encoding="UTF-8"?>
<svg width="1200pt" height="1200pt" version="1.1" viewBox="0 0 1200 1200" xmlns="http://www.w3.org/2000/svg">
 <path transform="matrix(12 0 0 12 0 54.222)" d="m49.771 3.1449s-12.759-7.974-23.732 7.6309c0 0-2.2969-0.44303-1.5309 3.9801-1.5661 1.932-3.8281 4.4648-3.0618 8.804-0.59505 1.0632-0.72298 3.8711-1.276 5.486-1.7441 1.5739-1.361 5.7409-1.361 5.7409s-2.4251 1.5739-2.4671 4.3561c-0.89388 0.57812-0.55306 2.3639-0.55306 2.3639s-4.21 5.487-1.999 9.8669c0.38216 0.80892-2 9.2288 0.15592 15.054-0.070964 4.4681 2.5651 7.444 3.416 8.2949-0.29688 1.445 1.9141 2.8079 1.9141 2.8079s3.1038 2.8962 2.4242 3.446c0.85091 1.6569 4.763 4.571 5.8691 4.166 1.1061-0.40592 4.21 2.722 4.21 2.722s1.957 1.2331 3.6999 0.72298c2.2539 1.0212 4.4661 0.42611 4.4661 0.42611s7.443 2.042 9.569-2.1689c1.137 0.45703 1.6169 2.083 1.6169 2.083s3.0618 1.8721 8.5059 0.58106c8.5898-1.0049 8.93-3.5999 8.93-3.5999s11.611-4.5941 12.717-10.1c-0.59603-1.1289 2.1839-4.5439 3.0921-4.75 2.098-2.5459 2.3962-6.8411 2.3949-7.5632 2.3398-0.42611 1.3359-11.018 1.404-12.249 1.5739-5.7419-3.9141-11.829-3.5719-12.103 0.33984-3.7191-4.5101-8.5632-4.2109-8.8841-0.12695-6.8281-3.318-10.908-2.9359-11.228-2.8903-15.122-19.817-21.884-25.899-16.525-0.21094 1.0202-1.7858 0.63802-1.7858 0.63802z" fill="none" stroke="#000" stroke-miterlimit="10" stroke-width=".5"/>
 <path transform="matrix(12 0 0 12 0 54.222)" d="m49.516 86.844c-2.3809-4.5931-3.041-56.835 0.89193-83.629" fill="none" stroke="#000" stroke-miterlimit="10" stroke-width=".5"/>
 <path transform="matrix(12 0 0 12 0 54.222)" d="m58.957 9.5001s0.93815 2.917 0.59603 3.597c-0.33984 0.68099-2.807 2.722 0.42611 3.2321s1.957 3.8271 1.8711 3.9131c-0.085937 0.084961 2.637 3.5241 2.127 4.8239-0.51204 1.3001-2 5.2979 0.061848 5.2979 2.0618 0-3.125 2.8919-3.6351 1.7008-0.51204-1.1901-1.445 3.3171 0.16992 2.807 1.6149-0.51009 3.152 8.6761 0.85384 6.2939-2.3011-2.3809-2.555 6.804-1.109 6.3789 1.445-0.42415 0.59603 5.7852 0.59603 5.7852s-9.9551 6.9759-10.506 10.633" fill="none" stroke="#000" stroke-miterlimit="10" stroke-width=".25"/>
 <path transform="matrix(12 0 0 12 0 54.222)" d="m71.717 11.736s-2.4671-2.042-3.998-1.5309c-1.5309 0.51009-0.59603 2.8919-0.59603 2.8919s-1.7992 3.6569-2.6019 3.2321c-0.80111-0.42513-2.8011 0.91895-2.8011 0.91895" fill="none" stroke="#000" stroke-miterlimit="10" stroke-width=".25"/>
 <path transform="matrix(12 0 0 12 0 54.222)" d="m70.951 13.182s1.3219 3.2992 3.486 2.9769c2.166-0.32096 2.637 5.5661 1.6169 5.8451-1.0212 0.27897-1.611 1.7249-2.2949 1.0449-0.68197-0.68099-4.4261 0.37695-5.1051-1.0449-0.67904-1.4219-3.404-2.9531-3.0618-1.167 0.33984 1.7861-1.359 7.9951 2.8929 8.25 4.252 0.25488 2.041-3.3171 6.4648-2.126 4.4219 1.1911 1.6211 5.6139 1.6211 5.6139s-3.068 7.4001-2.0469 8.0801c1.0199 0.68099-7.7399 1.0212-7.2301-4.763" fill="none" stroke="#000" stroke-miterlimit="10" stroke-width=".25"/>
 <path transform="matrix(12 0 0 12 0 54.222)" d="m50.176 51.8s1.8079 1.2288 3.763-3.0859c0.08789-2.9561-2.637-2.1882 1.2751-5.7611" fill="none" stroke="#000" stroke-miterlimit="10" stroke-width=".25"/>
 <path transform="matrix(12 0 0 12 0 54.222)" d="m84.305 47.458s-3.318-0.082031-4.168 2.4701c-0.84994 2.5521-6.123-1.0199-5.7829-1.9561 0.33984-0.93587-2.127-4.4229-2.127-4.4229s-4.6781 0.021159-3.9121 2.0951c0.76595 2.0739 1.5309 1.5459 1.5309 1.5459s-2.9899 10.309-5.3239 6.736c-2.332-3.5719 0.51595 8.251 2.1969 8.166 1.68-0.084961 3.721-1.749 3.9769-4.7021" fill="none" stroke="#000" stroke-miterlimit="10" stroke-width=".25"/>
 <path transform="matrix(12 0 0 12 0 54.222)" d="m77.445 59.029s-3.516 0.93685-5.389 6.04c-1.8711 5.1038-9.9531 2.041-10.336 1.6149-0.38086-0.42611-3.1891 2.722-2.2539 3.6569 0.93815 0.93685-3.4001 5.1891-5.2712 2.723" fill="none" stroke="#000" stroke-miterlimit="10" stroke-width=".25"/>
 <path transform="matrix(12 0 0 12 0 54.222)" d="m80.223 66.855s-0.19694-0.51693-2.777-0.42904c-2.582 0.087891-2.582 0.087891-2.582 0.087891s-1.4411 0.25488-0.89095-0.85091c0.55013-1.1061-1.916-0.59505-1.916-0.59505" fill="none" stroke="#000" stroke-miterlimit="10" stroke-width=".25"/>
 <path transform="matrix(12 0 0 12 0 54.222)" d="m50.408 82.251s3.6159-0.51107 4.2109-1.7861c0.59603-1.276 0.75814-4.4242 2.846-5.529 2.0879-1.1051 1.3789-2.8311 1.3789-2.8311" fill="none" stroke="#000" stroke-miterlimit="10" stroke-width=".25"/>
 <path transform="matrix(12 0 0 12 0 54.222)" d="m58.961 76.042s5.5251-1.6159 8.7581-4.5941c3.2331-2.9779 0-3.1471 0-3.1471" fill="none" stroke="#000" stroke-miterlimit="10" stroke-width=".25"/>
 <path transform="matrix(12 0 0 12 0 54.222)" d="m71.717 69.895 1.7852 4.5299s-0.68001 2.043-1.445 2.3831c-0.76497 0.33984-12.428 4.6331-14.592 4.3141-2.1641-0.31706-3.611 3.5101-5.9919 2.234" fill="none" stroke="#000" stroke-miterlimit="10" stroke-width=".25"/>
 <path transform="matrix(12 0 0 12 0 54.222)" d="m67.719 82.846s-0.071941-2.6051 1.793-5.0879" fill="none" stroke="#000" stroke-miterlimit="10" stroke-width=".25"/>
 <path transform="matrix(12 0 0 12 0 54.222)" d="m72.057 76.808s0.59603 2.5521 3.402 1.5299" fill="none" stroke="#000" stroke-miterlimit="10" stroke-width=".25"/>
 <path transform="matrix(12 0 0 12 0 54.222)" d="m73.502 74.425s2.3551 1.6169 3.943 0.93685" fill="none" stroke="#000" stroke-miterlimit="10" stroke-width=".25"/>
 <path transform="matrix(12 0 0 12 0 54.222)" d="m78.266 54.521s3.7419 1.276 3.402 4.5091c-0.33984 3.2331-4.223 4.5941-4.223 4.5941" fill="none" stroke="#000" stroke-miterlimit="10" stroke-width=".25"/>
 <path transform="matrix(12 0 0 12 0 54.222)" d="m81.447 59.977s0.13509-1.5898 2.262-1.3109" fill="none" stroke="#000" stroke-miterlimit="10" stroke-width=".25"/>
 <path transform="matrix(12 0 0 12 0 54.222)" d="m63.641 7.058s0.8571 3.2321 0 4.2529" fill="none" stroke="#000" stroke-miterlimit="10" stroke-width=".25"/>
 <path transform="matrix(12 0 0 12 0 54.222)" d="m53.514 23.814s5.959-0.84994 5.4469 6.9749" fill="none" stroke="#000" stroke-miterlimit="10" stroke-width=".25"/>
 <path transform="matrix(12 0 0 12 0 54.222)" d="m58.123 26.016s0.41016-1.6911 2.0251-1.6911" fill="none" stroke="#000" stroke-miterlimit="10" stroke-width=".25"/>
 <path transform="matrix(12 0 0 12 0 54.222)" d="m77.926 35.723s2.4671 3.0999 2.2969 4.3151c-0.16992 1.2139 2.3551-0.48698 2.3551-0.48698" fill="none" stroke="#000" stroke-miterlimit="10" stroke-width=".25"/>
 <path transform="matrix(12 0 0 12 0 54.222)" d="m79.547 38.099s-2.557 2.693-3.0661 2.9229c-0.51204 0.23014 2.4648 2.001 1.8711 4.0072" fill="none" stroke="#000" stroke-miterlimit="10" stroke-width=".25"/>
 <path transform="matrix(12 0 0 12 0 54.222)" d="m49.771 74.425s8.2839-11.143 8.3519-10.802c0.068034 0.33984 5.2441-6.805 6.3981 1.7008" fill="none" stroke="#000" stroke-miterlimit="10" stroke-width=".25"/>
 <path transform="matrix(12 0 0 12 0 54.222)" d="m54.195 35.723s-6.6419-0.27311-6.6019 5.8411" fill="none" stroke="#000" stroke-miterlimit="10" stroke-width=".25"/>
 <path transform="matrix(12 0 0 12 0 54.222)" d="m49.771 7.8031s0.43685-5.168 13.87-2.1061" fill="none" stroke="#000" stroke-miterlimit="10" stroke-width=".25"/>
 <path transform="matrix(12 0 0 12 0 54.222)" d="m55.215 10.776s-1.998 0.23112-0.53092 1.7871c1.4671 1.555-3.402 1.1719-1.988 2.5758" fill="none" stroke="#000" stroke-miterlimit="10" stroke-width=".25"/>
 <path transform="matrix(12 0 0 12 0 54.222)" d="m50.408 28.153s5.235 2.2959 4.276 3.6999c-0.95703 1.404 2.7809 0.63802 2.7809 0.63802s-4.1641-4.5618-3.9508-7.32" fill="none" stroke="#000" stroke-miterlimit="10" stroke-width=".25"/>
 <path transform="matrix(12 0 0 12 0 54.222)" d="m40.536 11.296s-0.93685 2.916-0.59603 3.597c0.34115 0.68099 2.8079 2.722-0.42513 3.2321s-1.958 3.8271-1.8721 3.9131c0.085937 0.084961-2.637 3.5241-2.126 4.8239 0.51009 1.3001 1.999 5.2979-0.064128 5.2979-2.0632 0 3.126 2.8919 3.6361 1.7008 0.51009-1.1901-0.16992 2.807-0.16992 2.807s4.472 1.3509-0.85286 6.2939c2.2992-2.3809 2.554 6.805 1.1081 6.3799-1.446-0.42513-0.59505 5.7839-0.59505 5.7839s8.4629 7.1191 9.014 10.776" fill="none" stroke="#000" stroke-miterlimit="10" stroke-width=".25"/>
 <path transform="matrix(12 0 0 12 0 54.222)" d="m27.777 13.532s2.4661-2.042 3.9971-1.5309c1.5309 0.51107 0.59603 2.8929 0.59603 2.8929s1.7992 3.6569 2.6009 3.2321c0.80208-0.42513 2.8011 0.91895 2.8011 0.91895" fill="none" stroke="#000" stroke-miterlimit="10" stroke-width=".25"/>
 <path transform="matrix(12 0 0 12 0 54.222)" d="m28.542 14.979s-1.3229 3.2979-3.488 2.9769c-2.165-0.32194-2.637 5.5661-1.6159 5.8451s1.611 1.7249 2.293 1.0439c0.68197-0.68099 4.4271 0.37695 5.1061-1.0439 0.67904-1.4209 3.403-2.9531 3.0618-1.167-0.34115 1.7871 1.36 7.9961-2.8929 8.25-4.252 0.25488-2.042-3.3171-6.4639-2.126-4.4229 1.1901-1.6211 5.6139-1.6211 5.6139s3.0671 7.401 2.0459 8.0811c-1.0212 0.68001 7.7399 1.0212 7.2301-4.763" fill="none" stroke="#000" stroke-miterlimit="10" stroke-width=".25"/>
 <path transform="matrix(12 0 0 12 0 54.222)" d="m41.37 53.16s6.139 1.665 4.1839-2.6501c-0.08789-2.9551 2.6361-2.1882-1.276-5.7601" fill="none" stroke="#000" stroke-miterlimit="10" stroke-width=".25"/>
 <path transform="matrix(12 0 0 12 0 54.222)" d="m15.188 49.254s3.318-0.082031 4.168 2.4701 6.123-1.0199 5.7829-1.9551c-0.33984-0.93685 2.127-4.4229 2.127-4.4229s4.6781 0.021159 3.9121 2.0941c-0.76497 2.0729-1.5309 1.5459-1.5309 1.5459s2.9899 10.31 5.3229 6.736c2.333-3.5719-0.51497 8.251-2.196 8.166-1.681-0.084961-3.722-1.748-3.9779-4.7021" fill="none" stroke="#000" stroke-miterlimit="10" stroke-width=".25"/>
 <path transform="matrix(12 0 0 12 0 54.222)" d="m22.048 60.825s3.516 0.93685 5.388 6.04c1.8721 5.1029 9.9541 2.041 10.335 1.6159 0.38216-0.42611 3.1901 2.721 2.2539 3.6569-0.93587 0.93587 3.401 5.1882 5.2731 2.722" fill="none" stroke="#000" stroke-miterlimit="10" stroke-width=".25"/>
 <path transform="matrix(12 0 0 12 0 54.222)" d="m19.27 68.651s0.19792-0.51693 2.778-0.42904c2.5801 0.087891 2.5811 0.087891 2.5811 0.087891s1.4411 0.25488 0.89095-0.85091c-0.55013-1.1061 1.916-0.59505 1.916-0.59505" fill="none" stroke="#000" stroke-miterlimit="10" stroke-width=".25"/>
 <path transform="matrix(12 0 0 12 0 54.222)" d="m49.085 84.047s-3.6159-0.51107-4.2109-1.7861c-0.59603-1.276-0.75814-4.4242-2.846-5.529-2.0879-1.1051-1.3789-2.8311-1.3789-2.8311" fill="none" stroke="#000" stroke-miterlimit="10" stroke-width=".25"/>
 <path transform="matrix(12 0 0 12 0 54.222)" d="m40.533 77.838s-5.527-1.6159-8.7591-4.5931c-3.2311-2.9779 0-3.1481 0-3.1481" fill="none" stroke="#000" stroke-miterlimit="10" stroke-width=".25"/>
 <path transform="matrix(12 0 0 12 0 54.222)" d="m27.777 71.69-1.7861 4.5299s0.68001 2.043 1.445 2.3831c0.76497 0.33984 12.51 10.409 14.592 4.3151 0.70801-2.07 3.611 3.5101 5.9928 2.2331" fill="none" stroke="#000" stroke-miterlimit="10" stroke-width=".25"/>
 <path transform="matrix(12 0 0 12 0 54.222)" d="m31.774 84.642s-0.12891-1.8571-1.9951-4.3398" fill="none" stroke="#000" stroke-miterlimit="10" stroke-width=".25"/>
 <path transform="matrix(12 0 0 12 0 54.222)" d="m27.436 78.604s-0.59505 2.5521-3.402 1.5309" fill="none" stroke="#000" stroke-miterlimit="10" stroke-width=".25"/>
 <path transform="matrix(12 0 0 12 0 54.222)" d="m25.991 76.221s-2.3551 1.6169-3.9421 0.93685" fill="none" stroke="#000" stroke-miterlimit="10" stroke-width=".25"/>
 <path transform="matrix(12 0 0 12 0 54.222)" d="m21.227 56.317s-3.7419 1.2751-3.402 4.5081 4.224 4.5941 4.224 4.5941" fill="none" stroke="#000" stroke-miterlimit="10" stroke-width=".25"/>
 <path transform="matrix(12 0 0 12 0 54.222)" d="m18.046 61.772s-0.13509-1.5898-2.263-1.3109" fill="none" stroke="#000" stroke-miterlimit="10" stroke-width=".25"/>
 <path transform="matrix(12 0 0 12 0 54.222)" d="m35.852 8.8539s-0.85612 3.2321 0 4.252" fill="none" stroke="#000" stroke-miterlimit="10" stroke-width=".25"/>
 <path transform="matrix(12 0 0 12 0 54.222)" d="m45.979 25.611s-5.96-0.84994-5.4469 6.9749" fill="none" stroke="#000" stroke-miterlimit="10" stroke-width=".25"/>
 <path transform="matrix(12 0 0 12 0 54.222)" d="m41.37 27.812s-0.41016-1.6911-2.0251-1.6911" fill="none" stroke="#000" stroke-miterlimit="10" stroke-width=".25"/>
 <path transform="matrix(12 0 0 12 0 54.222)" d="m21.567 37.519s-2.4671 3.0999-2.2969 4.3151c0.16992 1.2148-2.3551-0.48698-2.3551-0.48698" fill="none" stroke="#000" stroke-miterlimit="10" stroke-width=".25"/>
 <path transform="matrix(12 0 0 12 0 54.222)" d="m19.945 39.895s2.5579 2.693 3.068 2.9219c0.51009 0.23112-2.4661 2.002-1.8711 4.0081" fill="none" stroke="#000" stroke-miterlimit="10" stroke-width=".25"/>
 <path transform="matrix(12 0 0 12 0 54.222)" d="m48.021 76.221s-6.582-11.142-6.6501-10.802-5.2441-6.805-6.3991 1.7008" fill="none" stroke="#000" stroke-miterlimit="10" stroke-width=".25"/>
 <path transform="matrix(12 0 0 12 0 54.222)" d="m34.63 40.038c0.06901 3.2679-2.2051 9.141 2.3431 8.528" fill="none" stroke="#000" stroke-miterlimit="10" stroke-width=".25"/>
 <path transform="matrix(12 0 0 12 0 54.222)" d="m43.373 3.2491s5.9131 1.182-7.5212 4.2441" fill="none" stroke="#000" stroke-miterlimit="10" stroke-width=".25"/>
 <path transform="matrix(12 0 0 12 0 54.222)" d="m44.278 12.572s1.998 0.23112 0.53092 1.7861c-1.4661 1.556 3.402 1.1729 1.9889 2.5758" fill="none" stroke="#000" stroke-miterlimit="10" stroke-width=".25"/>
 <path transform="matrix(12 0 0 12 0 54.222)" d="m48.162 29.026c-0.91406-0.93294-4.3109 3.2201-3.3529 4.623 0.95801 1.404-2.7809 0.63802-2.7809 0.63802s4.1641-4.5618 3.9521-7.321" fill="none" stroke="#000" stroke-miterlimit="10" stroke-width=".25"/>
</svg>
