<?xml version="1.0" standalone="no"?>
<!DOCTYPE svg PUBLIC "-//W3C//DTD SVG 20010904//EN"
 "http://www.w3.org/TR/2001/REC-SVG-20010904/DTD/svg10.dtd">
<svg version="1.0" xmlns="http://www.w3.org/2000/svg"
 width="1280.000000pt" height="1010.000000pt" viewBox="0 0 1280.000000 1010.000000"
 preserveAspectRatio="xMidYMid meet">
<metadata>
Created by potrace 1.15, written by Peter Selinger 2001-2017
</metadata>
<g transform="translate(0.000000,1010.000000) scale(0.100000,-0.100000)"
fill="#000000" stroke="none">
<path d="M7087 10090 c-31 -5 -126 -26 -210 -46 -183 -44 -288 -52 -372 -31
-100 26 -351 40 -565 33 -330 -11 -543 -35 -1100 -127 -300 -49 -307 -51 -433
-105 -263 -112 -526 -187 -943 -269 -131 -26 -293 -65 -359 -86 -151 -49 -324
-135 -483 -238 -132 -86 -200 -117 -447 -206 -88 -32 -198 -75 -245 -97 -47
-22 -112 -47 -145 -55 -138 -34 -291 -129 -460 -283 -179 -163 -224 -211 -267
-276 -25 -38 -76 -107 -114 -154 -120 -147 -182 -253 -198 -341 -5 -31 -12
-37 -55 -53 -129 -46 -283 -183 -391 -347 -69 -105 -80 -147 -80 -303 l0 -113
-37 -24 c-52 -33 -90 -92 -109 -168 -20 -79 -14 -140 27 -303 33 -132 36 -183
13 -236 -37 -89 -105 -387 -111 -492 -10 -171 33 -303 126 -395 35 -33 41 -46
41 -80 0 -60 23 -155 70 -295 23 -69 51 -158 61 -199 38 -147 119 -269 319
-476 69 -71 159 -170 200 -220 242 -292 551 -523 880 -658 60 -25 119 -40 200
-51 63 -9 133 -19 155 -22 22 -3 188 -9 368 -14 181 -4 330 -10 332 -12 2 -2
-5 -49 -16 -103 -28 -136 -23 -204 24 -287 92 -165 221 -314 332 -387 39 -25
86 -58 106 -73 19 -15 65 -41 100 -57 62 -28 116 -41 382 -91 92 -17 129 -31
245 -89 75 -37 200 -105 276 -149 177 -103 285 -146 430 -172 146 -26 251 -26
352 0 150 39 240 91 382 223 88 81 196 154 381 256 77 43 96 50 106 39 6 -7
40 -60 75 -118 169 -281 296 -415 483 -508 137 -68 219 -91 365 -100 139 -9
166 -18 199 -70 64 -99 315 -403 546 -659 148 -164 601 -621 823 -829 165
-155 192 -170 304 -167 121 2 295 28 365 54 40 14 76 38 108 69 41 42 47 52
47 90 0 27 -10 60 -27 92 -29 53 -76 90 -205 161 -88 49 -120 77 -172 151 -46
64 -156 249 -151 254 1 1 68 -4 148 -13 169 -17 472 -20 602 -4 50 6 122 20
160 31 192 56 526 195 755 315 365 191 623 476 995 1098 43 72 90 148 105 170
39 57 103 188 135 275 79 220 95 492 40 698 l-13 51 32 -7 c17 -4 90 -7 161
-7 152 0 224 18 369 93 183 94 337 235 441 403 32 52 69 107 82 123 30 35 75
124 98 191 27 81 44 183 60 379 l16 185 -31 123 c-56 222 -92 316 -155 393
-30 37 -32 46 -37 135 -5 94 -25 168 -98 365 -12 33 -31 90 -41 126 -10 37
-40 102 -67 145 -27 44 -97 167 -157 274 -152 277 -288 477 -374 554 -15 14
-21 31 -21 60 0 117 -86 408 -146 497 -190 280 -436 565 -593 690 -196 155
-240 189 -297 227 -98 65 -129 100 -147 162 -47 162 -203 319 -543 548 -67 45
-149 107 -183 137 -72 64 -124 93 -241 130 -47 15 -120 38 -163 52 -59 19 -90
36 -130 72 -41 37 -82 60 -187 103 -324 133 -757 280 -877 298 -43 6 -188 33
-323 60 -135 27 -290 56 -345 65 -117 19 -474 28 -558 15z m408 -221 c61 -6
141 -16 179 -22 l68 -12 24 -83 c43 -150 119 -275 236 -390 67 -66 164 -139
231 -173 30 -16 44 -33 66 -82 32 -72 101 -272 200 -582 115 -363 210 -561
321 -674 76 -77 124 -110 315 -216 161 -89 201 -116 270 -178 49 -44 129 -163
140 -209 11 -45 -126 -357 -238 -543 -30 -49 -64 -120 -76 -156 -28 -86 -81
-172 -155 -255 -67 -75 -58 -74 -190 -19 -124 52 -234 73 -295 56 -140 -40
-257 -39 -456 3 -91 20 -121 23 -127 13 -9 -15 3 -20 138 -48 138 -30 362 -33
432 -6 53 20 145 10 244 -27 127 -48 158 -60 158 -66 0 -3 -52 -52 -116 -110
-117 -106 -211 -213 -260 -296 -14 -25 -52 -107 -84 -182 -143 -343 -220 -442
-369 -473 -46 -10 -74 -9 -157 5 -204 32 -429 16 -622 -45 -185 -59 -327 -139
-517 -292 -199 -160 -381 -263 -586 -331 -148 -49 -245 -67 -394 -73 -158 -7
-267 7 -423 52 -64 18 -135 36 -158 40 -36 5 -44 12 -72 58 -100 167 -120 380
-53 573 20 59 27 92 20 99 -14 14 -24 -5 -56 -100 -24 -72 -27 -95 -27 -225
-1 -158 13 -222 72 -334 15 -28 28 -54 30 -57 1 -3 -28 -9 -65 -13 -85 -9
-227 -56 -313 -103 -184 -103 -555 -378 -670 -499 -47 -49 -132 -152 -189
-229 -262 -352 -297 -394 -406 -481 -44 -35 -121 -84 -171 -109 -50 -24 -94
-52 -98 -60 -20 -52 8 -95 62 -95 44 0 178 66 262 129 108 81 216 203 404 455
98 131 212 273 254 315 118 118 514 402 657 471 166 80 284 88 475 32 180 -52
213 -57 410 -56 209 0 311 17 500 80 202 68 438 199 596 331 l60 51 12 -96
c16 -126 57 -240 128 -360 77 -130 125 -191 227 -289 l85 -81 -29 -35 c-40
-49 -105 -87 -256 -153 -79 -33 -133 -62 -133 -70 0 -8 3 -14 8 -14 10 0 232
95 284 121 23 12 68 46 99 76 l57 54 155 -120 c85 -66 194 -157 241 -202 47
-44 90 -78 96 -74 26 16 -101 133 -375 345 -209 162 -321 276 -405 411 -80
129 -125 238 -145 353 -27 155 -26 156 56 211 147 99 326 172 487 200 110 19
292 19 422 0 183 -28 308 11 425 131 l62 64 88 -51 c158 -91 187 -122 190
-204 1 -35 6 -50 16 -50 18 0 24 66 10 106 l-10 29 90 41 c49 23 89 45 89 50
0 21 -26 16 -109 -24 l-90 -44 -27 29 c-15 15 -74 55 -132 89 -75 44 -101 63
-94 72 19 23 94 181 153 320 32 77 75 165 95 196 37 55 139 161 347 359 152
145 228 253 273 393 10 29 40 90 67 134 56 93 153 290 195 396 96 242 176 550
197 756 16 162 99 316 296 549 52 62 104 137 125 179 33 67 35 75 23 101 -8
16 -26 33 -41 38 -38 13 -70 -11 -107 -81 -17 -32 -68 -101 -112 -153 -203
-239 -294 -412 -320 -607 -24 -181 -96 -500 -119 -526 -3 -4 -19 16 -35 45
-15 29 -65 89 -109 133 -64 63 -106 94 -199 145 -252 138 -291 164 -373 245
-73 72 -88 94 -151 220 -75 149 -121 273 -228 615 -66 214 -154 451 -178 480
-6 9 -43 34 -82 57 -203 120 -351 302 -414 507 -12 37 -21 72 -21 76 0 4 62
-5 138 -21 75 -16 203 -40 284 -54 106 -18 201 -43 340 -89 388 -130 647 -234
700 -281 l37 -34 -49 -45 c-27 -25 -53 -46 -59 -46 -17 0 -71 -51 -87 -83 -9
-16 -17 -51 -18 -77 l-1 -46 -75 -12 c-60 -9 -106 -27 -227 -87 -109 -54 -151
-80 -147 -90 7 -17 13 -15 159 61 240 126 360 126 711 1 293 -105 433 -179
541 -288 43 -43 55 -51 65 -40 11 10 1 23 -47 68 -121 114 -268 191 -550 291
-185 64 -291 92 -354 92 l-41 0 0 41 c0 61 25 104 81 138 26 17 66 46 87 66
l39 35 55 -24 c30 -13 104 -39 164 -57 150 -44 181 -59 248 -117 32 -28 122
-95 200 -148 342 -235 401 -296 471 -488 22 -62 109 -150 230 -234 229 -159
502 -399 490 -430 -6 -15 35 -181 102 -417 l45 -160 -18 -177 c-9 -98 -14
-181 -11 -185 17 -16 26 23 44 183 l19 172 -34 118 c-46 164 -112 417 -112
429 0 14 52 -50 186 -232 l121 -165 44 -136 c40 -127 43 -144 42 -236 l-2 -98
67 -72 c138 -146 194 -229 377 -556 76 -135 145 -256 155 -270 18 -25 114
-297 151 -425 15 -53 19 -90 16 -150 -5 -97 0 -113 63 -181 56 -62 77 -113
125 -295 29 -111 32 -136 26 -205 l-6 -79 -39 70 c-104 187 -255 392 -368 501
-168 161 -220 193 -348 214 -41 7 -78 14 -81 16 -4 2 11 58 32 125 26 78 42
148 46 200 4 57 10 79 20 79 21 0 274 181 267 191 -10 17 -24 9 -152 -80
l-127 -90 -22 65 c-42 123 -86 201 -253 440 -104 150 -123 182 -199 344 -47
101 -104 167 -186 215 -73 43 -131 61 -279 85 -65 10 -131 27 -157 40 -60 31
-160 135 -246 255 -39 55 -80 110 -92 122 l-21 22 159 101 c151 96 160 103
180 151 27 61 87 316 78 326 -15 14 -27 -16 -61 -155 -20 -78 -43 -156 -51
-172 -9 -17 -44 -48 -83 -72 -131 -82 -401 -266 -502 -343 -141 -107 -330
-273 -330 -291 0 -26 19 -15 92 52 143 132 491 396 502 382 2 -1 48 -64 103
-138 168 -228 249 -289 407 -310 252 -33 375 -107 453 -270 87 -184 111 -225
223 -385 122 -174 163 -242 214 -355 27 -59 30 -74 29 -170 0 -97 -3 -116 -44
-240 l-45 -135 -99 -28 c-189 -53 -441 -115 -670 -166 -126 -29 -237 -58 -245
-66 -12 -13 -12 -17 3 -32 15 -16 30 -14 234 31 256 57 473 111 671 167 141
40 145 40 215 29 40 -7 87 -18 105 -26 39 -16 155 -109 236 -190 152 -153 416
-567 416 -653 0 -46 -28 -169 -51 -219 -11 -26 -37 -69 -58 -97 -20 -27 -57
-84 -81 -125 -87 -148 -262 -293 -445 -369 -52 -22 -75 -25 -180 -26 -66 0
-132 3 -148 8 -27 7 -26 8 51 67 192 144 330 345 388 566 23 87 23 266 1 382
-21 114 -67 252 -84 252 -18 0 -17 -8 11 -92 58 -172 75 -398 41 -533 -56
-219 -189 -409 -393 -563 l-83 -62 -96 30 c-216 67 -472 110 -1012 170 -200
22 -405 47 -455 55 -64 10 -100 12 -126 5 -20 -5 -155 -70 -301 -144 -272
-138 -335 -164 -573 -237 l-139 -44 -71 78 c-63 68 -96 93 -96 70 0 -5 30 -42
65 -82 75 -85 77 -79 -42 -116 -172 -55 -329 -69 -452 -40 -108 26 -156 -4
-172 -107 -5 -30 -17 -61 -31 -75 -28 -30 -122 -58 -268 -78 -63 -9 -166 -25
-227 -36 -123 -20 -379 -51 -568 -69 -66 -6 -136 -13 -156 -16 -32 -5 -50 5
-190 96 -197 130 -266 169 -334 186 -72 19 -116 8 -218 -57 -87 -56 -183 -101
-262 -125 -56 -16 -69 -18 -370 -53 -278 -33 -364 -67 -446 -178 -154 -207
-345 -395 -576 -567 -51 -37 -93 -72 -93 -77 0 -23 39 -2 152 83 151 112 417
375 517 509 104 141 158 166 413 194 413 44 503 70 706 201 70 44 75 46 132
42 73 -5 148 -42 345 -171 l139 -92 -99 -11 -100 -12 -420 -214 c-594 -304
-747 -395 -887 -530 -119 -116 -253 -178 -383 -178 -63 0 -206 22 -265 41 -53
17 -201 93 -324 166 -130 77 -332 175 -407 197 -30 9 -119 28 -199 41 -80 14
-167 31 -193 39 -65 20 -266 156 -323 219 -69 77 -174 238 -174 267 0 14 10
68 21 120 11 52 21 126 21 163 0 62 6 81 70 225 259 582 447 848 769 1092 546
413 701 517 942 630 313 147 638 203 832 145 28 -9 88 -18 135 -21 76 -6 115
-2 223 22 l27 6 -51 -113 c-78 -173 -128 -303 -152 -392 -19 -74 -27 -87 -75
-133 -43 -41 -51 -53 -39 -62 10 -9 24 0 66 42 48 48 54 61 82 157 16 57 57
167 91 244 33 77 73 172 90 210 27 66 33 72 91 105 89 50 221 187 384 395 171
220 264 310 377 365 132 65 213 80 552 100 345 20 507 73 652 213 68 65 97
107 173 249 94 175 144 243 261 357 125 121 142 154 113 215 -19 39 -59 66
-97 66 -35 0 -74 -29 -189 -141 -115 -113 -194 -224 -294 -414 -84 -158 -158
-230 -278 -271 -44 -15 -48 -14 -136 15 -223 75 -410 207 -505 359 -37 59 -74
160 -84 225 -5 38 -12 53 -25 55 -15 3 -17 -2 -11 -40 11 -80 60 -205 108
-276 95 -143 268 -268 476 -343 l64 -23 -34 -8 c-19 -4 -114 -12 -210 -18
-355 -21 -464 -41 -609 -110 -116 -56 -190 -111 -300 -224 -51 -54 -94 -96
-96 -94 -7 9 -127 406 -149 493 -71 283 -59 584 34 834 88 239 286 564 434
713 29 29 86 103 126 163 157 236 262 351 374 407 38 19 144 52 276 85 292 73
312 80 308 106 -2 18 -9 22 -38 21 -63 -1 -505 -120 -574 -154 -118 -58 -243
-196 -416 -455 -30 -44 -88 -117 -131 -163 -201 -216 -413 -611 -469 -876 -68
-322 -48 -513 106 -1011 36 -115 67 -217 69 -225 6 -22 -219 -295 -290 -353
-116 -95 -226 -123 -360 -93 -155 36 -212 40 -354 28 -230 -21 -425 -75 -651
-184 l-125 -59 -39 43 c-73 82 -95 162 -61 227 8 16 65 71 126 122 163 136
231 223 266 343 13 45 32 68 168 201 134 132 155 157 174 208 27 75 27 108 -5
214 -37 122 -39 268 -5 332 28 54 57 81 128 121 67 38 132 104 190 192 68 105
169 328 208 461 72 245 196 439 297 466 147 38 218 188 152 320 -22 43 -26 61
-21 101 14 121 96 210 327 356 169 107 348 169 605 209 143 22 193 41 223 85
21 31 23 44 19 102 -3 47 -12 79 -30 110 -33 57 -93 113 -139 133 -36 15 -38
14 -38 -4 0 -11 9 -21 23 -25 72 -18 157 -143 157 -231 0 -64 -44 -110 -116
-120 -111 -16 -345 -66 -424 -91 -114 -35 -212 -85 -350 -176 -196 -129 -276
-227 -287 -349 -5 -48 -1 -66 21 -110 45 -92 31 -168 -45 -232 -24 -21 -61
-43 -84 -49 -119 -35 -241 -220 -319 -484 -40 -134 -144 -363 -212 -465 -53
-80 -125 -149 -190 -182 -62 -32 -97 -68 -126 -132 -35 -75 -32 -216 6 -348
32 -109 31 -140 -5 -215 -23 -47 -54 -81 -215 -232 -73 -68 -94 -95 -108 -135
-49 -140 -107 -216 -276 -358 -52 -43 -106 -97 -119 -119 -45 -74 -23 -173 58
-260 l40 -44 -67 -38 c-133 -77 -322 -207 -592 -410 -321 -242 -390 -301 -505
-439 -186 -221 -324 -460 -507 -877 -28 -63 -53 -118 -57 -122 -3 -3 -154 -3
-336 2 -403 10 -563 28 -683 76 -112 44 -295 150 -412 237 -112 84 -288 252
-374 357 -33 41 -125 142 -204 225 -156 162 -234 269 -258 355 -9 30 -38 123
-65 205 -67 208 -73 239 -58 302 16 70 2 102 -70 156 -72 55 -100 106 -108
194 -8 105 29 292 103 510 34 102 32 176 -12 358 -32 132 -35 155 -25 192 7
26 19 44 31 48 31 10 95 90 110 137 9 27 14 93 14 173 l1 130 62 86 c64 89
144 169 196 196 28 14 30 14 23 -3 -4 -11 -10 -49 -13 -85 -9 -110 11 -186 93
-346 82 -161 140 -248 208 -311 94 -86 152 -90 312 -22 153 65 222 64 308 -8
132 -109 250 -218 270 -250 39 -62 63 -143 76 -247 20 -165 38 -192 197 -286
187 -110 226 -157 277 -335 41 -140 86 -223 160 -291 57 -52 206 -143 235
-143 30 0 4 29 -51 57 -85 42 -182 114 -217 163 -36 49 -71 134 -111 266 -16
55 -43 119 -59 140 -32 45 -130 120 -236 182 -69 40 -123 88 -143 127 -5 11
-12 54 -16 95 -15 159 -79 316 -149 363 -12 8 -67 56 -122 106 -158 144 -241
170 -370 115 -141 -60 -199 -78 -236 -70 -51 9 -118 63 -177 142 -65 88 -188
331 -209 414 -18 74 -13 176 10 233 13 30 21 36 59 42 99 17 128 48 138 153
11 101 25 129 151 288 56 71 115 150 131 176 38 62 302 306 403 372 84 56 158
89 238 106 26 6 83 28 125 49 42 21 160 69 262 105 225 82 358 144 476 223
242 163 401 222 819 303 351 69 671 161 905 262 107 46 133 53 370 93 529 90
787 121 1105 130 l200 6 -59 -25 c-161 -69 -271 -225 -335 -478 -15 -57 -32
-92 -66 -140 -56 -75 -96 -151 -125 -239 -25 -72 -50 -212 -50 -276 0 -41 -2
-44 -102 -126 -117 -96 -197 -177 -224 -228 -15 -27 -19 -57 -20 -149 -1 -159
0 -155 -36 -195 -58 -66 -130 -93 -349 -128 -114 -18 -173 -22 -286 -19 l-141
3 -78 142 c-98 179 -156 272 -202 321 -36 37 -120 82 -342 181 -47 21 -96 47
-109 59 -34 30 -60 94 -67 163 l-6 59 118 188 c66 103 123 186 128 186 5 -1
12 3 15 9 10 15 343 174 431 204 348 122 615 197 765 217 86 12 152 34 185 62
44 36 65 98 35 98 -8 0 -15 -6 -15 -14 0 -20 -38 -65 -71 -81 -15 -8 -84 -24
-151 -36 -163 -27 -202 -37 -483 -125 -292 -92 -354 -116 -553 -213 l-157 -76
-50 18 c-71 25 -213 18 -315 -16 -343 -115 -406 -147 -449 -230 -23 -46 -23
-49 -11 -156 14 -123 7 -161 -38 -204 -50 -47 -205 -137 -434 -252 -350 -175
-513 -285 -587 -396 -50 -75 -65 -123 -65 -214 -1 -57 4 -80 27 -127 32 -65
101 -131 155 -149 76 -24 111 -76 147 -215 63 -242 111 -323 219 -363 69 -26
176 -29 176 -6 0 11 -12 15 -48 15 -71 0 -148 26 -190 65 -42 37 -90 148 -117
268 -25 110 -54 176 -96 218 -22 22 -46 39 -56 39 -30 0 -112 61 -142 106 -58
88 -62 204 -11 304 60 118 233 240 607 429 142 72 302 159 353 194 139 93 154
129 130 301 -23 159 22 201 340 309 184 63 270 77 363 58 31 -7 57 -14 57 -17
0 -2 -55 -90 -121 -195 l-122 -191 6 -71 c7 -81 44 -167 85 -195 15 -11 114
-59 220 -108 211 -96 224 -106 304 -234 49 -78 181 -320 177 -323 -2 -2 -33
-9 -68 -16 -125 -24 -211 -88 -259 -193 -15 -32 -30 -58 -35 -58 -4 0 -25 11
-46 25 -93 62 -220 86 -348 66 -92 -14 -281 -78 -398 -135 -149 -71 -232 -131
-343 -245 -109 -112 -151 -181 -203 -332 -22 -64 -23 -72 -12 -181 11 -105 16
-126 71 -254 37 -87 66 -140 76 -142 9 -2 16 -1 16 2 0 2 -24 62 -54 133 -69
162 -75 185 -77 313 -2 103 -1 107 38 196 52 118 82 160 190 266 133 130 270
211 483 286 167 59 193 64 306 63 114 -1 156 -13 244 -66 l58 -35 -10 -43
c-10 -40 -5 -233 11 -452 13 -189 -16 -342 -113 -598 -30 -78 -75 -196 -100
-262 -83 -215 -109 -337 -126 -589 -11 -158 -4 -340 21 -563 12 -102 12 -103
39 -103 15 0 29 2 31 5 3 2 -1 48 -8 102 -20 151 -28 530 -14 653 25 219 44
288 176 631 160 413 176 507 149 846 -14 181 -16 236 -6 296 16 102 46 178 88
221 79 81 167 102 398 93 141 -5 179 -3 311 18 219 35 309 69 377 141 48 52
58 91 56 222 -3 113 -2 120 23 158 35 53 69 86 204 199 l112 94 7 88 c14 183
77 363 168 474 39 47 49 71 72 158 62 241 172 393 317 435 41 12 44 15 41 45
l-4 32 44 -5 c24 -3 79 -8 123 -12 44 -3 107 -13 140 -21 97 -25 246 -13 450
35 94 23 186 43 205 45 75 8 260 6 365 -4z m2523 -6116 l123 -17 -138 -32
c-283 -66 -430 -124 -1128 -444 -203 -92 -223 -104 -208 -113 8 -5 85 28 403
175 511 237 800 341 1066 384 102 17 116 17 283 0 299 -30 298 -21 10 -92
-140 -35 -301 -70 -359 -79 -227 -36 -493 -114 -675 -199 -125 -59 -227 -125
-305 -201 -84 -80 -163 -131 -325 -209 -195 -95 -288 -172 -395 -331 -71 -106
-200 -371 -200 -412 0 -34 20 -4 59 90 82 194 165 330 265 435 85 89 131 121
296 202 166 83 233 126 312 204 175 171 546 325 928 387 69 11 242 49 385 84
335 83 341 83 450 68 156 -22 367 -65 358 -73 -10 -9 -310 -57 -408 -65 -146
-12 -235 -36 -510 -135 -287 -104 -351 -120 -500 -130 -201 -13 -313 -53 -569
-203 -143 -83 -188 -117 -158 -117 6 0 68 34 139 77 265 158 407 210 593 218
126 5 232 33 515 136 237 85 355 116 494 129 58 5 185 23 281 40 96 16 186 30
200 30 28 0 140 -32 140 -40 0 -9 -112 -67 -170 -89 -254 -92 -474 -139 -1005
-216 -419 -60 -494 -80 -790 -218 -327 -151 -395 -181 -512 -223 -217 -77
-317 -138 -443 -270 -81 -86 -130 -153 -179 -252 -46 -91 -53 -112 -38 -112 6
0 31 39 54 88 55 114 118 199 214 292 104 101 203 158 389 226 85 31 261 106
390 166 376 177 505 221 735 252 251 34 597 88 695 107 267 53 532 138 643
206 l37 23 10 -24 c15 -41 40 -185 40 -236 l0 -47 -107 -51 c-132 -62 -293
-119 -376 -132 -34 -5 -179 -23 -322 -40 -143 -17 -327 -42 -410 -56 -331 -55
-403 -81 -741 -262 -247 -132 -323 -168 -414 -193 -170 -47 -397 -150 -633
-288 -65 -38 -105 -67 -99 -73 5 -5 63 22 143 68 191 111 383 200 528 246 175
56 255 92 498 225 224 121 362 181 478 206 123 28 355 65 528 87 492 60 496
60 615 101 63 22 159 61 213 87 l99 48 0 -57 c0 -167 -93 -447 -200 -604 -15
-22 -69 -110 -120 -195 -116 -194 -268 -418 -361 -535 -127 -159 -297 -322
-429 -412 -122 -83 -465 -245 -706 -334 -182 -67 -266 -87 -419 -100 l-132
-11 -239 61 c-403 102 -554 158 -739 274 -148 92 -299 220 -502 424 -106 106
-195 193 -198 193 -20 0 10 -39 108 -139 476 -487 684 -613 1246 -756 95 -24
176 -47 179 -49 16 -16 -470 40 -556 64 -163 45 -356 145 -530 274 -142 106
-389 354 -536 541 -66 83 -136 170 -156 195 -120 147 -171 278 -199 519 -10
77 -9 95 2 105 8 6 62 75 121 152 119 158 93 141 245 160 l54 6 -61 -74 c-95
-117 -169 -233 -202 -320 -37 -96 -54 -178 -40 -192 10 -10 9 -13 34 89 23 99
83 215 170 331 131 173 129 171 224 187 45 8 82 12 82 10 0 -2 -17 -30 -39
-61 -174 -257 -317 -561 -337 -718 -10 -74 13 -43 36 49 44 177 134 364 297
617 l81 125 53 7 c30 3 56 4 58 2 3 -2 -7 -17 -21 -32 -65 -71 -143 -218 -192
-362 -36 -109 -148 -541 -141 -548 13 -13 26 24 75 218 88 345 148 502 246
635 68 94 77 102 116 108 l36 5 -34 -57 c-85 -142 -162 -388 -208 -663 -34
-203 -41 -268 -28 -268 12 0 11 -4 47 225 44 279 92 449 175 620 61 126 79
148 132 164 24 7 62 23 86 36 50 28 54 20 11 -21 -118 -111 -214 -323 -254
-554 -29 -173 -45 -448 -26 -436 5 4 12 41 15 84 25 312 42 419 90 564 46 136
111 239 244 381 61 66 112 124 112 129 0 14 -13 9 -38 -14 l-24 -23 13 28 c12
27 12 27 118 27 96 0 148 5 251 26 27 5 9 -10 -85 -71 -311 -200 -415 -323
-490 -581 -37 -126 -104 -453 -95 -459 14 -9 18 5 56 186 48 231 76 326 129
436 73 151 189 256 477 437 122 77 157 93 310 145 95 33 201 67 235 75 106 28
270 99 503 219 124 64 232 117 240 117 8 0 70 -7 138 -17z m-2834 -880 c-109
-146 -169 -222 -171 -215 -1 4 -11 50 -22 102 -10 52 -22 102 -26 111 -5 14 6
18 77 27 46 5 103 10 127 11 l43 1 -28 -37z m-293 -20 c16 -43 36 -151 44
-233 20 -238 54 -381 116 -502 l42 -79 -30 -42 c-38 -53 -142 -133 -227 -175
-78 -39 -142 -42 -242 -11 -202 62 -370 187 -503 374 -84 117 -195 305 -185
315 5 4 161 84 346 178 l338 171 117 14 c174 21 172 21 184 -10z m328 -974
c272 -353 503 -583 746 -744 171 -113 349 -194 505 -230 l75 -18 85 -145 c105
-180 176 -256 303 -325 136 -75 187 -128 187 -196 0 -41 -66 -96 -145 -120
-34 -11 -127 -27 -207 -36 -164 -18 -199 -14 -261 32 -59 45 -242 220 -516
494 -415 414 -725 763 -958 1079 -36 48 -61 71 -100 90 l-52 26 46 28 c71 46
147 111 173 150 29 41 15 51 119 -85z"/>
<path d="M5174 9180 c-112 -91 -127 -107 -193 -212 -40 -62 -104 -176 -143
-253 -66 -132 -76 -146 -176 -247 -84 -85 -104 -110 -94 -120 10 -10 33 8 113
87 95 94 105 108 170 238 74 147 194 348 231 388 13 13 73 64 135 113 102 80
124 107 90 105 -7 0 -66 -45 -133 -99z"/>
<path d="M4136 8943 c-3 -3 -6 -17 -6 -29 0 -41 -45 -128 -99 -189 -60 -68
-82 -107 -105 -184 -17 -59 -21 -141 -7 -141 5 0 12 24 16 53 14 112 39 166
122 262 48 55 87 130 97 187 6 34 -3 56 -18 41z"/>
<path d="M2600 8814 c-84 -64 -124 -81 -232 -103 -107 -23 -254 -105 -372
-210 -75 -66 -136 -89 -322 -122 -91 -16 -186 -39 -212 -51 -100 -47 -190
-169 -200 -269 -7 -77 5 -113 64 -191 38 -50 61 -94 76 -141 11 -38 35 -87 52
-110 31 -41 123 -110 139 -104 20 6 7 25 -45 59 -65 43 -90 79 -118 170 -11
36 -33 82 -50 104 -70 92 -83 115 -88 163 -7 74 20 141 84 210 70 76 119 97
314 131 181 32 248 57 306 110 116 107 275 199 382 221 96 19 138 36 199 77
90 63 129 99 118 110 -7 7 -38 -11 -95 -54z"/>
<path d="M9393 8611 c-81 -54 -177 -119 -212 -144 -61 -43 -66 -45 -160 -51
-153 -11 -191 -17 -191 -32 0 -17 24 -17 185 -1 l120 13 130 91 c72 50 167
114 213 143 45 29 82 58 82 66 0 8 -4 14 -9 14 -5 0 -76 -44 -158 -99z"/>
<path d="M3199 8588 c-7 -17 -47 -77 -89 -133 -102 -135 -113 -164 -104 -271
7 -92 -3 -133 -40 -157 -31 -21 -117 -37 -197 -37 -85 0 -124 -16 -175 -72
-61 -68 -100 -177 -130 -362 -10 -60 -11 -93 -4 -100 5 -5 12 -7 15 -4 3 3 14
56 24 119 22 133 57 241 100 302 48 70 70 80 197 88 131 8 192 30 224 81 19
29 21 43 16 128 -6 116 4 144 97 264 77 99 92 123 101 159 9 39 -18 36 -35 -5z"/>
<path d="M7277 8573 c-4 -3 28 -43 71 -87 174 -182 252 -363 252 -583 0 -85 3
-103 15 -103 12 0 15 19 15 108 0 225 -87 426 -261 601 -69 70 -79 77 -92 64z"/>
<path d="M4390 7331 c0 -4 13 -37 29 -72 84 -188 124 -406 88 -491 -13 -32
-14 -37 -1 -42 45 -17 59 172 24 310 -36 140 -104 304 -126 304 -8 0 -14 -4
-14 -9z"/>
<path d="M3274 7045 c3 -8 32 -54 64 -102 33 -49 66 -101 74 -118 43 -84 60
-380 33 -560 -22 -147 -17 -386 14 -615 12 -85 21 -156 21 -157 0 -2 7 -3 15
-3 19 0 19 -4 -5 170 -30 210 -36 460 -16 582 27 164 17 445 -20 558 -19 58
-152 260 -171 260 -9 0 -13 -6 -9 -15z"/>
<path d="M5689 6725 c-7 -6 26 -350 46 -490 19 -129 32 -185 45 -185 17 0 18
15 4 80 -16 76 -50 363 -60 503 -6 89 -15 112 -35 92z"/>
<path d="M9940 6692 c0 -5 40 -66 90 -137 159 -227 148 -201 175 -396 14 -95
22 -176 17 -180 -4 -4 -54 -26 -112 -49 -161 -64 -400 -172 -400 -181 0 -21
27 -14 141 37 134 60 364 154 378 154 25 0 31 -362 7 -470 -7 -36 -39 -149
-69 -251 -68 -228 -86 -315 -98 -489 -6 -74 -13 -165 -15 -202 -6 -75 11 -127
61 -186 34 -40 58 -53 176 -93 178 -59 304 -39 421 66 64 57 181 131 261 163
93 38 163 51 263 52 117 0 178 19 239 72 52 46 95 124 95 173 0 43 -28 167
-40 179 -20 20 -22 -5 -6 -88 14 -66 15 -93 6 -125 -15 -58 -67 -120 -125
-150 -42 -21 -64 -26 -145 -28 -121 -2 -164 -9 -248 -37 -115 -40 -220 -101
-329 -193 -76 -64 -124 -83 -215 -83 -60 0 -99 7 -170 31 -124 40 -160 65
-193 133 -23 47 -26 64 -21 113 2 32 9 119 15 193 12 169 36 286 107 520 76
254 91 362 76 550 -15 185 -67 541 -83 572 -31 59 -233 338 -245 338 -8 0 -14
-4 -14 -8z"/>
<path d="M10858 6545 c-55 -20 -119 -67 -169 -123 -47 -52 -53 -61 -173 -245
-77 -118 -114 -153 -183 -178 -18 -6 -33 -17 -33 -25 0 -20 17 -17 75 10 63
29 114 86 204 229 95 152 148 217 212 259 206 135 349 39 400 -270 6 -37 14
-134 18 -217 7 -171 24 -199 29 -48 8 273 -54 501 -161 587 -34 27 -47 31
-110 33 -44 2 -87 -3 -109 -12z"/>
<path d="M944 6284 l-117 -52 -45 -84 -44 -83 6 -105 c13 -215 58 -357 150
-475 85 -109 127 -176 181 -283 66 -133 78 -176 69 -252 -6 -50 -4 -60 9 -60
21 0 33 111 17 169 -28 107 -145 313 -246 438 -89 109 -136 254 -150 463 l-6
95 40 75 40 75 108 49 108 49 136 -21 c157 -26 170 -26 170 -9 0 9 -48 21
-154 38 l-154 25 -118 -52z"/>
<path d="M7846 5890 c-62 -130 -122 -199 -173 -202 -59 -3 -70 -4 -135 -12
-79 -10 -189 3 -367 44 -90 20 -128 25 -133 17 -4 -6 -5 -13 -3 -15 2 -2 73
-20 157 -40 140 -33 165 -36 303 -35 84 0 169 6 194 12 66 19 119 81 185 216
31 63 56 117 56 119 0 2 -6 6 -13 9 -9 3 -32 -33 -71 -113z"/>
<path d="M1102 5888 c-10 -12 1 -28 61 -90 84 -88 129 -116 253 -157 89 -29
92 -29 169 -16 84 15 103 11 129 -27 24 -34 19 -75 -15 -124 -68 -99 -150
-321 -149 -403 1 -20 11 -80 23 -135 l23 -98 123 -149 c107 -131 141 -162 141
-130 0 5 -47 66 -105 136 -58 70 -112 136 -119 148 -8 12 -24 68 -36 124 -19
90 -20 109 -10 160 20 94 69 217 121 305 55 91 61 131 29 183 -29 46 -66 60
-130 46 -76 -16 -119 -14 -198 13 -117 40 -183 86 -262 185 -30 37 -37 41 -48
29z"/>
<path d="M9067 5603 c-15 -14 -4 -22 61 -44 206 -68 361 -192 402 -323 7 -22
10 -62 7 -91 -7 -69 -31 -115 -148 -287 -27 -39 -35 -59 -27 -64 7 -4 23 6 39
26 39 46 139 213 155 258 19 54 17 134 -6 194 -23 62 -23 58 -10 58 25 0 345
150 345 162 0 7 -7 12 -15 10 -20 -5 -332 -142 -345 -153 -7 -5 -22 6 -39 27
-59 75 -204 164 -340 210 -80 28 -71 26 -79 17z"/>
<path d="M3160 5048 c-120 -48 -130 -50 -265 -59 -272 -18 -879 -92 -899 -110
-26 -23 21 -23 201 3 268 37 432 55 658 72 189 14 191 14 310 62 133 52 137
54 127 71 -5 7 -45 -4 -132 -39z"/>
<path d="M7765 4720 c-4 -6 16 -36 43 -68 27 -31 91 -111 144 -177 117 -149
168 -198 236 -232 l53 -26 247 6 c265 7 543 29 657 53 120 25 439 120 443 132
7 21 -37 13 -197 -34 -85 -25 -194 -54 -241 -64 -141 -30 -520 -60 -765 -60
-199 0 -227 16 -376 204 -146 184 -223 276 -231 276 -4 0 -10 -5 -13 -10z"/>
<path d="M5309 4093 c-68 -176 -2 -357 185 -507 93 -75 236 -140 236 -108 0 5
-44 30 -97 57 -170 84 -287 223 -315 373 -10 52 -9 71 7 129 21 76 21 76 6 81
-6 2 -16 -9 -22 -25z"/>
<path d="M1820 4091 c-105 -20 -237 -89 -304 -160 -22 -23 -27 -34 -18 -43 8
-8 25 2 67 40 132 121 318 166 530 128 116 -21 176 -41 302 -101 104 -49 123
-55 123 -34 0 21 -203 111 -325 145 -99 28 -292 40 -375 25z"/>
<path d="M11330 3318 c-390 -171 -464 -190 -875 -218 -432 -29 -535 -53 -775
-178 -74 -39 -227 -109 -340 -155 -431 -178 -553 -239 -681 -338 -76 -59 -189
-171 -189 -187 0 -8 30 14 68 49 197 186 286 235 922 499 138 57 218 96 300
145 128 75 345 120 690 140 245 14 431 42 555 82 73 23 448 184 463 198 33 30
-12 18 -138 -37z"/>
<path d="M8935 3164 c-36 -29 -198 -110 -310 -154 -237 -94 -331 -173 -420
-353 -62 -126 -172 -474 -155 -491 11 -11 8 -22 71 189 123 414 195 500 534
640 171 70 335 162 335 187 0 15 -25 7 -55 -18z"/>
<path d="M11340 2964 c-203 -98 -299 -122 -620 -154 -113 -11 -250 -27 -305
-35 -169 -24 -362 -97 -755 -285 -474 -226 -649 -296 -862 -344 -56 -13 -104
-28 -106 -34 -5 -17 10 -15 128 13 206 50 380 118 751 296 447 213 680 305
834 328 39 6 162 20 273 31 242 24 299 32 424 64 91 23 368 142 368 158 0 17
-40 5 -130 -38z"/>
<path d="M11390 2830 c-116 -64 -362 -115 -625 -130 -307 -17 -506 -69 -817
-211 -188 -86 -212 -99 -200 -111 6 -6 40 6 99 35 323 163 634 255 868 257
102 2 304 25 420 50 137 28 315 96 315 120 0 15 -21 11 -60 -10z"/>
<path d="M11205 2613 c-134 -9 -375 -37 -503 -58 -214 -37 -512 -115 -512
-136 0 -14 17 -11 122 21 122 36 340 84 481 104 141 21 404 46 479 46 45 0 58
3 58 15 0 15 -7 16 -125 8z"/>
<path d="M10825 2419 c-178 -9 -225 -15 -225 -30 0 -7 38 -7 113 -2 61 4 185
8 275 7 89 0 162 3 162 7 0 20 -133 27 -325 18z"/>
<path d="M10107 2379 c-142 -12 -273 -45 -594 -149 -286 -94 -420 -129 -540
-145 -36 -5 -53 -11 -53 -21 0 -10 8 -13 23 -10 12 3 54 10 92 16 111 18 203
43 511 144 386 126 459 140 689 140 206 1 221 -2 492 -85 171 -52 202 -59 278
-59 47 0 85 4 85 9 0 5 -42 12 -92 16 -69 5 -138 20 -268 60 -228 69 -258 75
-359 81 -47 2 -106 6 -131 8 -25 1 -85 -1 -133 -5z"/>
<path d="M10120 2114 c-149 -11 -332 -36 -389 -54 -126 -40 -239 -51 -494 -49
-152 0 -243 -3 -245 -9 -2 -6 70 -12 190 -17 260 -9 404 5 588 58 155 45 641
61 930 32 278 -29 266 -28 254 -16 -22 23 -299 51 -544 55 -129 2 -260 2 -290
0z"/>
<path d="M8130 2051 c0 -16 281 -194 406 -257 219 -111 348 -144 569 -144 249
0 534 30 875 91 288 52 474 48 688 -14 45 -13 85 -20 88 -15 14 22 -191 75
-333 86 -138 10 -278 -1 -473 -36 -411 -75 -839 -108 -1021 -78 -186 30 -395
123 -643 286 -134 88 -156 99 -156 81z"/>
<path d="M8010 2002 c0 -17 204 -187 305 -254 182 -122 342 -188 503 -208 48
-7 134 -20 192 -31 253 -46 418 -45 579 6 218 69 655 74 924 11 58 -14 89 -4
43 13 -95 37 -390 66 -582 58 -177 -8 -261 -20 -399 -60 -103 -30 -120 -32
-265 -31 -116 0 -183 6 -265 22 -60 12 -153 26 -205 33 -231 27 -451 140 -712
363 -91 79 -118 96 -118 78z"/>
<path d="M8474 1999 c-13 -21 243 -105 422 -138 166 -32 272 -41 464 -41 249
0 423 22 660 83 114 29 138 32 275 31 98 0 202 -8 300 -22 200 -28 208 -29
212 -16 4 11 -302 56 -459 68 -88 7 -219 -9 -338 -40 -470 -122 -968 -108
-1403 40 -70 24 -130 40 -133 35z"/>
<path d="M7850 1962 c0 -24 280 -247 404 -321 121 -73 208 -112 386 -170 191
-62 310 -94 460 -123 107 -20 150 -22 588 -26 301 -2 472 0 472 6 0 6 -172 12
-457 15 -501 5 -536 9 -803 77 -291 74 -518 166 -688 277 -84 56 -281 212
-316 252 -19 21 -46 29 -46 13z"/>
<path d="M7880 1797 c194 -190 280 -251 505 -362 105 -51 240 -111 300 -133
225 -82 523 -140 825 -162 188 -13 370 -13 370 0 0 6 -1 10 -2 10 -2 1 -103 5
-225 10 -516 22 -832 93 -1207 272 -255 121 -310 159 -532 366 -79 72 -149
132 -156 132 -7 -1 48 -60 122 -133z"/>
<path d="M7606 1902 c-7 -11 204 -218 354 -347 420 -363 894 -537 1500 -548
84 -1 136 2 138 8 1 6 -30 11 -75 12 -444 13 -791 88 -1080 234 -236 120 -391
233 -627 457 -61 59 -132 126 -157 150 -26 24 -49 39 -53 34z"/>
</g>
</svg>
