<svg xmlns="http://www.w3.org/2000/svg" xmlns:xlink="http://www.w3.org/1999/xlink" version="1.1" x="0px" y="0px" viewBox="0 0 100 125" enable-background="new 0 0 100 100" xml:space="preserve"><path d="M57.3,11.973c0.331,0.244,1.45-0.087,2.346-0.354c1.855-0.55,4.395-1.3,6.583,0.335c1.204,0.902,1.494,0.842,2.013,0.733  c0.966-0.197,2.013-0.288,4.19,0.813c2.583,1.307,3.575,3.562,4.232,5.055c0.219,0.497,0.55,1.25,0.739,1.361  c1.034-0.171,1.996,0.071,2.826,0.534c0.559-0.64,1.519-1.461,2.822-1.536c1.487-0.07,2.927,0.802,4.28,2.635  c0.355,0.481,1.121,0.867,1.955,1.207c-1.403-2.323-3.201-4.55-5.434-5.787c-2.638-1.461-3.34-2.189-3.904-2.774  c-0.685-0.708-1.198-1.18-3.039-1.92c-0.578-0.232-1.26-0.512-2.008-0.818c-5.133-2.101-9.903-4.006-11.881-4.238  c-1.333-0.157-3.017-0.084-4.647-0.012c-0.419,0.018-0.823,0.035-1.214,0.048c-0.011,0.124-0.043,0.249-0.103,0.366  C57.041,7.651,55.537,10.68,57.3,11.973z"/><path d="M90.44,38.354c-0.178-1.497-0.671-2.563-1.468-3.169c-0.944-0.716-2.025-0.569-2.035-0.571  c-0.539,0.084-1.044-0.287-1.128-0.827c-0.083-0.54,0.287-1.045,0.827-1.128c0.077-0.013,1.914-0.278,3.533,0.95  c1.24,0.944,1.993,2.461,2.236,4.511c0.265,2.226,0.939,3.151,1.458,3.534c0.162,0.12,0.311,0.183,0.446,0.227  c0.575-1.011,0.912-2.536,0.261-4.764c-0.5-1.708-0.729-2.906-0.914-3.869c-0.19-0.994-0.327-1.712-0.657-2.386  c-0.073-0.15-0.188-0.462-0.352-0.892c-0.393-1.037-1.028-2.708-1.915-4.54c-0.389-0.161-0.78-0.305-1.041-0.402  c-1.449-0.534-3.093-1.141-3.952-2.306c-0.641-0.866-1.62-1.852-2.575-1.834c-0.597,0.034-1.097,0.469-1.415,0.828  c0.389,0.469,0.704,0.985,0.905,1.515c0.786,2.07,0.117,4.091-1.746,5.274c-0.987,0.626-2.241,0.974-3.627,0.974  c-2.577,0-5.617-1.201-8.272-4.052c-0.373-0.4-0.351-1.026,0.049-1.398c0.399-0.373,1.026-0.352,1.398,0.049  c3.35,3.595,7.263,4.109,9.391,2.756c1.498-0.949,1.169-2.345,0.957-2.901c-0.452-1.193-1.734-2.304-3.093-2.077  c-1.639,0.269-2.288-1.206-2.859-2.506c-0.608-1.381-1.363-3.1-3.313-4.086c-1.739-0.879-2.327-0.758-2.899-0.641  c-0.985,0.206-1.82,0.245-3.598-1.087c-1.389-1.042-3.141-0.523-4.834-0.022c-1.519,0.449-2.956,0.875-4.077,0.052  c-2.537-1.859-1.567-5.093-1.063-6.341c-0.025-0.003-0.061-0.003-0.085-0.007c-1.081-0.15-2.583,0.118-4.037,0.379  c-1.121,0.201-2.28,0.408-2.913,0.351c-0.228-0.02-0.489-0.051-0.78-0.086c-1.326-0.156-3.313-0.385-5.927-0.174  c1.306,1.002,1.956,2.202,2.311,2.863c0.032,0.06,0.061,0.114,0.086,0.161c0.343,0.109,0.696-0.012,1.359-0.286  c0.825-0.343,1.953-0.808,3.168-0.052c1.063,0.664,1.297,1.672,1.485,2.481c0.185,0.801,0.332,1.432,1.178,1.958  c0.666,0.411,1.235,1.037,1.839,1.699c1.705,1.873,3.47,3.809,7.907,2.329c0.519-0.175,1.078,0.107,1.251,0.625  c0.173,0.518-0.106,1.078-0.625,1.251c-1.305,0.436-2.448,0.618-3.455,0.618c-3.36,0-5.211-2.031-6.54-3.49  c-0.508-0.557-0.988-1.084-1.419-1.351c-1.545-0.957-1.845-2.249-2.063-3.191c-0.172-0.741-0.269-1.04-0.605-1.25  c-0.305-0.19-0.579-0.125-1.363,0.2c-0.822,0.341-1.947,0.808-3.215,0.134c-0.345-0.183-0.506-0.483-0.73-0.899  c-0.507-0.945-1.455-2.664-4.098-3.274c-1.892,0.415-3.135,0.961-4,1.49c1.275,0.284,2.687,0.845,3.659,1.951  c1.346,1.531-0.137,3.143-1.023,4.106c-0.342,0.371-1.053,1.144-1.035,1.406c0.001,0,0.037,0.079,0.223,0.212  c0.632,0.45,1.867,0.052,3.106-0.442c2.072-0.828,5.032-0.708,6.98,1.417c0.27,0.295,0.567,0.515,0.881,0.652  c3.507,1.532,4.7,4.22,3.356,7.569c-0.126,0.314-0.094,0.428-0.093,0.429c0.175,0.326,1.85,0.531,2.654,0.629  c1.501,0.184,3.053,0.373,4.155,1.117c2.607,1.76,5.511,8.482,3.904,12.825c-0.83,2.248-0.631,3.034-0.567,3.197  c0.36,0.264,0.508,0.748,0.329,1.178c-0.158,0.381-0.526,0.609-0.914,0.609c-0.127,0-0.255-0.024-0.38-0.075  c-0.623-0.259-1.903-1.322-0.325-5.595c1.23-3.322-1.136-9.136-3.156-10.499c-0.708-0.478-2.078-0.645-3.287-0.793  c-1.763-0.214-3.428-0.417-4.119-1.586c-0.36-0.609-0.374-1.339-0.04-2.171c0.947-2.36,0.234-3.908-2.313-5.021  c-0.569-0.249-1.089-0.628-1.546-1.127c-1.311-1.43-3.35-1.489-4.787-0.917c-1.638,0.654-3.509,1.265-4.985,0.218  c-0.628-0.445-0.979-0.99-1.046-1.618c-0.12-1.142,0.727-2.062,1.547-2.953c0.341-0.371,1.051-1.143,1.034-1.405  c-1.279-1.46-4.023-1.654-5.041-1.613c-2.06,0.642-7.586,2.597-9.744,5.696c-2.146,1.444-6.551,7.892-6.596,7.96  c-0.474,0.71-1.275,2.236-2.124,3.851c-0.877,1.67-1.784,3.396-2.282,4.132C9.149,34.628,7.8,38.399,7.201,40.16  c0.079,0.189,0.15,0.381,0.215,0.563c0.369,1.029,0.553,1.341,0.811,1.301c0.656-0.125,0.815-0.467,1.062-2.288  c0.211-1.559,0.474-3.498,1.929-5.368c2.969-3.82,5.746-3.946,8.082-3.518c0.042-0.476-0.12-1.46-0.223-2.087  c-0.162-0.978-0.315-1.902-0.219-2.646c0.354-2.758,3.762-6.549,6.287-6.993c1.082-0.192,1.965,0.218,2.43,1.119  c0.79,1.53,1.606,1.821,1.779,1.867l0.053-0.002c5.055-0.213,10.385-0.055,11.606,2.766c0.359,0.832,0.785,1.17,1.375,1.637  c0.963,0.764,2.163,1.715,2.955,4.867c0.723,2.877,0.572,4.92-0.451,6.292C44.229,38.562,43.244,39,42.045,39  c-0.014,0-0.029,0-0.043,0c-0.526,0-0.964-0.302-0.987-0.833c-0.024-0.546,0.4-0.951,0.946-0.974  c0.592-0.026,1.045-0.215,1.346-0.619c0.632-0.848,0.674-2.517,0.119-4.725c-0.629-2.502-1.424-3.125-2.266-3.794  c-0.659-0.522-1.404-1.11-1.962-2.397c-0.56-1.296-3.829-1.827-9.705-1.575l-0.159,0.008c-0.018,0.002-0.036-0.007-0.054-0.007  c-0.016,0-0.029,0.007-0.044,0.007c-0.2-0.012-1.998-0.191-3.417-2.939c-0.039-0.073-0.065-0.125-0.329-0.08  c-1.573,0.278-4.401,3.219-4.667,5.297c-0.059,0.457,0.083,1.316,0.208,2.073c0.266,1.607,0.516,3.126-0.338,3.957  c-0.287,0.279-0.803,0.577-1.64,0.418c-1.731-0.335-3.789-0.423-6.271,2.766c-1.127,1.449-1.342,3.027-1.53,4.42  c-0.226,1.664-0.482,3.552-2.652,3.965C8.428,44,8.27,44.015,8.119,44.015c-0.92,0-1.512-0.562-1.916-1.206  c-0.622,1.573-1.325,3.703-1.275,6.486c0.602-0.022,1.394,0.126,2.187,1.18C7.441,50.908,8.206,51,9.029,51c0.014,0,0.029,0,0.044,0  c0.868,0,1.612-0.135,1.989-0.663c0.331-0.465,0.661-1.223,1.009-2.131c1.001-2.605,2.522-6.483,6.442-5.583  c0.532,0.124,0.864,0.679,0.741,1.212c-0.124,0.532-0.656,0.877-1.187,0.753c-2.083-0.488-3.038,1.53-4.149,4.419  c-0.395,1.029-0.769,1.817-1.247,2.487C11.919,52.548,10.617,53,9.097,53c-0.023,0-0.046,0-0.07,0c-1.458,0-2.791-0.388-3.493-1.32  c-0.188-0.25-0.336-0.385-0.455-0.445c0.143,1.037,0.389,2.142,0.779,3.334c0.246,0.754,0.475,1.465,0.69,2.138l0.001-0.002  c0.584-0.35,1.578-0.629,2.984,0.019c0.496,0.228,0.714,0.815,0.485,1.311c-0.227,0.496-0.813,0.713-1.312,0.485  C8.209,58.29,7.824,58.249,7.567,58.4c-0.134,0.079-0.25,0.21-0.35,0.367c1.43,4.338,2.517,6.797,5.092,7.617  c0.819,0.261,1.51,0.339,2.135,0.356c0.478-0.565,1.91-1.551,5.51,0.21c1.851,0.91,3.961,0.13,6.194-0.692  c0.048-0.018,0.097-0.035,0.145-0.052c-0.974-1.089-2.86-3.639-2.077-6.395c0.012-0.041,0.04-0.07,0.056-0.108  c0.016-0.038,0.017-0.078,0.038-0.114c0.113-0.197,0.271-0.708,0.411-1.158c0.459-1.477,0.978-3.15,2.291-3.584  c0.949-0.315,2.234-0.051,3.724,0.254c1.461,0.298,3.672,0.752,4.031,0.007c0.319-0.663,0.344-2.436,0.236-3.355  c-0.689-0.668-1.37-1.401-2.061-2.145c-0.645-0.695-1.305-1.407-1.995-2.087c-0.203-0.2-0.388-0.402-0.563-0.605  c-0.612,2.122-1.985,4.85-5.473,4.85c-0.977,0-1.899-0.269-2.79-0.527c-1.349-0.394-2.512-0.733-3.731-0.185  c-0.207,0.093-0.339,0.243-0.428,0.488c-0.442,1.215,0.433,3.823,1.089,5.182c0.238,0.492,0.031,1.084-0.46,1.321  c-0.139,0.067-0.286,0.099-0.431,0.099c-0.367,0-0.72-0.206-0.891-0.558c-0.211-0.436-2.037-4.327-1.167-6.719  c0.271-0.746,0.782-1.305,1.478-1.617c1.88-0.846,3.589-0.348,5.093,0.09c0.793,0.231,1.543,0.449,2.238,0.449  c2.63,0,3.444-2.411,3.933-5.015c0.02-0.108,0.039-0.205,0.056-0.296c-0.829-2.091-0.737-4.277-0.642-6.414  c0.042-0.916,0.083-1.862,0.057-2.812c-0.091-3.341-2.031-3.396-2.114-3.397c-0.546-0.005-0.985-0.388-0.98-0.935  C25.226,30.374,25.667,30,26.21,30c0.003,0,0.006,0,0.009,0c1.36,0,3.961,1.077,4.075,5.258c0.028,1.021-0.016,1.972-0.059,2.922  c-0.095,2.144-0.175,3.988,0.523,5.663c0.027,0.042,0.039,0.103,0.06,0.149c0.328,0.738,0.81,1.456,1.518,2.155  c0.711,0.701,1.391,1.417,2.055,2.132c0.72,0.775,1.409,1.517,2.087,2.164c0.028,0.019,0.047,0.05,0.073,0.072  c1.576,1.491,3.085,2.45,4.734,2.072c4.138-0.954,8.772-1.575,11.788,1.07c0.009,0.007,0.02,0.008,0.028,0.015  c3.412,2.853,2.812,6.544,2.016,8.097c-0.175,0.342-0.522,0.538-0.881,0.538c-0.152,0-0.305-0.035-0.45-0.109  c-0.485-0.248-0.677-0.841-0.432-1.326c0.072-0.147,1.5-3.155-1.522-5.681c-0.005-0.004-0.006-0.01-0.011-0.014  c-0.004-0.004-0.01-0.005-0.014-0.009c-2.354-2.108-6.622-1.461-10.077-0.664c-1.754,0.406-3.276-0.092-4.701-1.06  c-0.034,0.911-0.163,1.866-0.478,2.52c-0.226,0.468-0.544,0.799-0.921,1.035c1.043,3.176,5.144,3.792,5.789,3.769  c0.372-0.121,0.8-0.021,1.068,0.297c0.354,0.415,0.305,1.039-0.111,1.394c-0.241,0.207-0.627,0.283-1.063,0.283  c-1.22,0-2.842-0.595-2.864-0.604c-2.451-0.91-4.106-2.543-4.745-4.655c-1.08,0.019-2.281-0.223-3.361-0.445  c-1.005-0.204-2.259-0.457-2.705-0.314c-0.364,0.17-0.827,1.657-1.024,2.293c-0.17,0.545-0.321,1.019-0.503,1.39  c-0.618,2.358,2.03,4.87,2.058,4.895c0.069,0.063,0.111,0.141,0.158,0.216c0.761-0.218,1.521-0.373,2.266-0.387  c2.109-0.037,4.174,0.654,6.401,1.327C40.011,67.372,43.432,69,47.496,68c0.001,0,0.003,0,0.004,0c0.473,0,1.136-0.326,1.948,0.027  c0.627,0.27,1.266,0.581,1.943,0.942c2.044,1.088,4.364,2.307,6.972,1.843c0.89-0.156,1.551-0.051,2.318,0.08  c1.613,0.274,3.44,0.581,7.197-1.503c0.559-0.31,1.083-0.603,1.585-0.885c1.263-1.054,1.437-1.604,1.76-3.649  c0.185-1.174-0.02-1.556-0.281-2.038c-0.423-0.783-0.744-1.565-0.369-3.204c0.203-0.89,0.047-1.664-0.463-2.305  c-0.737-0.924-2.001-1.339-2.928-1.339c-0.547,0-0.989-0.442-0.989-0.989s0.442-0.989,0.989-0.989c1.709,0,3.466,0.818,4.475,2.084  c0.892,1.118,1.183,2.493,0.843,3.978c-0.239,1.046-0.08,1.339,0.182,1.824c0.429,0.794,0.762,1.589,0.494,3.286  c-0.073,0.464-0.148,0.869-0.229,1.237c2.041-1.41,2.956-2.64,2.593-4.329c-0.124-0.58,0.077-0.871,0.542-1.475  c0.46-0.597,1.09-1.415,0.956-2.663c-0.072-0.672-0.171-1.528-0.526-2.509c-1.149-1.879-2.405-2.368-3.288-2.708  c-0.348-0.135-0.649-0.251-0.919-0.428c-1.758-1.157-3.066-1.949-4.258-2.348c-0.003-0.001-0.007-0.001-0.009-0.002  c-0.018-0.005-0.033-0.015-0.05-0.022c-1.211-0.394-2.307-0.374-3.637,0.1c-3.182,1.138-7.26-0.257-10.913-3.725  c-1.639-1.557-2.626-1.583-4.417-1.631c-0.305-0.008-0.625-0.016-0.966-0.033c-0.422-0.022-1.436,0.334-2.376,0.677  c-2.113,0.775-4.743,1.737-6.934,0.706c-1.192-0.562-2.077-1.645-2.63-3.217c-1.068-3.038-1.159-5.802-1.226-7.821  c-0.048-1.463-0.094-2.846-0.533-2.93c-0.537-0.1-0.891-0.617-0.789-1.154c0.1-0.536,0.611-0.891,1.154-0.789  c1.999,0.375,2.067,2.429,2.145,4.808c0.066,1.996,0.147,4.479,1.115,7.229c0.377,1.07,0.902,1.752,1.607,2.084  c1.444,0.684,3.642-0.125,5.41-0.774c1.016-0.372,1.91-0.682,2.682-0.764c3.622-3.292,2.792-5.566,2.754-5.662  c-0.198-0.5,0.035-1.077,0.53-1.287c0.496-0.21,1.062,0.005,1.283,0.495c0.059,0.131,1.226,2.868-1.866,6.517  c1.392,0.123,2.745,0.521,4.419,2.11c2.394,2.275,5.987,4.334,8.886,3.299c1.41-0.503,2.648-0.593,3.853-0.377  c0.133-0.242,0.295-0.501,0.481-0.794c0.54-0.85,1.444-2.274,1.141-2.931c-0.229-0.496-0.012-1.084,0.484-1.313  c0.499-0.229,1.085-0.011,1.313,0.484c0.754,1.636-0.414,3.476-1.267,4.82c-0.001,0.001-0.002,0.003-0.003,0.004  c1.997-0.146,6.058-1.028,7.179-4.698c0.158-0.522,0.709-0.82,1.234-0.657c0.523,0.159,0.817,0.712,0.657,1.234  c-1.089,3.566-4.231,5.134-6.859,5.752c0.479,0.295,0.973,0.613,1.493,0.955c0.092,0.061,0.322,0.15,0.545,0.236  c1.002,0.387,2.719,1.056,4.211,3.443c0.927-0.034,1.884-0.12,2.747-0.313c1.555-0.35,2.458-0.763,3.254-1.127  c0.639-0.293,1.192-0.546,2.018-0.722c2.039-0.438,6.146-2.622,6.868-5.918c0.299-1.361,0.157-2.219-0.005-2.778  c-0.113-0.066-0.225-0.121-0.34-0.206C91.476,42.351,90.719,40.705,90.44,38.354z M59.433,59.705  c0.415-0.354,1.037-0.305,1.394,0.108c0.865,1.011,2.094,2.664,2.256,4.058c0.864-0.076,2.038,0.014,3.026,0.972  c0.393,0.381,0.403,1.006,0.023,1.399c-0.194,0.201-0.453,0.301-0.711,0.301c-0.248,0-0.496-0.093-0.688-0.278  c-0.557-0.541-1.262-0.475-2.063-0.345c-0.497,0.083-1.178,0.195-1.591-0.423c-0.187-0.278-0.324-0.75,0.084-1.406  c0.02-0.346-0.857-1.84-1.84-2.99C58.969,60.685,59.018,60.06,59.433,59.705z M87.514,47c-0.001,0-0.002,0-0.003,0  c-0.547,0-0.988-0.666-0.986-1.212c0.003-0.738-0.188-1.002-1.573-1.383c-1.042-0.286-2.34-0.696-3.194-1.946  c-2.659-3.89-6.558-4.318-9.998-4.671c-3.235-0.333-6.581-0.691-6.549-4.713c0.032-3.98,0.032-3.987-3.163-5.381  c-4.019-1.752-3.822-3.677-3.742-4.044c0.116-0.532,0.639-0.873,1.177-0.756c0.494,0.107,0.82,0.567,0.774,1.058  c0.03,0.115,0.319,0.935,2.581,1.922c3.842,1.676,4.391,2.243,4.351,7.203c-0.016,2.051,1.152,2.343,4.773,2.716  c3.482,0.357,8.251,0.848,11.427,5.495c0.445,0.65,1.205,0.859,2.085,1.1c1.209,0.332,3.036,1.053,3.028,3.406  C88.502,46.34,88.059,47,87.514,47z"/><path d="M47.424,69.715l-0.006,0.22c-0.017,0.568-0.181,3.59-1.763,5.224c-0.641,0.663-1.555,1.352-2.361,1.959  c-0.316,0.238-0.738,0.556-0.908,0.704c-0.89,1.201-2.415,2.094-4.522,2.664c-1.186,4.167-2.526,8.408-2.854,9.251  c-0.637,1.638,2.639,1.456,3.64,1.547c1.001,0.091,3.549-5.278,5.096-7.917s4.095-6.006,7.007-8.19  c1.145-0.859,1.977-2.054,2.569-3.19C50.481,70.12,49.316,69.514,47.424,69.715z"/><path d="M41.18,69.543c-1.704-0.331-3.281-0.801-4.763-1.248c-2.108-0.637-3.949-1.186-5.655-1.186c-0.045,0-0.09,0-0.134,0.001  c-1.124,0.021-2.422,0.499-3.796,1.005c-1.585,0.584-3.311,1.219-5.051,1.219c-0.901,0-1.806-0.17-2.698-0.607  c-1.263-0.619-2.047-0.778-2.523-0.79c0,1.835,0.48,6.65,5.445,8.423c3.462,1.236,6.683,0.783,8.08,1.099  c1.186,0.269,2.523,1.288,6.217,1.288c0.267,0,0.548-0.038,0.841-0.112c0.378-0.096,0.858-0.235,1.355-0.428  c0.878-0.342,1.812-0.858,2.352-1.635c0.284-0.409,2.401-1.773,3.384-2.789c1.129-1.167,1.207-3.805,1.207-3.805  C43.926,69.979,42.515,69.802,41.18,69.543z"/><text x="0" y="115" fill="#000000" font-size="5px" font-weight="bold" font-family="'Helvetica Neue', Helvetica, Arial-Unicode, Arial, Sans-serif">Created by Laymik</text><text x="0" y="120" fill="#000000" font-size="5px" font-weight="bold" font-family="'Helvetica Neue', Helvetica, Arial-Unicode, Arial, Sans-serif">from the Noun Project</text></svg>