<?xml version="1.0" standalone="no"?>
<!DOCTYPE svg PUBLIC "-//W3C//DTD SVG 20010904//EN"
 "http://www.w3.org/TR/2001/REC-SVG-20010904/DTD/svg10.dtd">
<svg version="1.0" xmlns="http://www.w3.org/2000/svg"
 width="1280.000000pt" height="969.000000pt" viewBox="0 0 1280.000000 969.000000"
 preserveAspectRatio="xMidYMid meet">
<metadata>
Created by potrace 1.15, written by Peter Selinger 2001-2017
</metadata>
<g transform="translate(0.000000,969.000000) scale(0.100000,-0.100000)"
fill="#000000" stroke="none">
<path d="M3660 9680 c-113 -10 -165 -28 -232 -76 -43 -32 -63 -39 -146 -51
-100 -15 -242 -63 -321 -110 -25 -14 -73 -52 -108 -85 -80 -74 -94 -75 -227
-4 -55 30 -128 62 -161 70 -95 26 -237 31 -325 12 -248 -52 -475 -276 -541
-534 -24 -95 -24 -140 1 -233 20 -76 25 -125 14 -154 -10 -25 -59 -45 -112
-45 -248 0 -359 -129 -392 -458 -29 -284 -43 -348 -95 -422 -14 -20 -67 -70
-118 -112 -216 -178 -304 -306 -363 -524 -16 -57 -19 -106 -19 -289 0 -208 2
-227 28 -335 47 -192 49 -178 -21 -232 -73 -56 -121 -125 -165 -233 -31 -79
-32 -83 -32 -245 l-1 -165 -55 -55 c-100 -101 -169 -228 -225 -415 -36 -121
-39 -258 -8 -325 26 -55 80 -112 145 -152 27 -16 49 -32 49 -34 0 -3 -13 -22
-30 -42 -59 -74 -127 -202 -159 -297 -61 -183 -51 -346 30 -515 38 -78 54 -97
205 -246 90 -88 167 -172 173 -186 6 -16 4 -52 -6 -111 -14 -87 -14 -88 12
-166 l27 -80 -21 -71 c-22 -73 -53 -230 -65 -332 -15 -122 32 -311 110 -441
221 -366 329 -471 554 -537 78 -23 115 -48 132 -90 6 -14 18 -73 28 -131 12
-71 32 -139 60 -205 99 -233 131 -269 311 -359 194 -98 242 -110 434 -110 142
0 172 3 267 28 114 29 209 34 244 14 11 -7 73 -68 137 -137 246 -262 223 -243
374 -317 236 -117 380 -151 593 -140 150 8 224 33 299 102 52 49 62 54 90 49
45 -9 168 55 246 128 67 62 106 129 130 223 30 117 9 381 -33 423 -13 13 -22
35 -22 51 0 49 48 277 91 431 34 120 42 166 46 265 7 153 -8 217 -77 324 -59
92 -74 132 -66 169 4 15 32 79 62 143 74 157 82 218 66 516 -12 236 -30 337
-99 563 -63 204 -61 182 -23 242 18 29 40 67 49 83 23 44 27 178 7 256 -23 88
-87 214 -140 275 l-45 51 50 59 c28 32 67 92 87 133 l37 75 3 303 c5 426 -8
639 -46 768 -28 97 -129 345 -191 473 -17 34 -31 64 -31 67 0 3 18 14 39 24
79 41 160 167 203 318 22 73 23 96 22 353 0 227 -4 285 -17 330 -32 106 -68
272 -62 291 3 10 24 33 47 50 l41 33 -6 67 c-8 92 -39 151 -112 209 l-35 28
33 19 c39 24 112 107 158 183 33 53 34 59 34 155 0 97 -1 103 -41 185 -23 47
-72 132 -108 190 -36 58 -66 113 -66 123 0 10 16 56 34 101 75 181 71 444 -10
581 -38 66 -94 110 -213 169 -60 29 -124 64 -142 77 -39 28 -111 33 -269 19z
m205 -102 c232 -79 318 -158 360 -335 29 -121 10 -354 -34 -422 -8 -13 -12
-13 -29 0 -29 21 -240 184 -290 224 -66 53 -114 43 -98 -20 11 -43 61 -88 159
-144 155 -87 282 -234 390 -449 36 -73 41 -92 41 -150 0 -79 -22 -133 -89
-228 -49 -69 -86 -94 -135 -94 -17 0 -82 23 -144 50 -281 125 -396 121 -893
-27 -61 -18 -106 -58 -83 -74 27 -18 133 1 284 52 240 81 367 83 587 9 155
-51 251 -101 310 -160 43 -43 49 -54 49 -91 0 -23 -10 -74 -21 -113 -31 -101
-22 -194 31 -351 34 -100 42 -142 51 -250 20 -242 -5 -440 -72 -566 -30 -56
-128 -159 -151 -159 -5 0 -29 20 -54 44 -39 39 -96 67 -110 53 -12 -12 34
-111 91 -197 80 -120 116 -194 198 -400 100 -250 102 -266 102 -710 0 -336 -2
-381 -18 -435 -28 -92 -74 -169 -144 -245 -99 -107 -222 -181 -454 -274 -152
-62 -243 -125 -224 -156 11 -18 67 -10 109 14 23 13 88 38 146 57 58 18 169
66 248 106 78 40 149 73 157 73 24 0 95 -71 120 -119 33 -65 55 -147 55 -202
0 -44 -33 -175 -49 -192 -4 -4 -24 17 -44 46 -21 30 -49 59 -63 65 -37 17
-100 15 -119 -4 -15 -15 -10 -23 63 -98 66 -67 87 -98 127 -181 102 -218 163
-451 172 -665 10 -231 -22 -385 -144 -700 -117 -300 -124 -340 -63 -340 33 0
59 30 88 104 l18 48 34 -38 c54 -62 73 -115 68 -198 -2 -42 -12 -87 -23 -111
-47 -98 -207 -201 -350 -226 -86 -15 -266 -6 -355 17 -205 53 -334 187 -366
381 -7 47 -18 91 -24 99 -18 21 -68 32 -175 37 -55 3 -113 10 -130 17 -83 32
-125 120 -125 263 0 116 18 183 69 260 42 62 52 106 27 126 -17 14 -40 -3
-177 -126 -115 -104 -206 -157 -344 -200 -86 -26 -99 -27 -285 -27 -186 1
-200 2 -315 32 -295 78 -393 151 -513 379 -154 297 -203 552 -137 717 21 50
26 73 18 85 -5 9 -63 34 -129 56 -65 23 -141 53 -167 69 -73 43 -136 113 -173
190 -46 96 -45 132 7 218 34 55 42 80 46 132 8 90 0 116 -35 116 -38 -1 -61
-21 -107 -97 -71 -117 -108 -129 -239 -74 l-79 33 -20 -21 c-29 -28 -30 -110
-2 -141 30 -33 60 -42 172 -49 120 -8 138 -19 147 -89 23 -164 209 -341 401
-382 33 -8 61 -14 63 -15 1 -1 -5 -24 -13 -51 -21 -71 -19 -224 4 -317 26
-101 59 -182 146 -364 81 -168 115 -223 188 -300 124 -132 300 -191 640 -214
180 -12 308 -4 417 27 60 18 191 80 249 120 19 13 39 24 43 24 5 0 8 -54 8
-119 0 -173 39 -282 129 -364 61 -55 122 -65 275 -45 16 3 21 -8 32 -59 29
-143 147 -295 283 -367 112 -59 172 -70 371 -70 182 0 267 13 419 65 30 11 58
19 63 19 13 0 -1 -68 -22 -110 -18 -35 -110 -128 -165 -167 -16 -11 -73 -44
-125 -73 -148 -81 -206 -150 -126 -150 55 0 141 39 259 117 61 40 111 72 112
70 3 -6 48 -260 57 -324 27 -183 -40 -324 -221 -466 l-58 -46 -6 50 c-7 54
-27 104 -42 104 -6 0 -26 -33 -46 -73 -20 -40 -47 -84 -60 -98 -53 -57 -225
-114 -344 -114 -137 0 -396 76 -509 150 -39 26 -129 102 -201 170 -71 67 -156
141 -188 163 -31 23 -57 43 -57 46 0 4 34 25 76 49 41 23 100 61 132 83 31 22
102 69 156 104 l99 64 70 -65 c96 -91 194 -138 299 -142 65 -3 79 -1 84 12 10
27 -15 46 -144 109 -192 93 -275 186 -302 337 -26 149 -33 180 -51 209 -23 38
-32 39 -47 6 -24 -53 -24 -99 2 -198 14 -53 26 -106 26 -118 0 -25 -97 -129
-120 -129 -25 0 -138 75 -193 128 -59 58 -87 128 -87 215 1 78 22 141 89 256
55 95 62 134 29 155 -23 14 -69 -9 -133 -66 -113 -102 -234 -132 -430 -106
-33 5 -30 -35 5 -76 49 -56 100 -64 260 -40 l35 5 22 -63 c13 -35 30 -97 38
-138 22 -109 64 -188 135 -253 32 -30 77 -61 99 -68 23 -8 42 -18 43 -24 6
-30 -196 -147 -327 -188 -136 -44 -191 -52 -360 -51 -139 1 -173 5 -260 27
-300 79 -435 229 -519 579 -20 81 -36 152 -36 157 0 7 35 11 98 11 53 1 133 7
177 15 44 8 83 15 86 15 4 0 8 -35 10 -78 5 -103 42 -180 114 -234 66 -51 127
-68 261 -75 180 -9 255 12 241 69 -4 14 -15 29 -24 33 -10 4 -76 9 -147 11
-154 4 -211 20 -274 78 -47 43 -92 124 -92 166 0 44 37 88 135 161 133 99 200
166 216 218 27 91 -25 74 -159 -51 -200 -187 -332 -241 -587 -240 -205 1 -378
64 -510 184 -109 100 -245 324 -298 493 -18 58 -22 94 -22 210 0 120 3 151 24
218 22 70 27 78 45 72 249 -74 425 -83 457 -23 16 30 2 35 -130 43 -80 5 -130
13 -161 27 -90 38 -173 147 -186 243 -4 26 1 90 12 155 23 138 18 149 -77 189
-36 15 -86 42 -111 59 -169 116 -292 374 -275 577 12 140 70 295 153 409 l36
49 52 -6 c28 -3 85 -20 126 -36 55 -22 92 -30 138 -31 34 0 77 -6 96 -14 48
-20 124 -102 258 -278 65 -87 142 -177 170 -202 103 -90 223 -136 354 -136
191 0 141 66 -98 128 -206 54 -257 93 -396 302 -78 118 -89 142 -109 235 -12
59 -43 71 -142 55 -106 -17 -148 -15 -225 14 -217 82 -383 227 -402 352 -20
135 70 371 183 481 61 59 80 57 134 -14 56 -75 83 -100 135 -122 45 -21 41
-10 71 -166 3 -16 12 -43 20 -60 22 -43 132 -205 162 -238 55 -61 159 -89 180
-49 15 29 -13 72 -80 122 -150 111 -213 240 -213 430 1 80 6 110 33 189 46
137 86 205 174 298 98 104 101 132 15 118 -104 -18 -233 -216 -303 -467 -9
-32 -21 -58 -26 -58 -25 0 -105 90 -134 153 -95 196 -54 449 94 590 33 31 67
57 75 57 9 0 26 -12 39 -27 72 -90 132 -128 165 -106 28 17 24 31 -33 88 -136
140 -223 428 -212 705 8 198 46 327 137 459 46 69 252 274 308 308 51 31 81
29 175 -13 117 -53 139 -32 92 88 -20 52 -34 72 -57 84 -68 35 -69 36 -62 221
3 93 12 197 20 232 27 123 94 209 198 257 68 31 223 61 237 47 8 -8 3 -35 -16
-94 -24 -72 -28 -100 -29 -207 -1 -116 0 -125 20 -139 34 -22 50 3 58 94 8 89
32 213 48 248 10 23 12 23 39 10 66 -35 106 -7 134 93 29 105 32 108 113 150
43 21 104 45 137 52 87 18 121 55 74 80 -41 22 -175 -21 -366 -119 -65 -33
-121 -57 -125 -53 -4 4 -19 48 -33 97 -36 121 -37 227 -4 305 72 170 211 335
333 395 116 58 232 67 377 29 80 -20 189 -68 259 -113 l60 -39 -30 -60 c-35
-68 -42 -72 -151 -72 -80 0 -117 -15 -106 -43 9 -23 80 -39 156 -35 64 3 66 2
80 -27 10 -21 16 -86 20 -224 6 -186 7 -194 28 -208 21 -14 25 -13 54 17 l32
31 -6 92 c-3 51 -13 146 -22 211 -27 195 -2 279 120 402 56 57 89 80 165 117
89 43 246 94 257 84 2 -3 -7 -27 -20 -54 -34 -67 -67 -170 -67 -209 0 -48 -17
-77 -58 -99 -55 -30 -77 -76 -77 -160 0 -162 79 -245 233 -245 69 0 254 28
267 41 6 6 6 15 -1 27 -13 19 -50 21 -146 7 -51 -7 -63 -5 -112 19 -69 34
-101 76 -101 134 0 33 5 47 26 65 30 24 49 73 49 122 0 17 9 67 20 111 62 247
222 397 400 378 25 -3 86 -19 135 -36z"/>
<path d="M2659 8380 c-86 -45 -191 -178 -209 -267 -6 -28 -10 -103 -8 -167 2
-84 0 -116 -9 -116 -37 0 -175 23 -212 35 -25 8 -56 15 -69 15 -23 0 -24 -3
-19 -36 16 -94 62 -119 224 -119 l123 -1 47 -45 c27 -25 60 -53 74 -61 41 -26
125 -47 211 -54 75 -7 79 -8 74 -28 -20 -72 -39 -185 -33 -199 3 -9 14 -17 24
-17 32 0 62 43 89 124 19 57 42 102 80 151 63 83 82 128 64 150 -16 19 -34 9
-120 -62 -35 -29 -69 -53 -75 -53 -55 0 -244 87 -299 138 -69 64 -88 200 -46
332 20 66 39 94 143 216 31 37 57 72 57 76 0 15 -75 7 -111 -12z"/>
<path d="M3647 7721 c-54 -50 -117 -151 -117 -189 0 -11 7 -27 15 -35 12 -13
7 -16 -43 -22 -93 -11 -173 -34 -246 -73 -131 -69 -212 -164 -341 -402 -120
-221 -189 -308 -304 -384 -84 -56 -145 -76 -229 -76 -132 0 -222 38 -337 141
l-80 71 -17 -22 c-10 -12 -22 -40 -28 -61 -14 -51 8 -100 59 -135 71 -49 246
-88 441 -100 l109 -7 -14 -26 c-48 -94 -10 -252 95 -389 l41 -53 -40 -46
c-151 -171 -82 -436 142 -546 84 -41 177 -59 283 -55 l91 3 6 -110 c3 -60 9
-120 12 -131 6 -19 2 -22 -32 -28 -21 -4 -76 -26 -122 -48 -153 -73 -283 -231
-325 -394 -9 -34 -16 -76 -16 -93 0 -17 -4 -31 -8 -31 -5 0 -46 10 -92 21
-135 34 -259 15 -473 -73 -54 -22 -102 -36 -106 -32 -4 5 -16 31 -25 57 -51
138 -188 232 -376 259 -83 11 -135 6 -166 -16 -18 -14 -18 -15 11 -26 17 -6
76 -20 133 -30 178 -32 251 -97 313 -279 11 -30 29 -65 41 -78 36 -39 54 -33
171 51 50 37 125 68 222 93 68 18 244 13 305 -8 51 -17 60 -34 60 -115 0 -74
29 -224 54 -280 16 -36 73 -67 114 -62 23 3 27 7 26 35 -1 17 -19 60 -39 94
-71 116 -103 321 -71 449 43 171 163 328 304 398 66 32 85 37 147 37 62 0 78
-4 121 -30 29 -19 68 -57 96 -95 76 -104 103 -130 130 -130 14 0 62 25 108 55
45 30 97 57 117 61 91 17 168 -17 241 -107 53 -65 109 -109 138 -109 22 0 24
4 24 48 0 91 -70 192 -159 229 -83 35 -260 23 -403 -26 l-54 -19 -25 47 c-53
102 -129 151 -257 167 l-54 7 4 121 c5 154 21 191 131 299 59 58 78 83 75 99
-4 30 -30 34 -85 13 -58 -22 -105 -64 -154 -137 -54 -78 -62 -82 -170 -68
-192 23 -316 101 -355 224 -22 70 -13 112 43 207 52 88 50 115 -15 213 -69
104 -86 165 -79 275 7 119 27 166 105 256 37 41 92 105 123 140 36 41 81 113
124 197 158 310 264 418 462 474 42 12 114 18 261 21 187 5 202 6 202 23 0 46
-60 66 -171 57 -38 -3 -69 -3 -69 0 0 29 38 137 66 188 58 106 23 129 -69 46z"/>
<path d="M1897 7672 c-53 -117 -69 -333 -41 -529 5 -32 1 -53 -15 -87 -21 -43
-195 -246 -217 -253 -16 -5 -111 188 -129 262 -41 162 9 372 108 461 64 57 82
94 47 94 -36 0 -114 -47 -168 -101 -78 -80 -94 -119 -100 -255 l-5 -114 -64 0
c-66 0 -234 -31 -306 -56 -79 -28 -112 -89 -68 -128 22 -20 46 -13 131 40 71
43 152 60 239 48 l65 -9 17 -55 c18 -60 105 -215 138 -244 12 -11 21 -25 21
-33 0 -25 -32 -76 -90 -144 -60 -70 -98 -139 -137 -254 -13 -38 -26 -76 -29
-84 -3 -9 -27 8 -73 53 -84 80 -170 124 -262 132 -76 8 -179 -11 -179 -31 0
-23 40 -38 138 -52 116 -16 159 -38 271 -142 l85 -78 -14 -59 c-19 -81 -17
-288 4 -397 20 -107 45 -174 89 -249 l34 -55 -50 -13 c-68 -17 -190 -101 -228
-157 -36 -51 -72 -146 -67 -176 2 -11 10 -25 19 -30 28 -17 62 14 139 128 71
104 73 105 157 147 l86 43 41 -49 c136 -162 251 -253 390 -307 85 -33 142 -35
159 -7 17 26 -6 44 -118 97 -134 63 -213 118 -306 210 -121 122 -214 278 -254
431 -42 159 -28 380 36 573 68 205 179 387 324 532 73 73 108 100 182 138 142
73 148 94 78 249 -41 91 -45 107 -45 178 0 51 9 111 25 174 31 119 32 169 5
196 -11 11 -24 20 -29 20 -4 0 -20 -26 -34 -58z"/>
<path d="M3611 6945 c-24 -14 -72 -48 -107 -76 -35 -27 -94 -66 -131 -86 -71
-37 -90 -38 -238 -20 -16 2 -21 -5 -23 -36 -6 -77 49 -117 162 -117 36 0 77
-5 91 -12 64 -29 128 -200 129 -343 0 -57 -9 -113 -30 -194 -26 -101 -32 -116
-59 -133 -16 -10 -42 -18 -57 -18 -15 0 -40 -11 -55 -24 -26 -23 -27 -25 -9
-32 11 -4 83 -2 160 4 213 18 234 17 305 -20 35 -18 95 -61 134 -95 72 -64
104 -80 132 -69 33 12 16 56 -41 112 -113 111 -209 154 -344 154 -36 0 -74 3
-86 6 l-20 5 23 47 c41 85 56 166 51 282 -6 126 -26 189 -92 285 -25 37 -46
75 -46 85 0 30 166 206 226 240 30 17 58 38 61 46 15 40 -72 45 -136 9z"/>
<path d="M3122 3910 c-46 -33 -57 -61 -68 -172 -9 -87 10 -185 47 -242 l28
-45 -42 -6 c-86 -13 -307 35 -423 92 -30 15 -81 54 -116 90 -54 55 -104 93
-122 93 -12 0 -16 -63 -7 -93 28 -84 216 -207 370 -241 96 -22 374 -39 438
-27 26 5 73 21 103 35 30 14 68 26 84 26 16 0 72 -20 125 -44 167 -76 265 -99
325 -76 60 22 19 52 -127 90 -78 21 -95 30 -148 77 -33 29 -71 56 -85 59 -15
4 -77 4 -138 0 l-112 -7 -27 29 c-32 34 -57 106 -57 166 0 23 11 76 25 119 14
43 25 84 25 92 0 25 -54 17 -98 -15z"/>
<path d="M1848 3769 c-57 -76 -82 -158 -140 -459 -43 -228 67 -373 315 -411
125 -20 289 11 317 60 6 11 13 13 23 6 171 -124 331 -181 574 -205 121 -12
283 -2 414 25 39 8 72 15 73 15 2 0 3 -53 2 -117 -1 -114 0 -120 30 -173 36
-64 78 -92 166 -110 91 -20 163 7 145 53 -3 8 -45 38 -94 67 -112 67 -141 94
-154 145 -10 37 -6 145 7 180 3 8 53 42 110 76 135 81 214 150 214 189 0 28
-15 40 -51 40 -11 0 -51 -29 -89 -65 -84 -79 -156 -126 -253 -164 -158 -63
-298 -84 -464 -70 -214 18 -391 86 -513 196 -39 34 -79 63 -90 63 -10 0 -36
-11 -56 -25 -89 -60 -252 -82 -365 -49 -115 34 -190 155 -175 282 4 30 27 118
52 195 51 156 64 241 41 271 -13 18 -15 17 -39 -15z"/>
<path d="M5179 9660 c-30 -16 -99 -52 -154 -79 -126 -62 -176 -105 -215 -184
-40 -82 -53 -158 -53 -292 1 -126 12 -181 55 -278 21 -49 29 -80 25 -102 -3
-17 -33 -73 -67 -125 -33 -52 -80 -133 -102 -180 -36 -73 -42 -95 -46 -166 -4
-72 -1 -89 20 -135 34 -74 114 -176 164 -212 l43 -30 -54 -48 c-60 -55 -83
-103 -92 -190 l-6 -59 47 -42 c28 -25 46 -50 46 -63 0 -13 -19 -96 -42 -186
l-42 -164 -1 -260 c0 -241 2 -266 23 -338 47 -162 111 -268 193 -319 27 -17
49 -35 49 -40 0 -5 -18 -44 -40 -88 -65 -130 -161 -369 -187 -470 -25 -91 -26
-111 -34 -530 -5 -277 -5 -455 1 -490 13 -74 61 -166 122 -235 l51 -56 -31
-32 c-95 -100 -172 -290 -172 -422 0 -81 13 -122 60 -193 22 -33 40 -70 40
-84 0 -13 -14 -64 -30 -114 -40 -117 -96 -343 -110 -444 -6 -45 -12 -178 -13
-298 -2 -249 2 -272 81 -426 66 -128 65 -163 -7 -274 -67 -104 -81 -144 -88
-254 -7 -102 7 -198 49 -348 39 -139 88 -374 88 -424 0 -27 -7 -47 -22 -63
-40 -43 -60 -281 -33 -406 30 -144 120 -255 268 -331 63 -32 82 -37 111 -32
34 7 40 3 93 -49 72 -70 140 -94 298 -102 212 -11 366 26 598 144 115 58 140
75 197 136 36 38 121 127 190 198 l126 129 61 0 c34 0 122 -14 195 -31 124
-29 142 -31 273 -26 161 5 200 15 360 89 211 98 245 133 343 350 42 93 57 139
72 233 11 64 27 129 35 146 18 35 63 65 111 73 50 10 168 61 217 95 64 44 152
137 205 216 263 398 296 518 232 844 -11 57 -22 107 -25 111 -3 4 -11 33 -20
65 -14 56 -14 60 11 133 21 59 25 85 20 121 -16 107 -18 159 -7 179 6 12 51
56 99 97 124 107 235 236 276 319 117 240 75 523 -116 784 -43 59 -47 68 -32
77 72 42 141 106 168 155 29 52 31 60 30 160 -1 123 -29 230 -98 375 -48 101
-139 228 -182 254 l-28 17 3 144 c3 172 -5 215 -64 336 -36 74 -57 103 -106
148 -34 31 -66 56 -70 56 -17 0 -18 36 -3 98 50 214 55 256 55 432 0 245 -26
365 -116 526 -39 71 -150 189 -308 327 -119 105 -145 173 -167 427 -15 179
-33 260 -75 347 -61 125 -138 170 -308 182 -81 6 -91 9 -113 34 -29 34 -30 59
-4 157 41 158 12 299 -96 462 -92 138 -213 236 -357 291 -76 28 -92 31 -212
31 -156 1 -234 -19 -360 -91 -47 -27 -97 -48 -121 -51 -40 -4 -45 -2 -112 61
-103 97 -250 164 -413 188 -84 12 -124 28 -188 74 -45 33 -91 44 -224 55 -167
14 -179 13 -238 -20z m531 -260 c0 -5 -4 -10 -10 -10 -5 0 -10 5 -10 10 0 6 5
10 10 10 6 0 10 -4 10 -10z m-4 -91 c53 -23 64 -34 64 -62 0 -15 -8 -17 -66
-13 -43 3 -73 11 -85 22 -18 16 -18 17 4 45 12 15 25 28 28 28 4 1 28 -9 55
-20z m-481 -265 c-51 -39 -52 -39 -83 -16 -33 25 -20 45 41 63 45 13 54 14 69
1 16 -13 14 -17 -27 -48z m1985 25 c0 -6 -4 -7 -10 -4 -5 3 -10 11 -10 16 0 6
5 7 10 4 6 -3 10 -11 10 -16z m20 -40 c0 -14 -17 -10 -23 5 -4 10 -1 13 9 9 7
-3 14 -9 14 -14z m-130 -3 c0 -11 -19 -15 -25 -6 -3 5 1 10 9 10 9 0 16 -2 16
-4z m-170 -36 c0 -5 -9 -10 -21 -10 -11 0 -17 5 -14 10 3 6 13 10 21 10 8 0
14 -4 14 -10z m-1880 -56 c0 -14 -21 -19 -33 -7 -9 9 13 34 24 27 5 -3 9 -12
9 -20z m235 6 c-3 -5 -11 -10 -16 -10 -6 0 -7 5 -4 10 3 6 11 10 16 10 6 0 7
-4 4 -10z m1485 -20 c0 -22 -9 -24 -61 -13 l-33 6 34 13 c50 18 60 17 60 -6z
m0 -84 c0 -24 3 -53 6 -63 4 -10 -7 -2 -24 17 -37 41 -40 36 -11 -15 12 -20
20 -37 18 -39 -2 -2 -25 -7 -50 -11 l-46 -7 -7 47 c-6 35 -3 52 8 70 12 18 13
23 3 19 -8 -3 -20 2 -27 11 -11 13 -4 15 59 15 l71 0 0 -44z m-1710 -57 c0 -5
-10 -9 -21 -9 -18 0 -19 2 -9 15 12 15 30 12 30 -6z m1724 -85 c4 -9 5 -18 4
-19 -2 -1 -22 -14 -45 -28 -56 -35 -67 -16 -16 28 44 39 49 41 57 19z m-1109
-4 c-8 -12 -95 -64 -99 -59 -2 2 -7 14 -10 26 -6 19 -2 23 31 28 21 4 45 8 53
10 28 5 31 5 25 -5z m-32 -109 c-21 -39 -41 -71 -45 -71 -5 0 -8 18 -8 39 0
22 -2 46 -5 53 -4 9 10 21 42 34 26 12 49 20 51 18 2 -1 -14 -34 -35 -73z
m-559 12 c-4 -16 -10 -35 -15 -43 -8 -16 -57 -47 -62 -39 -1 2 -17 23 -36 47
-18 24 -31 45 -29 47 2 2 22 -1 45 -8 34 -9 45 -8 65 6 33 23 39 21 32 -10z
m473 -81 c15 -11 15 -14 3 -26 -8 -8 -25 -17 -37 -21 -19 -5 -26 0 -44 38 -21
44 -22 45 -3 70 l19 25 22 -36 c13 -21 30 -43 40 -50z m-207 26 c0 -26 3 -30
23 -25 12 2 29 7 38 11 12 5 20 -1 29 -24 7 -17 10 -33 7 -36 -3 -4 -33 -12
-67 -19 -68 -14 -71 -12 -84 54 -5 27 -2 39 15 57 27 28 39 23 39 -18z m-310
-68 c0 -5 -2 -10 -4 -10 -3 0 -8 5 -11 10 -3 6 -1 10 4 10 6 0 11 -4 11 -10z
m95 -20 c4 -6 -5 -10 -19 -10 -14 0 -26 5 -26 10 0 6 9 10 19 10 11 0 23 -4
26 -10z m-125 -14 c0 -2 -25 -21 -55 -41 -30 -21 -55 -44 -55 -52 0 -15 -28
-17 -48 -4 -11 7 -11 14 3 42 29 56 34 59 96 59 33 0 59 -2 59 -4z m49 -64 c1
-7 -9 -17 -21 -23 -13 -6 -38 -19 -57 -29 -18 -10 -39 -16 -47 -13 -19 7 28
63 76 91 32 19 36 20 42 4 4 -9 7 -23 7 -30z m1582 -92 c23 0 29 -4 29 -22 1
-56 13 -118 26 -129 22 -18 17 -28 -13 -26 -22 2 -29 9 -36 37 -5 19 -13 40
-18 47 -7 7 -6 14 1 18 16 10 12 23 -7 19 -11 -2 -25 6 -36 21 -20 27 -14 50
10 41 8 -3 28 -6 44 -6z m-1772 -86 c-70 -26 -103 -50 -54 -40 17 3 52 8 79
12 l49 7 -6 -48 c-4 -26 -7 -67 -7 -91 0 -41 -2 -44 -28 -44 -28 0 -69 44
-118 128 l-19 34 59 55 58 54 24 -22 24 -23 -61 -22z m1884 44 c18 -13 33 -23
34 -23 1 -1 -11 -26 -26 -57 l-29 -56 -21 29 c-22 29 -23 48 -5 112 7 22 8 22
47 -5z m-323 -45 c0 -5 -4 -15 -10 -23 -11 -18 -25 -7 -17 15 6 15 27 21 27 8z
m-855 -33 c23 -25 13 -37 -20 -22 -16 7 -23 17 -19 27 8 20 17 19 39 -5z
m-111 -148 c3 -5 -11 -24 -31 -43 -23 -22 -34 -28 -29 -16 3 11 9 30 12 43 6
23 37 34 48 16z m-161 -66 c8 -51 -9 -34 -18 19 -5 26 -4 37 2 30 6 -5 13 -28
16 -49z m-390 -156 c-17 -30 -43 -41 -43 -18 0 17 31 48 47 48 11 0 11 -6 -4
-30z m-48 -69 c3 -5 1 -12 -5 -16 -5 -3 -10 1 -10 9 0 18 6 21 15 7z m2205
-205 c0 -12 -7 -13 -31 -6 -46 13 -48 20 -6 20 25 0 37 -4 37 -14z m240 -63
c0 -7 -11 -13 -24 -13 -24 0 -36 21 -36 64 0 17 4 16 30 -9 17 -16 30 -35 30
-42z m-492 -16 l13 -32 19 25 19 25 25 -24 25 -23 -25 -23 -25 -23 27 -9 c27
-9 27 -9 -42 -63 -37 -30 -75 -59 -82 -64 -20 -12 14 45 57 95 18 22 32 41 30
43 -2 2 -34 13 -71 25 -38 13 -68 25 -68 27 0 16 25 46 43 53 30 12 41 5 55
-32z m267 32 c12 -19 -5 -23 -22 -6 -16 16 -16 17 -1 17 9 0 20 -5 23 -11z
m473 -68 c11 -7 8 -19 -13 -62 -34 -67 -30 -63 -52 -50 -11 6 -13 11 -5 11 7
0 11 4 8 8 -3 5 4 21 15 38 10 16 19 37 19 47 0 19 8 21 28 8z m216 -67 c30
-14 58 -30 62 -35 6 -11 -33 -59 -48 -59 -5 0 -22 -15 -38 -32 l-29 -33 -1 39
c0 32 3 37 17 32 15 -6 16 -5 1 11 -12 14 -31 103 -22 103 1 0 27 -12 58 -26z
m-756 -37 l31 -32 -84 -26 -83 -26 30 62 c26 53 34 61 53 57 13 -2 37 -18 53
-35z m602 -61 c0 -9 -2 -16 -4 -16 -4 0 -75 39 -85 47 -2 1 3 11 13 22 16 18
18 18 46 -9 17 -16 30 -35 30 -44z m-27 -33 c29 -15 30 -16 24 -79 -7 -73 -33
-129 -53 -113 -6 5 -16 8 -22 7 -9 -3 -162 144 -162 157 0 3 16 26 36 50 l36
43 56 -25 c31 -13 69 -31 85 -40z m-456 -10 c2 -6 -10 -27 -28 -47 l-31 -36
-118 0 c-66 0 -121 4 -124 9 -4 5 2 23 11 40 18 31 19 31 103 32 47 0 103 4
125 8 47 10 57 9 62 -6z m-1127 -63 c0 -5 -5 -10 -11 -10 -5 0 -7 5 -4 10 3 6
8 10 11 10 2 0 4 -4 4 -10z m1019 -75 c-18 -25 -33 -58 -34 -72 0 -15 -5 -28
-12 -30 -7 -3 -10 3 -6 15 4 15 -6 23 -47 41 -29 12 -50 25 -47 27 8 8 151 63
165 63 8 1 0 -18 -19 -44z m1 -241 c0 -8 -4 -12 -10 -9 -5 3 -10 10 -10 16 0
5 5 9 10 9 6 0 10 -7 10 -16z m65 -6 c-4 -13 -9 -31 -12 -41 -3 -11 -11 -16
-20 -13 -8 3 -19 6 -24 6 -17 0 -9 21 19 45 34 31 45 31 37 3z m-256 -10 c18
-6 22 -13 17 -31 -3 -12 -6 -25 -6 -30 0 -9 -50 2 -67 16 -7 5 -13 23 -13 39
0 31 2 31 69 6z m531 -25 c0 -13 -3 -13 -15 -3 -8 7 -12 16 -9 21 8 13 24 1
24 -18z m-407 -13 c42 -10 88 -25 102 -33 25 -12 25 -14 9 -28 -14 -11 -16
-11 -10 0 7 11 -1 12 -47 7 -35 -5 -71 -3 -96 5 -35 11 -41 16 -41 41 0 15 2
28 3 28 2 0 38 -9 80 -20z m293 -22 c19 -21 19 -21 -6 -15 -14 4 -35 7 -47 7
-13 0 -23 4 -23 9 0 5 10 12 23 14 12 2 25 5 28 6 3 0 14 -9 25 -21z m74 -68
c0 -5 -12 -10 -27 -10 -22 0 -25 2 -13 10 20 13 40 13 40 0z m-92 -9 l24 -6
-21 -19 c-24 -22 -46 -16 -54 13 -5 22 6 25 51 12z m-38 -101 c0 -5 -4 -10
-10 -10 -5 0 -10 5 -10 10 0 6 5 10 10 10 6 0 10 -4 10 -10z m-84 -55 c-22
-17 -46 -20 -46 -6 0 11 18 19 45 20 20 0 20 0 1 -14z m302 -32 c-4 -22 -22
-20 -26 1 -2 10 3 16 13 16 10 0 15 -7 13 -17z m-218 -20 c0 -12 -33 -43 -45
-43 -7 0 -20 9 -29 19 -13 15 -14 20 -4 24 19 8 78 8 78 0z m10 -95 c0 -13
-23 -5 -28 10 -2 7 2 10 12 6 9 -3 16 -11 16 -16z m-1880 -308 c0 -5 -20 -10
-45 -10 -25 0 -45 5 -45 10 0 6 20 10 45 10 25 0 45 -4 45 -10z m2104 -105
c11 -22 31 -54 44 -72 23 -32 23 -32 2 -43 -25 -13 -93 4 -131 34 -22 17 -26
27 -22 51 6 32 49 76 72 72 7 -1 23 -20 35 -42z m1046 -14 c0 -5 11 -23 25
-39 23 -28 24 -32 10 -58 -8 -16 -15 -35 -15 -41 0 -18 25 -16 40 2 14 17 36
20 44 6 3 -5 1 -23 -5 -41 -9 -24 -9 -34 0 -40 8 -5 4 -12 -13 -23 -68 -45
-99 -3 -104 141 -3 71 -1 102 7 102 6 0 11 -4 11 -9z m-2246 -150 c12 -5 16
-10 9 -14 -11 -7 -63 8 -63 18 0 7 31 5 54 -4z m1337 -17 c21 -26 2 -26 -27 0
-26 22 -27 24 -7 19 12 -3 28 -12 34 -19z m-61 -30 c25 -12 24 -13 -11 -11
-21 1 -35 5 -33 9 3 4 -4 12 -13 18 -15 9 -14 10 7 4 14 -3 36 -12 50 -20z
m-390 1 c10 -13 9 -19 -6 -36 l-19 -21 -19 24 -19 23 7 -30 6 -30 -81 -3 -82
-3 25 33 c22 29 35 34 94 44 38 6 72 12 75 13 4 0 12 -6 19 -14z m-953 -45
c92 -43 123 -69 123 -104 0 -34 -29 -38 -145 -18 l-99 18 44 18 c25 10 53 20
64 22 20 4 32 12 25 17 -2 2 -34 18 -71 35 -43 20 -68 37 -68 47 0 21 20 15
127 -35z m1461 -33 c15 -42 15 -47 0 -47 -7 0 -23 16 -35 34 -23 36 -23 36 17
45 4 0 11 -14 18 -32z m-304 -74 c-27 -20 -34 -16 -34 17 l0 30 26 -17 c25
-16 25 -17 8 -30z m-2169 -33 c4 -6 -6 -7 -27 -3 -44 8 -48 13 -10 13 17 0 34
-4 37 -10z m621 -110 c12 -40 11 -42 -13 -51 -46 -17 -54 -13 -47 31 6 35 3
43 -25 70 -25 25 -29 35 -21 50 9 18 13 16 52 -20 26 -24 46 -54 54 -80z
m-716 102 c0 -5 -9 -17 -20 -27 -20 -18 -20 -17 -20 8 0 20 5 27 20 27 11 0
20 -4 20 -8z m2292 -66 c-3 -60 -2 -66 30 -102 30 -34 31 -37 11 -32 -25 7
-30 -1 -11 -20 9 -9 6 -12 -13 -12 -32 0 -60 29 -53 55 3 11 1 46 -4 77 -8 51
-7 59 12 77 11 12 23 21 26 21 3 0 4 -29 2 -64z m-1271 18 c48 -21 97 -45 110
-54 l23 -18 -55 -10 c-30 -6 -77 -14 -106 -17 -50 -6 -52 -6 -67 24 -21 40
-20 111 3 111 3 0 45 -16 92 -36z m1999 -44 c11 -22 20 -42 20 -45 0 -11 -36
-4 -62 13 -25 16 -26 19 -12 50 16 39 27 35 54 -18z m453 10 c7 0 21 -8 32
-17 19 -15 19 -15 -9 -9 -36 9 -60 32 -49 48 5 10 8 8 11 -4 2 -10 9 -18 15
-18z m-763 -66 c-11 -31 -14 -34 -22 -20 -7 12 -5 25 7 42 22 35 30 24 15 -22z
m40 -39 c0 -8 -7 -15 -16 -15 -14 0 -14 3 -4 15 7 8 14 15 16 15 2 0 4 -7 4
-15z m-1490 -25 c0 -22 -3 -23 -51 -13 l-33 6 34 13 c48 17 50 17 50 -6z
m1361 -57 c12 -15 12 -16 -4 -10 -10 4 -23 7 -28 7 -6 0 -7 5 -4 10 9 15 21
12 36 -7z m-16 -33 c3 -4 -2 -10 -10 -14 -8 -3 -15 -1 -15 5 0 6 -9 7 -22 3
-20 -6 -21 -5 -10 9 12 14 47 13 57 -3z m718 -44 c20 -16 22 -30 4 -44 -18
-15 -62 20 -54 42 8 19 26 20 50 2z m-133 -56 c-24 -48 -24 -46 0 -53 11 -3
23 -13 26 -22 6 -16 -13 -65 -26 -65 -3 0 -20 29 -37 64 l-32 64 32 26 c48 38
61 33 37 -14z m-1505 -53 c22 -8 40 -21 40 -28 0 -17 -77 -31 -86 -17 -4 7 -8
6 -10 -1 -7 -19 -54 10 -56 34 -3 39 31 42 112 12z m1893 -2 c7 -7 -16 -55
-25 -55 -17 0 -30 16 -37 44 -7 28 -6 29 25 22 18 -3 35 -8 37 -11z m-428 -65
l31 -39 -25 -46 c-13 -25 -26 -43 -29 -38 -7 12 -20 163 -14 163 3 0 19 -18
37 -40z m-225 -35 c35 -50 55 -67 55 -47 0 4 11 21 24 37 l25 30 -24 -80 c-18
-65 -26 -80 -41 -78 -174 14 -171 13 -219 55 -38 34 -45 45 -45 78 0 34 3 38
31 44 56 11 59 9 60 -36 1 -24 3 -34 6 -23 2 11 6 30 8 42 4 17 14 23 43 26
20 2 38 4 38 5 1 1 19 -23 39 -53z m-1317 -2 c9 -29 9 -39 -1 -45 -22 -14 -32
-2 -35 40 -4 54 20 57 36 5z m1012 -13 c0 -16 -4 -30 -10 -30 -5 0 -10 14 -10
30 0 17 5 30 10 30 6 0 10 -13 10 -30z m877 -64 c-3 -8 1 -20 9 -27 8 -7 14
-19 12 -28 -1 -9 1 -25 5 -37 4 -12 3 -32 -2 -45 -7 -18 -10 -20 -14 -9 -24
75 -41 112 -53 117 -8 3 -14 14 -14 24 0 15 7 19 31 19 23 0 30 -4 26 -14z
m-2783 -5 c3 -5 -4 -15 -17 -23 -12 -8 -34 -23 -49 -33 -36 -23 -36 -8 1 33
29 32 55 41 65 23z m1556 -36 c14 -16 10 -18 -14 -9 -9 3 -16 10 -16 15 0 14
16 11 30 -6z m850 0 c-7 -8 -17 -15 -22 -15 -6 0 -5 7 2 15 7 8 17 15 22 15 6
0 5 -7 -2 -15z m-2407 -71 c4 -21 -6 -40 -41 -86 l-46 -59 -17 50 c-23 66 -16
87 35 105 57 20 63 19 69 -10z m2037 -14 c0 -5 -13 -10 -30 -10 -26 0 -30 -4
-36 -36 -7 -40 -20 -34 -30 15 -6 30 -5 33 14 27 11 -4 23 -2 27 4 8 13 55 13
55 0z m-373 -58 c-23 -35 -70 -62 -84 -48 -11 11 39 74 62 80 14 4 25 12 25
18 0 9 3 9 12 0 8 -8 5 -21 -15 -50z m-1918 12 c18 -9 41 -14 52 -11 26 7 24
-2 -12 -46 -29 -35 -34 -37 -86 -37 l-56 0 22 24 c17 18 22 32 17 50 -5 22 2
32 25 35 3 1 20 -6 38 -15z m2006 -14 c3 -5 -1 -10 -10 -10 -9 0 -13 5 -10 10
3 6 8 10 10 10 2 0 7 -4 10 -10z m1025 -54 c-1 -40 -15 -86 -26 -86 -8 0 -14
5 -14 11 0 7 -9 9 -24 5 -21 -5 -25 -2 -31 30 -4 22 -1 48 6 65 l11 29 39 -22
c22 -12 39 -26 39 -32z m-2715 -16 c-21 -23 -45 -26 -45 -6 0 8 12 17 28 19
15 2 29 5 31 6 2 0 -4 -8 -14 -19z m-152 -50 c14 -11 32 -20 40 -20 9 0 19 -4
22 -10 3 -5 -1 -10 -9 -10 -9 0 -16 -4 -16 -10 0 -5 -20 -10 -45 -10 -44 0
-45 0 -45 33 0 52 13 59 53 27z m2833 -45 c3 -14 1 -32 -5 -39 -10 -12 -18
-12 -57 1 -42 14 -59 33 -30 33 7 0 19 7 26 15 21 25 59 19 66 -10z m124 -35
c0 -5 -5 -10 -11 -10 -5 0 -7 5 -4 10 3 6 8 10 11 10 2 0 4 -4 4 -10z m-595
-160 c-3 -5 -12 -10 -18 -10 -7 0 -6 4 3 10 19 12 23 12 15 0z m-195 -80 c0
-5 -10 -15 -22 -21 -23 -12 -23 -12 -4 10 21 23 26 26 26 11z m-1210 -36 c0
-8 -4 -12 -10 -9 -5 3 -10 10 -10 16 0 5 5 9 10 9 6 0 10 -7 10 -16z m1935
-49 l26 -45 -37 -45 c-30 -37 -39 -43 -51 -33 -22 18 -45 67 -37 81 11 18 65
87 69 87 2 0 15 -20 30 -45z m-938 -52 c4 -10 11 -21 17 -25 6 -4 8 -9 5 -12
-3 -3 -18 8 -34 24 -23 24 -25 30 -12 30 10 0 21 -8 24 -17z m388 -113 c3 -5
-11 -28 -32 -51 l-38 -41 -27 21 -27 21 42 39 c41 39 63 42 82 11z m104 -119
c11 -30 20 -56 18 -57 -5 -5 -113 19 -121 27 -5 5 7 28 29 54 21 26 41 43 46
38 4 -4 17 -32 28 -62z m-213 37 c10 -13 12 -17 4 -10 -8 6 -22 12 -33 12 -10
0 -15 5 -12 10 9 15 20 12 41 -12z m-2426 -218 c-8 -5 -28 -10 -45 -10 -23 0
-27 3 -15 10 8 5 29 10 45 10 23 0 27 -3 15 -10z m-126 -111 c8 -51 0 -61 -25
-30 -28 34 -24 71 6 71 7 0 15 -19 19 -41z m3214 -89 c28 -7 52 -15 52 -19 0
-4 -11 -18 -24 -30 -20 -19 -28 -21 -45 -12 -19 11 -21 9 -21 -18 0 -27 -4
-30 -42 -36 -24 -3 -58 -9 -75 -12 -18 -3 -33 -3 -33 1 0 3 23 37 51 76 35 48
57 69 68 66 9 -2 40 -10 69 -16z m142 -50 c0 -5 -4 -10 -10 -10 -5 0 -10 5
-10 10 0 6 5 10 10 10 6 0 10 -4 10 -10z m50 -59 c0 -16 -27 -31 -45 -25 -17
7 -17 8 1 21 20 15 44 17 44 4z m-2893 -67 c-3 -3 -12 -4 -19 -1 -8 3 -5 6 6
6 11 1 17 -2 13 -5z m222 -40 c19 -42 19 -48 6 -75 -18 -34 -20 -34 -116 -12
-54 12 -68 18 -53 23 22 9 94 85 94 100 0 6 11 10 25 10 19 0 28 -9 44 -46z
m-169 2 c0 -19 -4 -38 -10 -41 -5 -3 -10 3 -10 15 0 12 -5 30 -10 41 -9 16 -7
19 10 19 16 0 20 -6 20 -34z m1550 13 c11 -19 10 -20 -9 -9 -22 11 -29 30 -11
30 5 0 14 -9 20 -21z m-1054 -144 c-5 -28 -12 -45 -21 -45 -13 0 -9 29 11 89
10 29 16 0 10 -44z m158 -74 c8 -13 -21 -34 -39 -27 -20 7 -19 23 3 29 28 8
31 7 36 -2z m-630 -60 c19 -7 19 -8 -1 -13 -14 -4 -24 0 -27 8 -6 15 -1 16 28
5z m1014 -12 l27 -22 -54 7 c-29 4 -68 13 -85 21 -31 13 -31 13 27 14 46 1 65
-4 85 -20z m872 -100 c0 -16 4 -18 18 -10 12 6 23 6 33 0 10 -8 11 -12 2 -15
-7 -3 -29 -19 -50 -36 -67 -52 -164 -103 -173 -88 -6 10 -9 9 -13 -1 -4 -11
-8 -11 -22 2 -20 20 -12 40 36 84 23 21 30 25 26 12 -4 -11 -10 -31 -13 -45
l-7 -27 27 25 c15 13 45 48 67 77 41 52 69 61 69 22z m-3102 -12 c2 -10 -3
-17 -12 -17 -10 0 -16 9 -16 21 0 24 23 21 28 -4z m622 3 c0 -5 -5 -10 -11
-10 -5 0 -7 5 -4 10 3 6 8 10 11 10 2 0 4 -4 4 -10z m-58 -45 c5 -26 -6 -32
-31 -16 -17 11 -7 41 13 41 7 0 16 -11 18 -25z m163 -5 c3 -5 -8 -16 -25 -25
-30 -15 -36 -11 -24 19 7 18 39 22 49 6z m3035 -19 c0 -22 -25 -45 -40 -36
-16 10 -12 33 8 44 25 15 32 13 32 -8z m-460 -109 c15 -56 13 -82 -7 -83 -11
0 -13 -3 -5 -6 6 -2 12 -11 12 -19 0 -21 -37 -17 -61 7 -15 15 -24 18 -31 11
-8 -8 0 -16 25 -28 19 -9 33 -22 31 -29 -4 -10 -46 -35 -59 -35 -2 0 -8 21
-14 48 -10 46 -9 48 35 115 24 37 49 65 54 62 5 -3 14 -22 20 -43z m150 28 c0
-5 -4 -10 -9 -10 -6 0 -13 5 -16 10 -3 6 1 10 9 10 9 0 16 -4 16 -10z m-1230
-57 c-1 -5 -9 -23 -19 -42 l-18 -35 -17 32 c-23 45 -20 52 19 52 19 0 35 -3
35 -7z m-226 -13 c-6 -6 -21 -6 -39 -1 -30 9 -30 9 10 10 25 1 36 -2 29 -9z
m80 -6 c5 -12 2 -15 -10 -10 -8 3 -25 6 -35 6 -11 0 -17 5 -14 10 10 16 52 12
59 -6z m-873 -210 c21 -19 14 -44 -12 -44 -14 0 -19 7 -19 30 0 34 6 37 31 14z
m1869 -4 c0 -5 -5 -10 -11 -10 -5 0 -7 5 -4 10 3 6 8 10 11 10 2 0 4 -4 4 -10z
m-2210 -116 c0 -8 -5 -12 -10 -9 -6 4 -8 11 -5 16 9 14 15 11 15 -7z m1484 1
c-4 -8 -10 -12 -15 -9 -14 8 -10 24 6 24 9 0 12 -6 9 -15z m-40 -10 c21 -16
21 -17 -10 -33 -31 -16 -65 8 -45 32 16 20 30 20 55 1z m-1509 -509 c-5 -28
-4 -29 5 -7 l10 23 38 -28 c20 -15 39 -29 41 -30 1 -2 -14 -23 -35 -48 -38
-46 -38 -46 -89 -40 -27 4 -53 9 -57 13 -3 3 7 44 23 91 16 47 29 87 29 89 0
2 9 -4 20 -14 16 -14 19 -27 15 -49z m-701 35 c3 -4 -3 -16 -14 -26 -23 -21
-45 -9 -34 18 6 18 39 23 48 8z m167 -44 c-13 -12 -20 -15 -16 -7 14 26 28 41
33 35 3 -3 -5 -16 -17 -28z m334 -17 c8 -13 -4 -50 -16 -50 -5 0 -9 14 -9 30
0 30 13 40 25 20z m-545 -24 c0 -6 -3 -22 -7 -35 -6 -22 -6 -22 -19 9 -19 43
-18 49 6 43 11 -3 20 -10 20 -17z m921 -53 c7 -7 6 -18 -2 -32 -11 -17 -20
-19 -63 -14 -28 3 -53 7 -55 9 -2 2 8 22 23 44 l27 41 30 -18 c17 -10 35 -23
40 -30z m-432 8 c23 -6 23 -7 -16 -33 -44 -29 -53 -27 -53 7 0 36 15 41 69 26z
m2434 -211 c35 0 37 -2 27 -20 -15 -28 -85 -28 -100 -1 -15 29 -13 34 13 27
12 -3 39 -6 60 -6z m-2388 -110 c34 -35 36 -40 18 -40 -12 0 -28 -2 -35 -5
-10 -4 -18 6 -26 33 -20 67 -13 69 43 12z m-148 -46 c-3 -3 -12 -4 -19 -1 -8
3 -5 6 6 6 11 1 17 -2 13 -5z m795 -110 c-9 -16 -10 -16 -21 4 -8 15 -8 21 2
25 19 7 30 -9 19 -29z m-636 -27 c25 -55 61 -97 84 -97 18 0 80 45 80 59 0 4
-31 22 -70 41 -38 19 -70 37 -70 42 0 4 21 8 46 8 39 0 49 -5 72 -32 58 -69
58 -72 -18 -112 -60 -32 -72 -35 -94 -25 -21 10 -30 9 -53 -6 -26 -17 -26 -19
-8 -26 38 -15 -1 -9 -58 9 -44 14 -63 26 -77 50 -19 31 -19 32 0 42 10 5 26
10 36 10 10 0 14 3 11 7 -4 3 1 12 11 19 14 11 12 12 -13 2 -26 -9 -38 -7 -80
15 -28 14 -42 26 -32 27 9 0 17 3 17 8 0 4 44 6 99 4 l99 -3 18 -42z m-177
-38 c-14 -8 -29 -3 -29 11 0 4 9 6 21 3 15 -4 17 -8 8 -14z m-139 -34 c0 -11
-10 -15 -37 -14 -28 1 -31 3 -13 6 14 3 29 9 35 14 12 12 15 11 15 -6z m995
-45 c8 0 15 -2 15 -5 0 -12 -29 -75 -35 -75 -8 0 -44 81 -45 99 0 10 5 10 25
-3 13 -9 31 -16 40 -16z m-1005 -24 c0 -20 -13 -27 -30 -15 -13 8 -13 10 0 19
21 14 30 12 30 -4z m1180 -18 c23 -38 27 -108 7 -108 -23 0 -87 79 -87 108 0
8 36 30 53 31 4 1 16 -14 27 -31z m1114 -60 c8 -42 -1 -47 -34 -20 -22 18 -22
19 -5 52 19 38 28 31 39 -32z m92 21 l29 -11 -30 -24 c-38 -30 -55 -30 -55 0
0 31 10 57 20 51 4 -2 20 -9 36 -16z m-1466 -14 c14 -16 6 -35 -16 -35 -17 0
-19 20 -1 21 10 0 10 2 0 6 -15 5 -18 23 -4 23 5 0 14 -7 21 -15z m-171 -5
c10 -5 21 -17 25 -25 4 -13 -1 -11 -24 5 -40 29 -40 42 -1 20z m-59 -23 c0
-17 -9 -26 -36 -36 -30 -11 -35 -17 -31 -37 6 -31 -29 -42 -68 -22 l-27 14 44
36 c42 34 95 67 111 68 4 0 7 -10 7 -23z m1780 -37 c0 -5 -7 -7 -15 -4 -8 4
-15 8 -15 10 0 2 7 4 15 4 8 0 15 -4 15 -10z m-1267 -516 l36 -51 -32 -30
c-57 -54 -97 -44 -97 23 0 22 48 120 55 112 2 -2 19 -26 38 -54z m-389 -17
c16 -12 14 -22 -36 -162 -58 -163 -54 -159 -146 -167 l-37 -3 -14 134 c-14
128 -13 135 4 147 18 13 18 14 -3 14 -15 0 -22 6 -22 20 0 27 12 25 40 -5 21
-23 30 -25 99 -24 42 1 66 4 54 6 -13 2 -23 7 -23 10 0 8 44 42 56 43 5 0 18
-6 28 -13z m-345 -174 c-5 -21 -9 -42 -9 -47 0 -12 -30 14 -30 27 0 9 39 57
46 57 1 0 -2 -17 -7 -37z m-239 -34 c0 -32 -11 -37 -29 -15 -9 11 -10 20 -1
36 14 27 30 17 30 -21z"/>
<path d="M7816 2894 c-4 -9 -4 -19 -1 -22 2 -3 7 3 11 12 4 9 4 19 1 22 -2 3
-7 -3 -11 -12z"/>
</g>
</svg>
