<svg xmlns="http://www.w3.org/2000/svg" version="1.1" viewBox="-5.0 -10.0 110.0 135.0">
 <path d="m93.383 77.059c-1.7617-1.3555-1.8984-2.5781-1.6289-4.4727 2.168-14.102-0.40625-27.523-7.1875-40.137-4.8828-9.0859-12.066-16.543-20.34-22.914-7.5938-5.832-16.543-8-26.168-6.6445-18.707 2.7109-31.453 20.203-27.387 37.695 0.13672 0.40625-0.13672 1.2188-0.40625 1.6289-4.6094 2.168-7.7305 6.7812-7.7305 11.934 0 7.3203 6.3711 13.422 14.102 13.422h49.625c1.4922 0 2.9844-0.26953 4.4727-0.67969 0.94922 0.13672 1.7617 0.13672 2.168 0.13672 1.2188-0.13672 2.168 0.67969 2.4414 1.7617 0.54297 2.168 1.0859 4.6094 1.6289 7.0508 0.13672 0.54297-0.26953 1.2188-0.67969 1.6289-2.8477 2.9844-4.0664 6.3711-3.3906 10.305 0.8125 4.8828 5.1523 8.9492 10.574 9.625 5.2891 0.67969 10.441-2.0352 12.883-6.7812 2.1758-4.6094 1.0938-10.441-2.9766-13.559zm-18.305-22.914c0 4.6094-3.9336 8.2695-8.8125 8.2695h-49.625c-4.8828 0-8.8125-3.7969-8.8125-8.2695 0-4.6094 3.9336-8.2695 8.8125-8.2695h49.625c4.7461-0.13672 8.8125 3.6602 8.8125 8.2695zm10.035 37.016c-3.1172 0-5.832-2.4414-5.9648-5.4219 0-2.9844 2.5781-5.5586 5.832-5.6953 3.1172 0 5.832 2.4414 5.9648 5.5586-0.003906 2.9805-2.5781 5.5586-5.832 5.5586z"/>
<text x="0.0" y="117.5" font-size="5.0" font-weight="bold" font-family="Arbeit Regular, Helvetica, Arial-Unicode, Arial, Sans-serif" fill="#000000">Created by nabilahazharah</text><text x="0.0" y="122.5" font-size="5.0" font-weight="bold" font-family="Arbeit Regular, Helvetica, Arial-Unicode, Arial, Sans-serif" fill="#000000">from Noun Project</text></svg>