<svg xmlns="http://www.w3.org/2000/svg" viewBox="0 0 94 82.125" x="0px" y="0px"><g data-name="Layer 2"><g data-name="Layer 1"><path d="M85.94,47.81,84.53,35.5a28.94,28.94,0,0,1-.14-4.68,18.06,18.06,0,0,0-.5-5.68l-.06-.21a31.54,31.54,0,0,1-1.06-4.61A12.14,12.14,0,0,0,76,10.49a31.55,31.55,0,0,1-6.15-4C64.47,1.91,53-4.4,36.61,4.47l-.25.14C35,5.36,33.51,6.15,32,6.85A43.61,43.61,0,0,0,10,31.52c13.12-.28,39.74.43,57.51,9.37-.21-1.78,0-3,.68-3.81a2.39,2.39,0,0,1,2.11-.79A2.12,2.12,0,0,1,72,37.41l7.08,13.3A10,10,0,0,1,85.94,47.81Z"/><path d="M69.09,44C53.4,34.92,28,33.54,13.94,33.54c-4.09,0-7.2.12-8.81.2a1.49,1.49,0,0,0-1.28.8A33.31,33.31,0,0,0,.05,51.43a1.57,1.57,0,0,0,1.52,1.44c10,.24,44.12,1.66,64.28,9.69h0a1.74,1.74,0,0,0,1.74-.22c2.63-2.09,6.38-7.18,1.94-17.8A1.07,1.07,0,0,0,69.09,44Z"/><path d="M86.08,49.85A7.93,7.93,0,1,0,94,57.77,7.94,7.94,0,0,0,86.08,49.85Z"/></g></g><text x="0" y="80.7" fill="#000000" font-size="5px" font-weight="bold" font-family="'Helvetica Neue', Helvetica, Arial-Unicode, Arial, Sans-serif">Created by Bernd Lakenbrink</text><text x="0" y="85.7" fill="#000000" font-size="5px" font-weight="bold" font-family="'Helvetica Neue', Helvetica, Arial-Unicode, Arial, Sans-serif">from the Noun Project</text></svg>