<svg xmlns="http://www.w3.org/2000/svg" xmlns:xlink="http://www.w3.org/1999/xlink" version="1.1" x="0px" y="0px" viewBox="0 0 100 125" style="enable-background:new 0 0 100 100;" xml:space="preserve"><style type="text/css">
	.st0{fill:#010101;}
</style><path class="st0" d="M78.7,62.7c1-3.8,0.2-8.1-1.6-11.4c-1.7-3.1-5.8-5.1-8.7-7.1c-1.1-0.7-2.1-1.5-3.2-2.2  c-0.8-0.5-3.4-1.7-2.7-3.1c0.5-1,2-1.9,2.8-2.5c1.8-1.3,3.1-2,4.8-2.5c1.9,1.6,4.4,2.6,7.1,2.6c6.2,0,11.2-5,11.2-11.2  c0-6.2-5-11.2-11.2-11.2c-3.8,0-7.2,1.9-9.2,4.9c-2.1-0.4-4.3-0.3-6.4-0.1c-6.1,0.6-11.9,2.5-17.5,4.9C31,29.2,21.4,42.7,19.9,56.6  c-0.3,2.4,0,4.4,0.7,6.1c-5.1,1.1-8.9,5.6-8.9,11v1.1c0,6.2,5,11.2,11.2,11.2h53.1c6.2,0,11.2-5,11.2-11.2v-1.1  C87.3,68.3,83.6,63.9,78.7,62.7z M77.1,18.8c3.6,0,6.5,2.9,6.5,6.5c0,3.6-2.9,6.5-6.5,6.5c-0.6,0-1.2-0.1-1.7-0.2l0,0  c-1-0.3-1.9-0.8-2.7-1.5c0,0,0,0,0,0c-0.2-0.2-0.5-0.5-0.7-0.7l0,0c-0.9-1.1-1.4-2.5-1.4-4c0-0.2,0-0.4,0-0.6l0,0  c0-0.4,0.1-0.7,0.2-1c0,0,0-0.1,0-0.1c0.1-0.3,0.2-0.7,0.3-1c0,0,0,0,0,0c0.3-0.6,0.7-1.2,1.2-1.7C73.6,19.6,75.2,18.8,77.1,18.8z   M82.6,74.7c0,3.6-2.9,6.5-6.5,6.5H22.9c-3.6,0-6.5-2.9-6.5-6.5v-1.1c0-3.6,2.9-6.5,6.5-6.5h1.7h32.1h9h10.3c0.1,0,0.3,0,0.4,0l0,0  c3.4,0.2,6.1,3,6.1,6.5V74.7z"/><text x="0" y="115" fill="#000000" font-size="5px" font-weight="bold" font-family="'Helvetica Neue', Helvetica, Arial-Unicode, Arial, Sans-serif">Created by Akshar Pathak</text><text x="0" y="120" fill="#000000" font-size="5px" font-weight="bold" font-family="'Helvetica Neue', Helvetica, Arial-Unicode, Arial, Sans-serif">from the Noun Project</text></svg>